<?xml version="1.0" encoding="utf-8"?>
<!-- Generator: Adobe Illustrator 25.0.0, SVG Export Plug-In . SVG Version: 6.00 Build 0)  -->
<svg version="1.1" id="_x5F_البنك_المركزي_السعودي_ـ_SAMA__x2C__السعودية"
	 xmlns="http://www.w3.org/2000/svg" xmlns:xlink="http://www.w3.org/1999/xlink" x="0px" y="0px" viewBox="0 0 643.4 210.5"
	 style="enable-background:new 0 0 643.4 210.5;" xml:space="preserve">
<style type="text/css">
	.st0{fill:#403D3F;}
	.st1{fill:#226842;}
	.st2{fill:#403F3F;}
</style>
<g>
	<g>
		<g>
			<g>
				<path class="st0" d="M148.5,79.1c0,1.3-0.1,2.6-0.4,3.9c-0.5,2.5-0.9,3.7-1.2,3.7c-0.2,0-0.3-0.5-0.4-1.5
					c-0.1-2.2-0.2-3.4-0.2-3.6c-0.5-5.3-1.9-14.2-4.1-26.8c-0.6-3.5-1.4-8.7-2.5-15.6c-0.5-0.4-0.7-0.8-0.6-1
					c0.2-0.6,0.6-1.5,1.1-2.8c0.4-1,0.6-1.5,0.7-1.5c0.2,0,1,1.6,2.5,4.9c1.7,3.6,2.4,5.6,2.2,5.7c-0.2,0.1-0.7-0.1-1.3-0.8
					c-0.2-0.2-0.7-0.7-1.5-1.5c1,5.2,2.4,13.6,4.3,25C148.1,73,148.5,77,148.5,79.1"/>
				<path class="st0" d="M69.9,81.4c0,2.6-0.6,4.6-1.9,6c-1,1-4.5,3.4-10.7,7c-7,4.1-11.5,6.2-13.5,6.2c-2.6,0-3.9-1.6-3.9-4.9
					c0-2.9,0.7-6,2.1-9.2c0.7-1.6,1.1-2.4,1.4-2.3c0.4,0,0.2,1-0.6,3c-0.8,2-1.2,3.8-1.2,5.4c0,2.3,1,3.5,3.1,3.5
					c2,0,6.1-1.8,12.5-5.6c7.7-4.4,11.6-6.9,11.6-7.3c0-1-1.3-2.2-3.9-3.6c-2-1-4-2-6-3c-3.4-1.8-6.2-4.1-8.3-6.9
					c-0.1,0-0.3-0.2-0.6-0.5c0-0.1,0-0.9,0-2.3c0-1.4,0-2.2,0.1-2.2c0.3,0,1.4,0.5,3.2,1.6c1.8,1.1,2.7,1.7,2.6,2
					c0,0.2-0.6,0.3-1.7,0.3c2.2,2,4.9,3.7,8.1,5.2c3.2,1.5,5.2,2.5,5.9,3.2C69.3,78,69.9,79.5,69.9,81.4"/>
				<path class="st0" d="M33.9,98.2l-2.1,3.8l-4.3-2.5l-1.8,3.2l-4.4-2.6l2.1-3.8l4.3,2.5l1.8-3.2L33.9,98.2 M47.1,60.7
					c0,0.7-0.1,1.4-0.5,2.2c-0.3,0.8-0.6,1.2-0.8,1.2c-0.1,0-0.5-0.4-1.1-1.2c-0.6-0.8-1.1-1.2-1.6-1.2c-1.3,0-3.3,1.3-6,3.9
					c-2.7,2.6-4.1,4.6-4.1,6c0,0.6,0.7,1.3,2,2c1.1,0.6,2.2,0.9,3.3,1c3,0.3,5,0.7,6.1,1.3c1,0.6,1.5,1.4,1.5,2.6
					c0,2.2-0.6,4.1-1.7,5.5c-1.8,2.3-5.4,4.8-10.8,7.3c-5.8,2.7-10.9,4-15.2,4c-5.6,0-9.4-2.5-11.4-7.4c-1.1-2.7-1.2-6-0.3-9.9
					c0.5-2.2,1.3-4.3,2.2-6.3c0.7-1.4,1.1-2,1.3-1.9c0.2,0.1,0.1,0.8-0.4,2.2c-1.1,3.2-1.7,5.8-1.7,7.7c0,3,0.9,5.5,2.7,7.5
					c2.1,2.3,5.1,3.4,9,3.4c3.3,0,7-0.8,11.2-2.4c3.1-1.2,6.2-2.7,9.2-4.5c2.5-1.5,3.8-2.4,3.8-2.7c0-0.8-1.1-1.3-3.4-1.6
					c-6.3-0.7-9.4-2.5-9.4-5.3c0-3.3,1.6-7,4.9-11c3.2-3.9,5.9-5.8,8.1-5.8c0.8,0,1.5,0.3,2.1,1C46.8,59,47.1,59.8,47.1,60.7
					 M10.1,71.2c-0.5,1.9-1.4,2.9-2.6,2.9c-0.7,0-1.2-0.2-1.5-0.7c-0.7-1.1-1-2.3-1-3.6c0-0.9,0.1-2.1,0.5-3.7c0.4-2,1-4.2,2-6.6
					c0.4-0.9,0.7-1.3,0.9-1.3c0.1,0,0.1,0.1,0.1,0.3c0,0.3-0.1,0.7-0.3,1.3c-0.4,1.2-1,3.4-1.7,6.7c-0.3,1.8-0.3,3.2,0.2,4.2
					c0.3,0.7,0.8,1,1.4,1c0.4,0,0.7-0.1,0.9-0.4c0.1-0.2,0.4-0.5,0.7-1c0.1-0.4,0.3-0.5,0.4-0.5C10.4,69.6,10.5,70.1,10.1,71.2"/>
				<path class="st0" d="M135.5,60.8c-1.2-6.7-2.4-13.3-3.6-20c0.8,0.8,1.3,1.3,1.5,1.5c0.7,0.7,1.1,1,1.3,0.8
					c0.1-0.1,0.1-0.1,0.1-0.2c0-0.3-0.8-2.2-2.2-5.6c-1.4-3.3-2.3-5-2.5-5c-0.1,0-0.4,0.5-0.8,1.6c-0.5,1.2-0.8,2.2-1.1,2.8
					c-0.1,0.2,0.1,0.6,0.7,0.9c1,7,1.8,12.2,2.3,15.7c2.6,14.8,3.9,23.7,3.9,26.8c0,0.3-0.5,0.8-1.5,1.3c-1,0.5-1.8,0.8-2.5,0.8
					c-0.2,0-0.4,0-0.6,0c-0.9-0.1-1.7-0.4-2.5-0.9c-0.5-0.3-0.9-0.6-1.1-1c-0.3-0.4-0.4-1-0.4-1.5c0-0.3,0-0.5,0-0.7
					c0-0.5,0-0.7,0-0.7c-0.3-0.1-0.8,0.4-1.4,1.6c-0.3,0.8-0.7,1.5-1.1,2.2c-0.6,0.9-1.5,1.3-2.8,1.2c-1.5-0.1-2.4-0.6-2.6-1.6
					c0.1-0.8,0.3-1.5,0.3-2.3c0.1-0.4,0.1-0.6-0.1-0.7c-0.3-0.1-0.7,0.4-1.3,1.2c-0.6,0.8-1,1.5-1.5,2c-0.1,0.1-0.3,0.3-0.5,0.4
					c-1.2,1-2.7,1.9-4.2,2.1c-0.2,0-0.4,0-0.6,0c0,0-0.1,0-0.1,0c-0.3,0-0.6-0.1-1-0.1c-0.1,0-0.2,0-0.3-0.1c-1-0.4-1.6-1.3-1.8-2.7
					c0-0.5,0.1-1,0.2-1.7c0.1-0.4,0-0.6-0.2-0.7c-0.2-0.1-0.5,0.1-1,0.5c-0.6,0.6-1.1,1.2-1.6,1.6c-0.3,0.3-0.5,0.5-0.7,0.7
					c-0.3,0.3-0.6,0.5-0.9,0.8c-0.2,0.2-0.5,0.4-0.7,0.6c-0.4,0.3-0.8,0.6-1.3,0.8c-0.3,0.2-0.6,0.3-0.9,0.4
					c-0.8,0.2-1.7,0.3-2.5,0.4c-0.5,0-1,0-1.5-0.1c-0.9-0.2-1.6-0.9-1.7-1.8c-0.1-0.6,0-1.2,0.2-1.8c0.2-0.8,0.3-1.7,0.6-2.6
					c0.1-0.4,0.3-0.8,0.4-1.2c0.8-0.5,1.7-0.8,2.6-1.2c1.1-0.4,2.2-0.8,3.3-1.3c0.7-0.4,1.5-0.7,2.1-1.2c0.2-0.2,0.3-0.4,0.5-0.6
					c0.5-0.9,1-1.8,1.2-2.9c-2.2,0.7-4.2,1.9-6.4,2.6c-1,0.4-2,0.8-3.1,1c0,0,0,0-0.1,0c-1.3,0.3-2.5,0.3-3.8-0.2
					C90,72.2,88,70.3,86.7,68c-0.2-0.3-0.3-0.5-0.4-0.8c-0.3-0.8-0.9-1.9,0-2.5c2.6-1.6,5.8-1.8,8.9-2c2.1-0.3,4,0.7,6.1,0.7
					c-2.1-1.8-4.6-3.3-7.4-3.5c-2.6-0.3-5.4,0-7.4,1.9c-1.6,1.3-2.4,3.3-2.7,5.4c0,0.3,0,0.6,0,1c0.1,0.9,0.4,1.8,0.7,2.6
					c0.2,0.5,0.4,1,0.7,1.5c0.5,0.8,1.1,1.6,1.7,2.3c0.7,0.6,1.5,1.2,2.2,1.7c-1.5,0.7-3,1.5-4.6,1.9c-0.3-0.6-0.6-1.2-1.1-1.9
					c-1.4-2.1-2.9-3.2-4.4-3.3c-1.4-0.1-2.7,0.7-3.8,2.2c-1,1.4-1.5,2.8-1.5,4.3c0,2.5,1.5,3.7,4.6,3.7c2.2,0,3.9-0.2,5.1-0.7
					c0.4,0.6,0.6,1.2,0.6,1.9c0,1.1-2,3.2-6.1,6.3c-4.5,3.4-8.3,5-11.4,5c-2.2,0-3.9-0.7-5.2-2.2c-1.3-1.5-1.9-3.3-1.9-5.5
					c0-1.3,0.2-2.6,0.5-3.9c0.3-1.3,0.5-2,0.5-2c0-0.1,0-0.2-0.1-0.2c-0.3-0.1-0.8,0.8-1.4,2.7c-0.6,2.1-0.9,4.1-0.9,6
					c0,2.8,0.7,5,2,6.6c1.4,1.8,3.5,2.8,6.2,2.8c2.9,0,6.2-1.4,10.1-4.2c3.4-2.4,5.9-4.9,7.6-7.4c1-1.4,1.5-3.6,1.6-6.4
					c2.8-0.8,5.9-2.3,9.4-4.6c-0.9,2.5-1.5,5.2-1,7.9c0.3,1.1,1.1,2.3,2.3,2.6c1.7,0.3,3.5,0.2,5.1-0.6c0.4-0.2,0.8-0.4,1.1-0.7
					c1.3-0.7,2.4-1.9,3.4-3.4c0,3,1.4,4.5,4.2,4.5c2.7,0,5-1.6,6.9-4.8c-0.1,0.9,0.1,1.8,0.7,2.5c0.4,0.5,0.8,0.8,1.3,0.9
					c0.3,0.1,0.6,0.1,0.9,0.1c2.3,0,4-1.5,5.1-4.5c0.1,0,0.2,0.3,0.4,0.8c0,0,0,0,0,0c0.3,0.7,0.6,1.2,0.9,1.6
					c1,1.3,2.2,1.9,3.8,1.9c0,0,0,0,0,0c0,0,0,0,0,0c0,0,0,0,0,0c0,0,0,0,0,0c3.3,0,5.4-1.8,6.3-5.3c0.6-2.3,0.8-4.2,0.8-5.8
					C137.3,72.9,136.7,68.1,135.5,60.8z M78.6,79.1c-1.4-0.1-2-0.4-2-1c0-0.3,0.2-0.5,0.5-0.7c0.4-0.2,0.7-0.3,0.9-0.3
					c1.1,0.1,2.1,0.8,3.1,2C80.4,79.2,79.6,79.2,78.6,79.1z"/>
				<path class="st0" d="M64.4,56.2c-0.4,1.3-0.9,1.9-1.7,1.9c-0.4,0-0.8-0.2-1-0.5c-0.4-0.7-0.7-1.5-0.7-2.3c0-0.6,0.1-1.4,0.3-2.4
					c0.2-1.3,0.7-2.7,1.3-4.3c0.2-0.6,0.4-0.9,0.6-0.9c0,0,0.1,0.1,0.1,0.2c0,0.2-0.1,0.5-0.2,0.8c-0.3,0.8-0.6,2.2-1.1,4.4
					c-0.2,1.2-0.2,2.1,0.2,2.7c0.2,0.4,0.5,0.6,0.9,0.6c0.2,0,0.4-0.1,0.6-0.3c0.1-0.1,0.2-0.4,0.4-0.6c0.1-0.2,0.2-0.4,0.2-0.4
					C64.6,55.1,64.6,55.5,64.4,56.2"/>
				<path class="st0" d="M58.1,100.1c0.1,0.1,0,0.4-0.2,0.8c-0.2,0.4-0.3,0.6-0.4,0.7c-2.6,1-5.3,2-7.9,2.9
					c-3.3,1.3-5.8,2.3-7.3,3.2c-0.1-0.2-0.1-0.5,0-1c0.1-0.4,0.2-0.7,0.3-0.8C47.3,103.8,52.5,101.9,58.1,100.1"/>
				<path class="st0" d="M89.9,43.4c0.3-1.4,0.1-2.1-0.7-2.1c-0.7,0-1.1,0.3-1.1,0.9C88.2,42.6,88.7,43,89.9,43.4 M91.9,44.2
					c0,0.1-0.1,0.3-0.3,0.7c-0.2,0.3-0.3,0.5-0.3,0.5c-0.5-0.1-1.1-0.2-1.7-0.5c-1.2,1.8-3.6,3.8-7.3,5.8c-0.3,0.2-1.1,0.5-2.3,1
					c-1.2,0.5-1.9,0.7-2,0.6c0-0.1,0.6-0.5,1.9-1.2c4.6-2.4,7.6-4.6,9.2-6.4c-1.4-0.6-2.1-1.4-2.1-2.2c0-0.5,0.3-1.1,0.9-1.8
					c0.6-0.7,1.1-1.1,1.7-1.1c0.7,0,1,0.7,1,2.2c0,0.6-0.1,1.1-0.3,1.7C91.4,43.9,91.9,44.1,91.9,44.2"/>
				<path class="st0" d="M121,50.3c0.3-1.4,0.1-2.1-0.7-2.1c-0.7,0-1.1,0.3-1.1,0.9C119.3,49.5,119.8,49.9,121,50.3 M123,51.1
					c0,0.1-0.1,0.3-0.3,0.7c-0.2,0.3-0.3,0.5-0.3,0.5c-0.5-0.1-1.1-0.2-1.7-0.5c-1.2,1.8-3.6,3.8-7.3,5.8c-0.3,0.2-1.1,0.5-2.3,1
					c-1.2,0.5-1.9,0.7-2,0.6c0-0.1,0.6-0.5,1.9-1.2c4.6-2.4,7.6-4.6,9.2-6.4c-1.4-0.6-2.1-1.4-2.1-2.2c0-0.5,0.3-1.1,0.9-1.8
					c0.6-0.7,1.1-1.1,1.7-1.1c0.7,0,1,0.7,1,2.2c0,0.6-0.1,1.1-0.3,1.7C122.5,50.8,123,51,123,51.1"/>
				<path class="st0" d="M120.9,94c0,1.1-0.4,1.6-1.2,1.6c-0.3,0-0.6-0.1-0.8-0.3c-0.1-0.1-0.2-0.1-0.3,0.1
					c-0.4,0.6-0.9,0.9-1.6,0.9c-0.3,0-0.5-0.1-0.7-0.2c-0.6-0.4-1.4-0.4-2.4,0c-0.4,0.2-1.1,0.8-2.1,1.7c-0.6,0.5-1.1,1-1.7,1.4
					c-0.9,0.7-2,1.3-3.3,1.8c-1,0.4-1.7,0.6-2.1,0.6c-0.1,0-0.2,0-0.2-0.1c0.1-0.1,0.3-0.2,0.5-0.3c0.5-0.2,1.1-0.4,2-0.9
					c1.5-0.9,2.9-1.9,4.1-3.1c1-1.1,2-1.9,3.1-2.4c0.8-0.4,1.4-0.4,2-0.1c0.2,0.2,0.5,0.3,0.8,0.3c0.8,0,1.4-0.4,1.7-1.2
					c0.2-0.5,0.3-0.7,0.6-0.7c0.1,0,0.1,0.1,0,0.2c-0.1,0.4-0.1,0.6,0,0.6c0.2,0.3,0.5,0.4,1,0.2c0.3-0.1,0.3-0.2,0.1-0.4
					c-0.2-0.1-0.2-0.2-0.1-0.4c0.2-0.4,0.3-0.7,0.4-0.7C120.7,92.9,120.9,93.3,120.9,94"/>
				<path class="st0" d="M33.2,50c0,1.5-0.3,2.7-1.1,3.8c-0.7,1-1.4,1.5-2.2,1.5c-0.5,0-0.8-0.2-1.1-0.5c-1.1,1.1-2.2,1.7-3,1.7
					c-1.3,0-1.9-0.7-1.9-2.2c0-0.5,0.2-1.4,0.7-2.5c0.4-1.1,0.8-1.7,1.1-1.7c0.2,0,0.3,0.2,0.3,0.7c-0.1,1-0.2,1.5-0.2,1.5
					c0,0.3,0.3,0.5,0.8,0.5c0.8,0,1.5-0.4,2.1-1.2c0.6-0.8,0.9-1.2,0.9-1.2c0.3,0,0.5,0.2,0.6,0.6c0.1,0.4,0.2,0.6,0.4,0.6
					c0.7,0,1.2-0.4,1.6-1.2c0.4-0.8,0.6-1.2,0.7-1.2C33.1,49.1,33.2,49.4,33.2,50"/>
				<path class="st0" d="M122.8,61.7c0,1.5-0.3,2.7-1.1,3.8c-0.7,1-1.4,1.5-2.2,1.5c-0.5,0-0.8-0.2-1.1-0.5c-1.1,1.1-2.2,1.7-3,1.7
					c-1.3,0-1.9-0.7-1.9-2.2c0-0.5,0.2-1.4,0.7-2.5c0.4-1.1,0.8-1.7,1.1-1.7c0.2,0,0.3,0.2,0.3,0.7c-0.1,1-0.2,1.5-0.2,1.5
					c0,0.3,0.3,0.5,0.8,0.5c0.8,0,1.5-0.4,2.1-1.2c0.6-0.8,0.9-1.2,0.9-1.2c0.3,0,0.5,0.2,0.6,0.6c0.1,0.4,0.2,0.6,0.4,0.6
					c0.7,0,1.2-0.4,1.6-1.2c0.4-0.8,0.6-1.2,0.7-1.2C122.7,60.9,122.8,61.2,122.8,61.7"/>
				<path class="st0" d="M94.8,99c-1.3,1.7-3.1,2.6-5.2,2.6c-1.5,0-2.3-0.6-2.3-1.8c0-0.5,0.2-1.3,0.7-2.4c0.5-1.1,1-1.9,1.5-2.2
					c-0.8-0.6-1.3-1.3-1.3-1.9c0-0.5,0.3-1.1,1-2c0.6-0.8,1.3-1.2,1.8-1.2c0.5,0,0.7,0.3,0.7,1c0,0.2-0.1,0.5-0.2,0.8
					c-0.1,0.3-0.2,0.5-0.4,0.5c-0.1,0-0.1-0.1-0.2-0.3c-0.1-0.3-0.2-0.5-0.5-0.5c-0.1,0-0.3,0.1-0.6,0.3c-0.3,0.2-0.4,0.4-0.4,0.6
					c0,0.6,0.6,1,1.8,1c0.2,0,0.6-0.2,1.1-0.7c0.3-0.3,0.6-0.5,0.8-0.5c0.1,0,0.1,0.4-0.1,1.2c-0.1,0.2-0.3,0.4-0.6,0.6
					c-0.7,0.3-1.6,1-2.5,2c-1,1-1.6,1.8-1.6,2.3c0,0.7,0.7,1.1,2.1,1.1c1.2,0,2.5-0.4,4.1-1.2c0.2-0.1,0.4-0.1,0.5-0.1
					C95.1,98.6,95,98.8,94.8,99"/>
			</g>
			<g>
				<g>
					<path class="st0" d="M300.3,75.5c0,1.3-0.1,2.6-0.4,3.9c-0.5,2.5-0.9,3.7-1.2,3.7c-0.2,0-0.3-0.5-0.4-1.5
						c-0.1-2.2-0.2-3.4-0.2-3.6c-0.5-5.3-1.9-14.2-4.1-26.8c-0.6-3.5-1.4-8.7-2.5-15.6c-0.5-0.4-0.7-0.8-0.6-1
						c0.2-0.6,0.6-1.5,1.1-2.8c0.4-1,0.6-1.5,0.7-1.5c0.2,0,1,1.6,2.5,4.9c1.7,3.6,2.4,5.6,2.2,5.7c-0.2,0.1-0.7-0.1-1.3-0.8
						c-0.2-0.2-0.7-0.7-1.5-1.5c1,5.2,2.4,13.6,4.3,25C299.9,69.4,300.3,73.5,300.3,75.5"/>
					<path class="st0" d="M285.6,75.2c-1,0-2.3,0.3-3.8,1c-0.7-1.8-1.3-4.7-2-8.5c-1.5-11.8-2.6-21.2-3.2-28.3
						c0.8,0.8,1.2,1.3,1.4,1.4c0.6,0.8,1.1,1.1,1.3,1c0-0.1,0-0.1,0-0.3c0-0.3-0.6-2.2-1.9-5.5c-1.3-3.3-2-5-2.3-5
						c-0.1,0-0.4,0.5-0.8,1.6c-0.3,0.6-0.8,1.5-1.3,2.7c-0.1,0.3,0.2,0.6,0.6,1.1c0.8,13.5,1.9,24.2,3.4,32c0.8,4.6,1.5,7.5,2,8.9
						c0,0,0,0.1,0,0.1c-3.6,1.7-6,2.5-7.2,2.5c-0.1,0-0.2,0-0.3,0c-1-0.1-1.9-0.5-2.6-1.1c-0.2-0.2-0.6-0.6-0.9-1.4
						c-0.3-0.7-0.6-1-0.7-1s-0.3,0.6-0.5,1.9c-0.2,1.3-0.3,2-0.3,2.2c0-0.2,0.5,0.8,1.5,2.8c1,2.1,1.5,3.7,1.5,4.9
						c0,0.8-2.2,2.8-6.7,5.8c-4.1,2.7-7.6,4.1-10.7,4.1c-4.8,0-7.2-2.3-7.2-7c0-1.4,0.3-3.1,0.9-5c0.5-1.6,0.6-2.4,0.6-2.4
						c-0.3-0.2-0.6,0.1-1.1,0.8c-1.4,2.6-2.1,5.8-2.1,9.4c0,5.7,2.7,8.5,8,8.5c2.8,0,6.2-1.2,10.2-3.6c3.9-2.3,6.6-4.7,8.1-7.1
						c0.5-0.7,0.8-2,1.1-3.6c0.3-1.7,0.3-3,0.2-3.9c1.6,0,3.3-0.4,5.3-1.2c1.4-0.7,2.8-1.4,4.2-2c1.9,3.5,4,5.2,6.2,5.2
						c2.4,0,3.6-2.2,3.6-6.5C290,76.6,288.5,75.2,285.6,75.2z M287,81.9c-1.2,0-2.3-0.7-3.4-2.1c0.6-0.2,1.4-0.3,2.5-0.1
						c0.4,0.1,0.8,0.3,1.2,0.7c0.4,0.4,0.6,0.7,0.6,1C288.1,81.8,287.7,81.9,287,81.9z"/>
					<g>
						<polygon class="st0" points="189,64.5 184.6,61.9 182.4,65.7 186.8,68.3 						"/>
						<path class="st0" d="M261.4,69.9c-1.1-1.1-2.4-1.9-3.8-2.4c-2.5-0.9-6.6-1.1-12.1-0.4c-8.1,0.8-14.3,1.5-18.3,2.1
							c-6.4,0.6-11.1,0.6-14.2,0.2c-3.5-0.5-5.2-1.2-5.2-2.3c0-1.1,1.7-2.8,5.2-5.2c6.2-4.2,11-6.4,14.4-6.4c0.5,0,0.8,0.1,1,0.3
							c0.5,0.6,0.7,0.9,0.8,0.9c0.3,0,0.6-0.5,0.8-1.4c0.3-1,0.5-1.7,0.5-2.2c0-1.2-0.5-1.7-1.4-1.7c-3.6,0-8.5,2.1-14.5,6.2
							c-6.2,4.2-9.2,8.3-9.2,12.1c0,2,2,3.3,5.9,3.7c3.8,0.5,9.4,0.3,16.6-0.5c8.7-1,14.8-1.7,18.1-2c3.9-0.3,6.7-0.2,8.6,0.3
							c3.4,1,5.5,2.6,6.4,4.8c-8.1,1.6-17,2.9-26.9,4.1c-9.9,1.2-17.8,1.7-23.7,1.7c0,0,0,0-0.1,0c0,0,0,0-0.1,0
							c-11.6,0-18.8-2.4-21.6-7.1c-0.4-0.7-0.7-1-0.8-1c-0.1,0-0.3,0.7-0.7,2.2c-0.3,1.5-0.4,2.3-0.4,2.4c2.4,3.3,3.6,5.9,3.6,7.8
							c0,0.5-0.2,0.9-0.5,1.2c-1.3,1.4-3.6,3.1-7.1,5.2c-4.5,2.6-8.2,3.9-11.1,3.9c-4.8,0-7.1-2.3-7.1-7c0-1.4,0.3-3.1,0.8-5
							c0.5-1.6,0.7-2.5,0.6-2.5c-0.3-0.1-0.6,0.2-1,0.8c-1.4,2.6-2.2,5.8-2.2,9.4c0,5.7,2.7,8.5,8.1,8.5c3.5,0,7.7-1.6,12.5-4.8
							c4.4-2.9,6.9-5.3,7.6-7.1c0.7-1.6,1.1-3.4,1.1-5.3c3.4,1.6,9.1,2.4,17.2,2.4c0,0,0,0,0,0c0,0,0,0,0,0c6.3,0,16.3-0.9,29.7-2.7
							c11.3-1.6,17.9-2.6,19.9-3.1c0.8-0.2,1.6-0.3,2.3-0.5c0.2,0,0.6-0.8,1.4-2.4c0.8-1.6,1.1-2.5,1.1-2.7
							C263.8,72.7,263,71.2,261.4,69.9z"/>
					</g>
					<polyline class="st0" points="163.1,97.8 161,101.6 156.6,99.1 154.9,102.3 150.4,99.7 152.6,95.8 156.9,98.4 158.7,95.2 
						163.1,97.8 					"/>
					<path class="st0" d="M180.6,59.7c0,0.7-0.1,1.4-0.5,2.2c-0.3,0.8-0.6,1.2-0.8,1.2c-0.1,0-0.5-0.4-1.1-1.2
						c-0.6-0.8-1.1-1.2-1.6-1.2c-1.3,0-3.3,1.3-6,3.9c-2.7,2.6-4.1,4.6-4.1,6c0,0.6,0.7,1.3,2,2c1.1,0.6,2.2,0.9,3.3,1
						c3,0.3,5,0.7,6.1,1.3c1,0.6,1.5,1.4,1.5,2.6c0,2.2-0.6,4.1-1.7,5.5c-1.8,2.3-5.4,4.8-10.8,7.3c-5.8,2.7-10.9,4-15.2,4
						c-5.6,0-9.4-2.5-11.4-7.4c-1.1-2.7-1.2-6-0.3-9.9c0.5-2.2,1.3-4.3,2.2-6.3c0.7-1.4,1.1-2,1.3-1.9c0.2,0.1,0.1,0.8-0.4,2.2
						c-1.1,3.2-1.7,5.8-1.7,7.7c0,3,0.9,5.5,2.7,7.5c2.1,2.3,5.1,3.4,9,3.4c3.3,0,7-0.8,11.2-2.4c3.1-1.2,6.2-2.7,9.2-4.5
						c2.5-1.5,3.8-2.4,3.8-2.7c0-0.8-1.1-1.3-3.4-1.6c-6.3-0.7-9.4-2.5-9.4-5.3c0-3.3,1.6-7,4.9-11c3.2-3.9,5.9-5.8,8.1-5.8
						c0.8,0,1.5,0.3,2.1,1C180.3,58,180.6,58.8,180.6,59.7"/>
				</g>
				<path class="st0" d="M266.1,45.3c0,0.1-0.1,0.5-0.4,1.1c-0.3,0.6-0.5,1-0.7,1c-7.6,2.6-13.7,4.6-18.1,6.2
					c-8.5,3-14.5,5.3-18.2,6.9c0-0.4,0.2-0.9,0.5-1.4c0.3-0.5,0.6-0.8,0.9-1C240.6,53.8,252.6,49.5,266.1,45.3"/>
				<path class="st0" d="M203.1,92.5c0.1,0.1,0,0.4-0.2,0.8c-0.2,0.4-0.3,0.6-0.4,0.7c-2.6,1-5.3,2-7.9,2.9
					c-3.3,1.3-5.8,2.3-7.3,3.2c-0.1-0.2-0.1-0.5,0-1c0.1-0.4,0.2-0.7,0.3-0.8C192.4,96.3,197.5,94.3,203.1,92.5"/>
				<path class="st0" d="M288.4,92.6c0-0.8-0.3-1.3-0.9-1.3c-0.5,0-0.8,0.2-0.8,0.5c0,0.1,0.2,0.2,0.6,0.4
					C287.8,92.5,288.1,92.6,288.4,92.6 M289.4,92.3c0,1.1-0.2,1.7-0.6,1.7c-1.1,0-2.1-0.4-3-1.2c-0.1,0.6-0.4,1.3-0.8,1.9
					c-0.5,0.6-2.3,1.5-5.2,2.8c-2.4,1.1-3.8,1.7-4.3,1.8c-1.9,0.4-3.6,0.7-5,0.9c-0.1,0-0.2,0-0.3,0c-0.1,0-0.1-0.1-0.1-0.1
					c0-0.1,0.1-0.1,0.3-0.2c0.5-0.1,1.8-0.6,4-1.5c2.5-1,4.2-1.7,5.4-2.2c2.7-1.1,4.4-2,5.1-2.7c0.4-0.4,0.6-0.7,0.8-1
					c0.1-0.5,0.5-1.1,0.9-1.7c0.5-0.6,0.8-0.9,1.2-0.9c0.4,0,0.8,0.3,1.2,0.8C289.2,91.2,289.4,91.7,289.4,92.3"/>
				<path class="st0" d="M167.7,42.4c0.3-1.4,0.1-2.1-0.7-2.1c-0.7,0-1.1,0.3-1.1,0.9C165.9,41.6,166.5,42,167.7,42.4 M169.7,43.2
					c0,0.1-0.1,0.3-0.3,0.7c-0.2,0.3-0.3,0.5-0.3,0.5c-0.5-0.1-1.1-0.2-1.7-0.5c-1.2,1.8-3.6,3.8-7.3,5.8c-0.3,0.2-1.1,0.5-2.3,1
					c-1.2,0.5-1.9,0.7-2,0.6c0-0.1,0.6-0.5,1.9-1.2c4.6-2.4,7.6-4.6,9.2-6.4c-1.4-0.6-2.1-1.4-2.1-2.2c0-0.5,0.3-1.1,0.9-1.8
					c0.6-0.7,1.1-1.1,1.7-1.1c0.7,0,1,0.7,1,2.2c0,0.6-0.1,1.1-0.3,1.7C169.2,42.9,169.7,43.1,169.7,43.2"/>
				<path class="st0" d="M169.2,51.1c0,1.5-0.3,2.7-1.1,3.8c-0.7,1-1.4,1.5-2.2,1.5c-0.5,0-0.8-0.2-1.1-0.5c-1.1,1.1-2.2,1.7-3,1.7
					c-1.3,0-1.9-0.7-1.9-2.2c0-0.5,0.2-1.4,0.7-2.5c0.4-1.1,0.8-1.7,1.1-1.7c0.2,0,0.3,0.2,0.3,0.7c-0.1,1-0.2,1.5-0.2,1.5
					c0,0.3,0.3,0.5,0.8,0.5c0.8,0,1.5-0.4,2.1-1.2c0.6-0.8,0.9-1.2,0.9-1.2c0.3,0,0.5,0.2,0.6,0.6c0.1,0.4,0.2,0.6,0.4,0.6
					c0.7,0,1.2-0.4,1.6-1.2c0.4-0.8,0.6-1.2,0.7-1.2C169,50.3,169.2,50.5,169.2,51.1"/>
				<path class="st0" d="M211,39.4c0.1,0.2,0.1,0.6,0,1.3c-0.1,0.7-0.3,1.1-0.5,1.1c0,0-0.1-0.2-0.5-0.7c-0.3-0.5-0.6-0.7-1-0.7
					c-0.7,0-1.2,1.5-1.5,4.6c-0.3,3.1-0.6,4.6-0.8,4.5c-0.3,0-0.6-0.7-1-2c-0.4-1.7-1.1-3-2-4c0,0.1-0.1,0.2-0.2,0.3
					c-0.1,0.1-0.5-0.1-1.2-0.6c-0.7-0.4-1-0.8-1.1-1.2c-0.1-1.6,0.1-2.4,0.7-2.4c1.2,0,2.5,1.4,3.8,4.5c0.2,0.6,0.5,1.4,0.8,2.2
					c0.1-1.5,0.3-2.9,0.6-4.4c0.4-2.7,1-4,1.9-4C209.7,38.1,210.4,38.5,211,39.4"/>
				<path class="st0" d="M238,90.8c0.1,0.2,0.1,0.6,0,1.3c-0.1,0.7-0.3,1.1-0.5,1.1c0,0-0.1-0.2-0.5-0.7c-0.3-0.5-0.6-0.7-1-0.7
					c-0.7,0-1.2,1.5-1.5,4.6c-0.3,3.1-0.6,4.6-0.8,4.5c-0.3,0-0.6-0.7-1-2c-0.4-1.7-1.1-3-2-4c0,0.1-0.1,0.2-0.2,0.3
					c-0.1,0.1-0.5-0.1-1.2-0.6c-0.7-0.4-1-0.8-1.1-1.2c-0.1-1.6,0.1-2.4,0.7-2.4c1.2,0,2.5,1.4,3.8,4.5c0.2,0.6,0.5,1.4,0.8,2.2
					c0.1-1.5,0.3-2.9,0.6-4.4c0.4-2.7,1-4,1.9-4C236.8,89.5,237.4,89.9,238,90.8"/>
				<path class="st0" d="M272,61c0-0.1-0.4-0.4-1.1-0.9c-0.7-0.5-1.1-0.8-1.2-0.8c-0.1,0-0.2,0.2-0.4,0.8c-0.2,0.5-0.3,0.8-0.3,1
					c0,0.6,0.3,0.8,0.8,0.8c0.2,0,0.6-0.1,1.2-0.3C271.7,61.3,272,61.1,272,61 M272.9,60.2c0,2.4-1,3.6-3.2,3.6c-1,0-1.6-0.6-1.6-2
					c0-1.5,0.5-2.9,1.4-4.3c0.2-0.8,0.4-1.2,0.6-1.2s0.2,0.1,0.1,0.3c-0.1,0.3-0.2,0.6-0.2,0.9C272,58.6,272.9,59.5,272.9,60.2"/>
			</g>
			<g>
				<g>
					<path class="st0" d="M403.6,84.9c0,1.3-0.1,2.6-0.4,3.9c-0.5,2.5-0.9,3.7-1.2,3.7c-0.2,0-0.3-0.5-0.4-1.5
						c-0.1-2.2-0.2-3.4-0.2-3.6c-0.5-5.3-1.9-14.2-4.1-26.8c-0.6-3.5-1.4-8.7-2.5-15.6c-0.5-0.4-0.7-0.8-0.6-1
						c0.2-0.6,0.6-1.5,1.1-2.8c0.4-1,0.6-1.5,0.7-1.5c0.2,0,1,1.6,2.5,4.9c1.7,3.6,2.4,5.6,2.2,5.7c-0.2,0.1-0.7-0.1-1.3-0.8
						c-0.2-0.2-0.7-0.7-1.5-1.5c1,5.2,2.4,13.6,4.3,25C403.1,78.9,403.6,82.9,403.6,84.9"/>
					<g>
						<polygon class="st0" points="343.8,68.7 339.4,66.1 337.3,69.9 341.7,72.5 						"/>
						<polygon class="st0" points="371.9,92.2 376.3,94.8 378.4,90.9 374,88.4 						"/>
						<path class="st0" d="M390.7,65.2c-0.8-5.2-1.7-10.3-2.7-15.5c0.8,0.8,1.3,1.4,1.5,1.6c0.6,0.7,1.1,1,1.3,0.9
							c0-0.1,0-0.1,0-0.2c0-0.4-0.7-2.2-2.2-5.6c-1.4-3.3-2.3-5-2.5-5c-0.1,0-0.5,0.7-1.1,2.1c-0.4,1.1-0.7,1.8-0.8,2.2
							c-0.1,0.2,0.1,0.6,0.6,1.1c0.9,6.5,1.7,11.2,2.2,14.2c1.5,8.5,2.4,14.6,2.6,18.2c0.1,1.1-0.5,2.1-1.7,2.8
							c-1.1,0.7-2.2,1-3.4,1.1c-0.1,0-0.1,0-0.2,0c-1.4,0-2.4-0.4-3.2-1.3c-0.6-0.7-0.8-1.9-0.6-3.5c0.1-0.5-0.1-0.8-0.3-0.8
							c-0.2,0-0.7,0.3-1.5,0.8c-2.3,1.4-5.4,2.5-9.4,3.5c-3.7,0.9-7.1,1.3-10.2,1.3c-6.5,0-10.5-1-12.2-3.1
							c-0.9-1.2-1.2-2.3-0.8-3.4c0.1-0.4,0-0.6-0.3-0.6c-0.5,0-1.3,0.9-2.4,2.7c-1.6,2.7-3.4,4-5.3,4c-0.1,0-0.1,0-0.2,0
							c-1.3-0.2-2.4-0.8-3-1.9c-0.9-1.4-1.7-4.3-2.4-8.7c-0.9-6-1.7-10.4-2.2-13.4c-1.6-10.7-3-18.3-4.2-22.6
							c-0.6-2.2-0.9-3.2-1.1-3.2c-0.1,0-0.3,0.8-0.6,2.3c-0.4,1.5-0.5,2.5-0.5,2.7c0-0.2,1.1,5.8,3.1,18c2.1,12.2,3.1,19.3,3.1,21.3
							c0,1.4-0.6,2.6-1.9,3.4c-2.7,1.7-6.2,3.4-10.3,4.8c-5,1.8-9.3,2.7-12.9,2.7c-3.4,0-6-0.8-8-2.5c-2-1.7-2.9-3.9-2.9-6.6
							c0-0.8,0.2-2.1,0.6-3.7c0.4-1.3,0.4-2,0.2-2.1c-0.3-0.2-0.7,0.2-1.1,1.3c-1.1,2.5-1.7,4.9-1.7,7.2c0,3.3,1,5.9,3.1,7.8
							c2.1,2.1,5.2,3.2,9.2,3.2c3.3,0,7.5-0.9,12.6-2.8c4.8-1.8,8.5-3.7,11.2-5.6c1.6-1.2,2.5-3,2.8-5.6c0.9,4.9,2.8,7.6,5.7,8
							c0.1,0,0.1,0.1,0.2,0.1c0.1,0,0.2,0,0.3,0c0.1,0,0.2,0,0.3,0c0.2,0,0.3,0,0.5-0.1c1.9-0.3,3.4-1.4,4.5-3.2
							c1-1.7,1.5-2.5,1.6-2.5c1.3,4.1,5.9,6.1,13.7,6.1c0,0,0,0,0,0c0,0,0,0,0,0c0,0,0,0,0,0c0,0,0,0,0,0c3.5,0,7.5-0.6,11.9-1.9
							c4.1-1.2,7.1-2.4,9-3.7c0.3,3.7,1.8,5.6,4.3,5.6c0.1,0,0.3,0,0.4-0.1c2.6-0.1,4.6-1.3,6.1-3.6c1.4-2.2,2-4.8,2-7.8
							C391.9,73.3,391.5,69.8,390.7,65.2z"/>
						<path class="st0" d="M305.8,77.6c3.4-0.1,5.5-0.4,6.2-0.9c0.7-0.5,1.6-1.4,2.5-2.7c1.2-1.6,1.7-3,1.7-4.1
							c0-1.1-0.9-1.7-2.6-1.7c-1.7,0-2.6-0.2-2.6-0.5c0-1.2,0.9-1.9,2.6-2.2c0.2-0.1,0.5-0.6,0.9-1.6c0.4-1,0.6-1.7,0.6-2
							c0-0.2-0.1-0.3-0.4-0.3c-0.9,0-2.2,1.1-3.8,3.3c-1.6,2.2-2.4,4.1-2.4,5.5c0,1.5,1.7,2.2,5,2.3c-0.4,0.7-1.5,1.5-3.4,2.3
							c-1.4,0.6-2.9,1.2-4.5,1.8c-0.5,0.2-0.7,0.3-0.7,0.4C305,77.5,305.3,77.6,305.8,77.6z"/>
					</g>
				</g>
				<path class="st0" d="M320.4,56.8c-0.4,1.3-0.9,1.9-1.7,1.9c-0.4,0-0.8-0.2-1-0.5c-0.4-0.7-0.7-1.5-0.7-2.3
					c0-0.6,0.1-1.4,0.3-2.4c0.2-1.3,0.7-2.7,1.3-4.3c0.2-0.6,0.4-0.9,0.6-0.9c0,0,0.1,0.1,0.1,0.2c0,0.2-0.1,0.5-0.2,0.8
					c-0.3,0.8-0.6,2.2-1.1,4.4c-0.2,1.2-0.2,2.1,0.2,2.7c0.2,0.4,0.5,0.6,0.9,0.6c0.2,0,0.4-0.1,0.6-0.3c0.1-0.1,0.2-0.4,0.4-0.6
					c0.1-0.2,0.2-0.4,0.2-0.4C320.6,55.8,320.7,56.1,320.4,56.8"/>
				<path class="st0" d="M369.1,77.8c-0.4,1.3-0.9,1.9-1.7,1.9c-0.4,0-0.8-0.2-1-0.5c-0.4-0.7-0.7-1.5-0.7-2.3
					c0-0.6,0.1-1.4,0.3-2.4c0.2-1.3,0.7-2.7,1.3-4.3c0.2-0.6,0.4-0.9,0.6-0.9c0,0,0.1,0.1,0.1,0.2c0,0.2-0.1,0.5-0.2,0.8
					c-0.3,0.8-0.6,2.2-1.1,4.4c-0.2,1.2-0.2,2.1,0.2,2.7c0.2,0.4,0.5,0.6,0.9,0.6c0.2,0,0.4-0.1,0.6-0.3c0.1-0.1,0.2-0.4,0.4-0.6
					c0.1-0.2,0.2-0.4,0.2-0.4C369.3,76.8,369.4,77.1,369.1,77.8"/>
				<path class="st0" d="M385.6,60c0,0.1-0.1,0.5-0.4,1.1c-0.3,0.6-0.5,1-0.7,1c-7.6,2.6-13.7,4.6-18.1,6.2
					c-8.5,3-14.5,5.3-18.2,6.9c0-0.4,0.2-0.9,0.5-1.4c0.3-0.5,0.6-0.8,0.9-1C360,68.5,372,64.2,385.6,60"/>
				<path class="st0" d="M316.8,45.1c0.3-1.4,0.1-2.1-0.7-2.1c-0.7,0-1.1,0.3-1.1,0.9C315.1,44.3,315.7,44.7,316.8,45.1 M318.9,45.9
					c0,0.1-0.1,0.3-0.3,0.7c-0.2,0.3-0.3,0.5-0.3,0.5c-0.5-0.1-1.1-0.2-1.7-0.5c-1.2,1.8-3.6,3.8-7.3,5.8c-0.3,0.2-1.1,0.5-2.3,1
					c-1.2,0.5-1.9,0.7-2,0.6c0-0.1,0.6-0.5,1.9-1.2c4.6-2.4,7.6-4.6,9.2-6.4c-1.4-0.6-2.1-1.4-2.1-2.2c0-0.5,0.3-1.1,0.9-1.8
					c0.6-0.7,1.1-1.1,1.7-1.1c0.7,0,1,0.7,1,2.2c0,0.6-0.1,1.1-0.3,1.7C318.3,45.6,318.9,45.8,318.9,45.9"/>
				<path class="st0" d="M363.9,42.3c0.1,0.1,0.1,0.5,0,1.2c-0.1,0.3-0.2,0.3-0.3,0c-0.2-0.4-0.5-0.6-0.9-0.6
					c-0.5,0-0.8,0.3-0.8,1.1c-0.1,1.3-0.1,2.8-0.2,4.6c0.2,0,0.5,0.2,1,0.7c0.5,0.5,0.7,0.8,0.8,1c0,0.2,0,0.5-0.1,0.8
					c-0.1,0.3-0.2,0.5-0.3,0.5c-0.7,0.1-1.4,0.3-2.2,0.6c-0.8,0.3-1.1,0.7-1.1,1c1.2,7.1,1.9,10.9,1.9,11.6c0,0.5,0,0.7-0.1,0.7
					c-0.1,0-0.1-0.2-0.1-0.4c-0.2-1.6-0.6-3.8-1.2-6.8c-0.5-2.6-0.8-4.2-0.8-4.9c0-0.8,0.2-1.6,0.8-2.2c0.4-0.5,0.9-0.9,1.5-1
					c-0.2-0.1-0.4-0.2-0.7-0.2c-0.2,0-0.4,0.2-0.5,0.5c-0.1,0.3-0.2,0.5-0.3,0.5c0,0,0-0.1,0-0.3c0-0.4,0.1-0.8,0.3-1.2
					c0.2-0.5,0.5-0.8,0.8-0.8c0-0.3-0.2-0.8-0.6-1.5c-0.4-0.9-0.8-1.5-1.1-1.7c-0.1,0.3-0.1,0.5-0.2,0.5c-0.1,0-0.5-0.2-1-0.6
					c-0.5-0.4-0.8-0.7-0.8-0.8c0-1.1,0.1-1.6,0.5-1.6c0.5,0,1.1,0.3,1.7,1c0.7,0.8,1.3,1.8,1.8,3.1c0,0,0,0,0-0.1c0-0.6,0-1.7,0-3.1
					c0.1-1.5,0.5-2.3,1.1-2.3C363,41.5,363.5,41.8,363.9,42.3"/>
				<path class="st0" d="M342,54.4c0-0.1-0.4-0.4-1.1-0.9c-0.7-0.5-1.1-0.8-1.2-0.8c-0.1,0-0.2,0.2-0.4,0.8c-0.2,0.5-0.3,0.8-0.3,1
					c0,0.6,0.3,0.8,0.8,0.8c0.2,0,0.6-0.1,1.2-0.3C341.7,54.8,342,54.6,342,54.4 M342.9,53.7c0,2.4-1,3.6-3.2,3.6
					c-1,0-1.6-0.6-1.6-2c0-1.5,0.5-2.9,1.4-4.3c0.2-0.8,0.4-1.2,0.6-1.2s0.2,0.1,0.1,0.3c-0.1,0.3-0.2,0.6-0.2,0.9
					C342,52.1,342.9,53,342.9,53.7"/>
			</g>
		</g>
		<g>
			<g>
				<g>
					<rect x="239.5" y="120.5" class="st1" width="168.9" height="1.5"/>
				</g>
				<g>
					<rect x="0.2" y="120.5" class="st1" width="168.9" height="1.5"/>
				</g>
			</g>
			<g>
				<path class="st1" d="M182.2,117.7c-0.4-1.4-1.1-2.9-2.9-2.9c-1.6,0-2.4,1.2-2.4,2.3c0,1.5,1,2.2,2.8,3.1
					c1.9,0.9,3.8,1.9,3.8,4.3c0,2.3-2,4.1-5,4.1c-0.9,0-1.6-0.2-2.2-0.4c-0.6-0.2-0.9-0.4-1.1-0.5c-0.1-0.4-0.5-2.4-0.6-3.4l0.7-0.2
					c0.4,1.4,1.4,3.6,3.7,3.6c1.6,0,2.5-1,2.5-2.5c0-1.6-1.2-2.3-2.8-3.2c-1.5-0.8-3.6-1.8-3.6-4.2c0-2.1,1.7-3.9,4.6-3.9
					c1,0,2,0.2,2.8,0.5c0.1,0.8,0.2,1.6,0.4,3.1L182.2,117.7z"/>
				<path class="st1" d="M193.7,128.3v-0.6c1.4-0.2,1.6-0.4,1.3-1.2c-0.3-0.9-0.7-1.9-1.2-3.2h-4.7c-0.4,1-0.7,1.8-0.9,2.7
					c-0.5,1.3-0.3,1.6,1.4,1.7v0.6h-4.8v-0.6c1.4-0.2,1.7-0.4,2.5-2.3l4.6-11.2l0.8-0.2c1.4,3.8,2.8,7.6,4.3,11.4
					c0.7,1.9,1,2.1,2.4,2.3v0.6H193.7z M191.6,116.9L191.6,116.9c-0.7,1.8-1.4,3.6-2.1,5.3h4L191.6,116.9z"/>
				<path class="st1" d="M212.9,128.3v-0.6c1.8-0.2,1.9-0.3,1.8-2.6l-0.1-8.6h-0.1l-5.4,11.7h-0.4l-4.9-11.4h-0.1l-0.3,6
					c-0.1,1.8-0.1,2.7,0,3.5c0,1,0.6,1.2,2,1.3v0.6h-5.2v-0.6c1.3-0.1,1.7-0.4,1.9-1.3c0.1-0.7,0.2-1.7,0.4-4l0.3-4.3
					c0.2-2.8,0.1-2.9-1.9-3.1v-0.6h3.7l5,10.6l5.1-10.6h3.8v0.6c-1.9,0.2-2.1,0.2-2,2.4l0.2,7.8c0.1,2.3,0.1,2.4,2,2.6v0.6H212.9z"
					/>
				<path class="st1" d="M229,128.3v-0.6c1.4-0.2,1.6-0.4,1.3-1.2c-0.3-0.9-0.7-1.9-1.2-3.2h-4.7c-0.4,1-0.7,1.8-0.9,2.7
					c-0.5,1.3-0.3,1.6,1.4,1.7v0.6h-4.8v-0.6c1.4-0.2,1.7-0.4,2.5-2.3l4.6-11.2l0.8-0.2c1.4,3.8,2.8,7.6,4.3,11.4
					c0.7,1.9,1,2.1,2.4,2.3v0.6H229z M226.8,116.9L226.8,116.9c-0.7,1.8-1.4,3.6-2.1,5.3h4L226.8,116.9z"/>
			</g>
		</g>
		<g>
			<path class="st2" d="M18.2,146.2c-0.9-3.3-2.5-7-7-7c-3.9,0-5.8,2.8-5.8,5.6c0,3.6,2.4,5.4,6.7,7.5c4.5,2.2,9.1,4.6,9.1,10.3
				c0,5.5-4.7,9.9-11.9,9.9c-2.2,0-3.9-0.4-5.3-0.8c-1.3-0.4-2.1-0.8-2.6-1.1c-0.4-1-1.1-5.7-1.4-8.2l1.6-0.5
				c0.9,3.3,3.5,8.7,8.8,8.7c3.8,0,6.1-2.4,6.1-6.1c0-3.7-2.8-5.5-6.8-7.6C6,155.1,1,152.5,1,146.8c0-5.1,4.2-9.4,11-9.4
				c2.5,0,4.9,0.6,6.8,1.2c0.2,1.8,0.5,3.9,0.9,7.3L18.2,146.2z"/>
			<path class="st2" d="M41.7,172.3c-1,0-2.1-0.5-2.7-1c-0.7-0.7-1-1.4-1.3-2.2c-2.1,1.3-4.6,3.2-6.1,3.2c-3.9,0-6.5-3.1-6.5-6.3
				c0-2.6,1.4-4.1,4.3-5c3.3-1.1,7-2.4,8.1-3.3v-0.9c0-3.7-1.7-5.7-4.2-5.7c-0.9,0-1.7,0.4-2.2,0.9c-0.7,0.7-1.1,1.8-1.6,3.5
				c-0.3,0.9-0.9,1.3-1.7,1.3c-1,0-2.4-1.1-2.4-2.3c0-0.8,0.7-1.4,1.7-2.1c1.5-1.1,5.1-3.1,8-3.6c1.7,0,3.2,0.4,4.4,1.3
				c1.9,1.6,2.5,3.8,2.5,6.5v9.3c0,2.3,0.9,3.1,1.9,3.1c0.6,0,1.3-0.2,1.9-0.6l0.5,1.4L41.7,172.3z M37.5,159.3
				c-1.1,0.5-3.2,1.5-4.3,2c-2,0.9-3.2,1.9-3.2,3.8c0,2.7,2,3.9,3.6,3.9c1.2,0,2.9-0.8,3.8-1.7V159.3z"/>
			<path class="st2" d="M73.2,170.4c-1.2,0.1-2.7,0.5-4.1,0.8c-1.4,0.4-2.9,0.7-3.9,1l-0.4-0.3v-3.7c-1.2,0.9-2.2,1.8-3.7,2.6
				c-1.5,0.8-2.7,1.3-4.2,1.3c-3.7,0-6.6-2.2-6.6-7.7v-9.8c0-2.8-0.4-3.1-1.8-3.4l-1.4-0.4v-1.2c1.1,0,2.5-0.2,3.9-0.4
				c1.5-0.2,3-0.4,3.9-0.6c-0.1,1.6-0.1,4-0.1,7.5v6.9c0,4.3,2.2,5.6,4.5,5.6c1.8,0,3.7-0.7,5.4-2.3v-11.9c0-2.8-0.5-3.1-2.1-3.4
				l-1.9-0.3v-1.2c1.5,0,3.3-0.2,4.9-0.4c1.5-0.1,2.8-0.4,3.6-0.5v17c0,2.7,0.4,3,2.5,3.2l1.4,0.1V170.4z"/>
			<path class="st2" d="M102.4,170.3c-1.1,0.2-5.2,0.9-8.5,1.9V169l-3.1,1.8c-2.1,1.2-3.5,1.5-4,1.5c-4.4,0-10-3.7-10-11
				c0-7.1,6.4-12.7,13.7-12.7c0.7,0,2.1,0.1,3.4,0.6v-7.3c0-3.3-0.4-3.5-4.1-3.7v-1.3c2.9-0.4,6.5-1.1,8.6-1.8v30.5
				c0,2.8,0.4,3.1,2.5,3.3l1.5,0.1V170.3z M93.9,153.3c-1.3-1.8-3.3-2.7-5.3-2.7c-2.2,0-6.6,1.9-6.6,9.3c0,6.2,3.9,9,7.1,9
				c1.7,0,3.5-0.8,4.8-1.6V153.3z"/>
			<path class="st2" d="M104.4,171.7v-1.4c3.3-0.3,3.7-0.6,3.7-4.2v-10.4c0-3.2-0.2-3.5-3.3-4v-1.2c2.8-0.5,5.5-1.1,7.8-2v17.6
				c0,3.6,0.4,3.8,3.7,4.2v1.4H104.4z M107.2,141.5c0-1.7,1.3-2.9,2.9-2.9c1.5,0,2.7,1.2,2.7,2.9c0,1.5-1.2,2.8-2.8,2.8
				C108.5,144.2,107.2,142.9,107.2,141.5z"/>
			<path class="st2" d="M158.5,162.8c-0.7,2.5-2.1,6.5-3.1,8.2c-1.5,0.4-6.2,1.5-10.1,1.5c-13.6,0-19.7-9-19.7-17.1
				c0-10.8,8.8-18,21-18c4.5,0,8.3,1.2,9.8,1.5c0.4,2.9,0.8,5.1,1.1,8.1l-1.6,0.4c-1.4-5.7-5-8-10.7-8c-9,0-13.8,7.3-13.8,14.9
				c0,9.7,6,16.2,14.2,16.2c5.5,0,8.5-2.9,11.2-8.2L158.5,162.8z"/>
			<path class="st2" d="M181.5,167.1c-3.4,4.3-7.1,5.2-8.8,5.2c-6.4,0-10.2-5.2-10.2-10.9c0-3.4,1.2-6.5,3.3-8.8
				c2.3-2.5,5.1-3.9,7.9-3.9h0c4.5,0,8,3.8,8,7.9c0,1-0.3,1.4-1.2,1.7c-1,0.1-7.5,0.7-13.6,0.9c0.1,6.7,4,9.5,7.6,9.5
				c2.1,0,4.2-0.8,6.1-2.6L181.5,167.1z M172.4,150.5c-2.3,0-4.5,2-5.2,6.3c2.8,0,5.6,0,8.5-0.1c0.9,0,1.2-0.3,1.2-1
				C176.9,153,175.2,150.5,172.4,150.5L172.4,150.5z"/>
			<path class="st2" d="M200.9,171.7v-1.4c3-0.3,3.3-0.7,3.3-4.4v-8.4c0-3.6-1.4-5.7-4.6-5.7c-2,0-3.9,1.2-5.5,2.5v11.9
				c0,3.5,0.3,3.7,3.3,4.1v1.4h-11.6v-1.4c3.5-0.4,3.8-0.7,3.8-4.1v-10.4c0-3.3-0.4-3.6-3.1-4v-1.3c2.5-0.4,5.2-1.1,7.6-2v4.2
				c1.1-0.8,2.2-1.6,3.5-2.5c1.5-1,2.8-1.5,4.3-1.5c4.2,0,6.8,2.9,6.8,8v9.6c0,3.5,0.3,3.7,3.3,4.1v1.4H200.9z"/>
			<path class="st2" d="M225.7,171.6c-1,0.5-1.8,0.7-2.2,0.7c-3.5,0-5.4-2-5.4-6.1v-14.8h-3.6l-0.2-0.6l1.4-1.5h2.4v-3.7l3.8-3.6
				l0.7,0.1v7.2h5.8c0.5,0.6,0.4,1.7-0.4,2.1h-5.5v13c0,4.2,1.8,4.9,3.1,4.9c1.2,0,2.4-0.5,3.2-0.9l0.5,1.4L225.7,171.6z"/>
			<path class="st2" d="M242.6,154.2c1.7-2.8,3.9-5.6,6.3-5.6c1.9,0,3.2,1.4,3.2,2.6c0,1.2-0.7,2.3-1.8,2.8
				c-0.6,0.2-1.1,0.1-1.4-0.1c-0.8-0.7-1.4-1.1-2.3-1.1c-1.3,0-2.9,1.5-4,4.3v9.2c0,3.4,0.2,3.7,4.3,4v1.4h-12.5v-1.4
				c3.2-0.3,3.6-0.6,3.6-4v-10.7c0-3.3-0.3-3.5-3.2-3.9v-1.2c2.6-0.4,5.1-1,7.7-2.1v5.7H242.6z"/>
			<path class="st2" d="M272.2,172.3c-1,0-2.1-0.5-2.7-1c-0.7-0.7-1-1.4-1.3-2.2c-2.1,1.3-4.6,3.2-6.1,3.2c-3.9,0-6.5-3.1-6.5-6.3
				c0-2.6,1.4-4.1,4.3-5c3.3-1.1,7-2.4,8.1-3.3v-0.9c0-3.7-1.7-5.7-4.2-5.7c-0.9,0-1.7,0.4-2.2,0.9c-0.7,0.7-1.1,1.8-1.6,3.5
				c-0.3,0.9-0.9,1.3-1.7,1.3c-1,0-2.4-1.1-2.4-2.3c0-0.8,0.7-1.4,1.7-2.1c1.5-1.1,5.1-3.1,8-3.6c1.7,0,3.2,0.4,4.4,1.3
				c1.9,1.6,2.5,3.8,2.5,6.5v9.3c0,2.3,0.9,3.1,1.9,3.1c0.6,0,1.3-0.2,1.9-0.6l0.5,1.4L272.2,172.3z M268.1,159.3
				c-1.1,0.5-3.2,1.5-4.3,2c-2,0.9-3.2,1.9-3.2,3.8c0,2.7,2,3.9,3.6,3.9c1.2,0,2.9-0.8,3.8-1.7V159.3z"/>
			<path class="st2" d="M277.3,171.7v-1.4c3.3-0.4,3.7-0.7,3.7-4.1V142c0-3.5-0.4-3.6-3.6-3.9v-1.3c2.8-0.3,6.2-1.2,8.1-1.8v31.1
				c0,3.5,0.5,3.8,3.9,4.1v1.4H277.3z"/>
			<path class="st2" d="M317.1,153.7c5.4,0.7,9.5,3,9.5,8.1c0,3.5-1.9,6.1-5,7.8c-2.7,1.4-6.3,2-10.5,2H299v-1.5
				c4.5-0.3,4.9-0.7,4.9-5v-20.5c0-4.4-0.2-4.7-4.4-5v-1.5h13.9c4,0,6.3,0.6,8.1,1.8c1.8,1.2,3,3.5,3,5.9c0,4.9-4.3,6.9-7.3,7.6
				V153.7z M311.1,153c5.7,0,8.1-2.2,8.1-6.5c0-3.7-2.1-6.6-6.9-6.6c-1.3,0-2.5,0.3-2.9,0.6c-0.5,0.3-0.6,0.9-0.6,2.5v10H311.1z
				 M308.8,165.1c0,3.8,1,4.8,4.3,4.8c4.1-0.1,7.9-2.2,7.9-7.5c0-5.2-3.6-7.5-10-7.5h-2.2V165.1z"/>
			<path class="st2" d="M347.6,172.3c-1,0-2.1-0.5-2.7-1c-0.7-0.7-1-1.4-1.3-2.2c-2.1,1.3-4.6,3.2-6.1,3.2c-3.9,0-6.5-3.1-6.5-6.3
				c0-2.6,1.4-4.1,4.3-5c3.3-1.1,7-2.4,8.1-3.3v-0.9c0-3.7-1.7-5.7-4.2-5.7c-0.9,0-1.7,0.4-2.2,0.9c-0.7,0.7-1.1,1.8-1.6,3.5
				c-0.3,0.9-0.9,1.3-1.7,1.3c-1,0-2.4-1.1-2.4-2.3c0-0.8,0.7-1.4,1.7-2.1c1.5-1.1,5.1-3.1,8-3.6c1.7,0,3.2,0.4,4.4,1.3
				c1.9,1.6,2.5,3.8,2.5,6.5v9.3c0,2.3,0.9,3.1,1.9,3.1c0.6,0,1.3-0.2,1.9-0.6l0.5,1.4L347.6,172.3z M343.5,159.3
				c-1.1,0.5-3.2,1.5-4.3,2c-2,0.9-3.2,1.9-3.2,3.8c0,2.7,2,3.9,3.6,3.9c1.2,0,2.9-0.8,3.8-1.7V159.3z"/>
			<path class="st2" d="M368.7,171.7v-1.4c3-0.3,3.3-0.7,3.3-4.4v-8.4c0-3.6-1.4-5.7-4.6-5.7c-2,0-3.9,1.2-5.5,2.5v11.9
				c0,3.5,0.3,3.7,3.3,4.1v1.4h-11.6v-1.4c3.5-0.4,3.8-0.7,3.8-4.1v-10.4c0-3.3-0.4-3.6-3.1-4v-1.3c2.5-0.4,5.2-1.1,7.6-2v4.2
				c1.1-0.8,2.2-1.6,3.5-2.5c1.5-1,2.8-1.5,4.3-1.5c4.2,0,6.8,2.9,6.8,8v9.6c0,3.5,0.3,3.7,3.3,4.1v1.4H368.7z"/>
			<path class="st2" d="M401,171.8c-2.4-2.6-5.7-6.9-8.4-10.1c-0.6-0.8-1.1-1.1-1.5-1.1c-0.2,0-0.5,0-0.8,0.1v5.6
				c0,3.4,0.5,3.7,3.8,4.1v1.4H382v-1.4c3.5-0.4,3.8-0.7,3.8-4.1V142c0-3.3-0.3-3.6-3.5-3.9v-1.2c2.5-0.2,5.6-1.1,8-1.8v24.3
				c1.5-0.3,2.4-1,3.2-1.8c1.1-1.1,2.7-3.2,3.6-4.5c1.1-1.5,0.8-2-1.5-2.3v-1.4l11-0.5v1.3c-3.6,0.6-4.9,1.1-6.9,3
				c-1.4,1.3-2.3,2.3-4.4,4.8c1.1,1.6,6.5,7.7,8.2,9.5c1.8,1.9,3.3,2.7,5.2,2.8v1.4L401,171.8z"/>
		</g>
	</g>
	<g>
		<g>
			<g>
				<path class="st1" d="M518.2,125.5c-1.7,1.3-3.4,2.6-5.3,3.6c0.4,0.5,0.9,1,1.4,1.5c0,0.6,0,1.2,0,1.7c-1.5,0.6-3.3,0.9-4.2,2.4
					c-1.2,2-0.8,4.5-0.9,6.8c3,0,6,0,9,0C518.2,136.2,518.2,130.8,518.2,125.5z M514.6,138.5h-1.9c0.1-2.4,1.9-2.3,1.9-2.3V138.5z"
					/>
				<path class="st1" d="M566.4,136c-0.9-1.8-2.4-3.8-4.6-3.7c-1.7-0.1-3.1,1.1-4.1,2.3c-1.3,2.1-1.6,4.6-1.3,7
					c1.7,0.4,3.6-0.1,5.4,0.2c-0.6,2.9-4,3.3-6.4,3c0,0.3,0.1,0.8,0.1,1c1.3,0.6,2.7,1,4.2,1.2C565,147.1,568.9,140.6,566.4,136z
					 M561.4,138.9c-0.9,0-1.7-0.8-1.7-1.7s0.8-1.7,1.7-1.7s1.7,0.8,1.7,1.7S562.3,138.9,561.4,138.9z"/>
				<path class="st1" d="M542.7,128.6h-3.8l8.4,9.2h-7.5v-0.1c0-0.3,0-0.7-0.1-1c0,0.1,0,0.2,0,0.3l0-0.4c0,0,0,0.1,0,0.1
					c0-0.1,0-0.2,0-0.4c-0.3-2.2-2.2-3.8-4.4-3.9c0,0,0,0-0.1,0h-4.9c0,0,0,0,0,0h-4.5c-0.5-0.5-1-0.9-1.5-1.4
					c-1.1,1.9-2.4,3.6-3.7,5.3c0.8,0,1.9,0,3.2,0c0.7,0,1.3,0,2,0h9.5v1.5h-14.7v3.7h2.7c8.2,0,18.9,0,27.4,0l1.1,1.3h3.8
					l-11.4-13.5C543.9,128.9,543.3,128.6,542.7,128.6z"/>
			</g>
			<g>
				<path class="st1" d="M565.5,85.2c-0.3-0.8-0.9-1.3-1.3-2c0.4-1,1.6-1.7,1.4-2.9c0-0.6,0-1.2,0-1.8c0-2.2,0-4.4,0-6.5
					c0-0.6,0-1.2,0-1.8c0.2-0.1,0.4-0.2,0.6-0.3c0.2-0.1,0.3-0.2,0.5-0.2c0,0,0.1,0,0.1-0.1c0.1-0.1,0.2-0.1,0.3-0.1
					c-0.5-0.4-1-0.8-1.5-1.3c-0.4-0.4-0.8-0.8-1.2-1.2c-0.3-0.3-0.6-0.6-0.8-0.9c-0.2-0.2-0.4-0.4-0.6-0.7c-0.4-0.4-0.8-0.9-1.2-1.3
					c0,1.7,0,3.3,0,5c0,1,0,1.9,0,2.9c0,1.3,0,2.6,0,3.9c0,0.9,0,1.9,0,2.9c0,0.8-0.1,1.5-0.4,2.2c-0.1,0-0.3,0-0.4,0c0,0,0,0,0,0
					c-0.2,0-0.3,0-0.5,0v0c-0.5,0-0.9,0-0.9,0c-0.3-0.7-0.4-1.4-0.4-2.2c0-1,0-2,0-2.9c0-1.3,0-2.6,0-3.9c0-1,0-1.9,0-2.9
					c0-1.7,0-3.3,0-5c-0.4,0.4-0.8,0.8-1.2,1.3c-0.2,0.2-0.4,0.4-0.6,0.7c-0.3,0.3-0.6,0.6-0.8,0.9c-0.4,0.4-0.8,0.8-1.2,1.2
					c-0.5,0.5-1,0.9-1.5,1.3c0.1,0,0.2,0.1,0.3,0.1c0,0,0.1,0,0.1,0.1c0.1,0.1,0.3,0.2,0.5,0.2c0.2,0.1,0.5,0.2,0.6,0.3
					c0,0.6,0,1.2,0,1.8c0,2.2,0,4.4,0,6.5c0,0.6,0,1.2,0,1.8c-0.1,1.2,1,1.9,1.4,2.9c-0.4,0.7-1.1,1.3-1.3,2c-0.2,2.2,0,4.3-0.1,6.5
					h10.5C565.5,89.5,565.7,87.3,565.5,85.2z M561.8,88.1h-1.5h-1.5v-1.9l0.8-1h0.7h0.7l0.8,1V88.1z"/>
				<path class="st1" d="M548.7,72.2c-0.2-1.4,1.1-2.1,1.8-3c-1.4-0.7-2.8-1.6-3.6-2.9c-0.6-0.9-1.3-1.8-2.2-2.4
					c0,9.3-0.1,18.5,0.1,27.8h3.9C548.8,85.1,548.7,78.7,548.7,72.2z"/>
				<path class="st1" d="M541.2,91.6c0.1-6.5-0.1-13.9,0-20.3c-0.2-1.2,0.8-1.9,1.6-2.7c-2.3-1.1-3.4-3.6-5.4-5c0,8,0.1,16,0,24.1
					c-6.4,0-12.7,0-19.1,0.1c0.1-4.2-0.1-8.4,0-12.6c-1.7,1.4-3.5,2.5-5.4,3.6c0.5,0.5,1,1,1.6,1.5c0,0.7-0.1,1.3-0.1,2
					c-1.4,0.6-3.1,1-4,2.3c-1.3,1.8-1,4.8-1,7.1H541.2z M512.8,87.8C512.8,87.8,512.8,87.8,512.8,87.8c0.2-2.1,1.9-2,1.9-2v2.3h-1.9
					C512.8,88,512.8,87.9,512.8,87.8C512.8,87.8,512.8,87.8,512.8,87.8z"/>
			</g>
			<g>
				<g>
					<g>
						<path class="st1" d="M558.4,116.1c-0.3-0.8-0.9-1.3-1.3-2c0.4-1,1.6-1.7,1.4-2.9c0-0.6,0-1.2,0-1.8c0-2.2,0-4.4,0-6.5
							c0-0.6,0-1.2,0-1.8c0.2-0.1,0.4-0.2,0.6-0.3c0.2-0.1,0.3-0.2,0.5-0.2c0,0,0.1,0,0.1-0.1c0.1-0.1,0.2-0.1,0.3-0.1
							c-0.5-0.4-1-0.8-1.5-1.3c-0.4-0.4-0.8-0.8-1.2-1.2c-0.3-0.3-0.6-0.6-0.8-0.9c-0.2-0.2-0.4-0.4-0.6-0.7
							c-0.4-0.4-0.8-0.9-1.2-1.3c0,1.7,0,3.3,0,5c0,1,0,1.9,0,2.9c0,1.3,0,2.6,0,3.9c0,0.9,0,1.9,0,2.9c0,0.8-0.1,1.5-0.4,2.2
							c-0.1,0-0.3,0-0.4,0c0,0,0,0,0,0c-0.2,0-0.3,0-0.5,0v0c-0.5,0-0.9,0-0.9,0c-0.3-0.7-0.4-1.4-0.4-2.2c0-1,0-2,0-2.9
							c0-1.3,0-2.6,0-3.9c0-1,0-1.9,0-2.9c0-1.7,0-3.3,0-5c-0.4,0.4-0.8,0.8-1.2,1.3c-0.2,0.2-0.4,0.4-0.6,0.7
							c-0.3,0.3-0.6,0.6-0.8,0.9c-0.4,0.4-0.8,0.8-1.2,1.2c-0.5,0.5-1,0.9-1.5,1.3c0.1,0,0.2,0.1,0.3,0.1c0,0,0.1,0,0.1,0.1
							c0.1,0.1,0.3,0.2,0.5,0.2c0.2,0.1,0.5,0.2,0.6,0.3c0,0.6,0,1.2,0,1.8c0,2.2,0,4.4,0,6.5c0,0.6,0,1.2,0,1.8
							c-0.1,1.2,1,1.9,1.4,2.9c-0.4,0.7-1.1,1.3-1.3,2c-0.2,2.2,0,4.3-0.1,6.5h10.5C558.4,120.4,558.6,118.3,558.4,116.1z
							 M554.7,119.1h-1.5h-1.5v-1.9l0.8-1h0.7h0.7l0.8,1V119.1z"/>
						<path class="st1" d="M541.5,103.1c-0.1-1.1,0.9-1.7,1.6-2.4c0.1-0.2,0.3-0.5,0.3-0.6c-2.8-0.7-3.6-3.8-5.9-5.1
							c0.1,9.2,0.3,18.4,0.1,27.6h3.9C541.7,116.1,541.7,109.6,541.5,103.1z"/>
						<path class="st1" d="M565.2,103.2c-0.2-1.4,1.1-2.1,1.8-3c-1.4-0.7-2.8-1.6-3.6-2.9c-0.6-0.9-1.3-1.8-2.2-2.4
							c0,9.3-0.1,18.5,0.1,27.8h3.9C565.3,116.1,565.2,109.7,565.2,103.2z"/>
					</g>
				</g>
				<path class="st1" d="M532.5,97.2c-0.6-1-1.2-1.9-2.1-2.7c-0.1,0.9-0.1,1.8-0.1,2.7c0.2,7.2-0.1,14.5,0,21.7c-1.7,0-3.3,0.1-5,0
					c0-5.4,0-10.8,0-16.3c-0.2-1.2,0.9-1.9,1.6-2.7c-2.2-1.3-3.6-3.5-5.5-5.2c0.2,8,0.1,16.1,0,24.1c-1,0-2.1,0-3.1,0
					c0-4.2,0-8.4,0-12.6c-1.7,1.3-3.4,2.6-5.3,3.7c1.2,0.8,1.6,2.1,1.5,3.5c-1.5,0.5-3.3,1-4.2,2.4c-1.3,2-0.9,4.5-0.9,6.7h24.3
					c0.1,0,0.2,0,0.4,0c-0.1-5.1-0.3-10.3-0.1-15.4c0.1-1.8-0.4-3.6,0.1-5.4c0.4-0.8,1.1-1.3,1.7-1.9
					C534.6,99.2,533.2,98.5,532.5,97.2z M514.7,119.4h-1.9c0.1-2.4,1.9-2.3,1.9-2.3V119.4z"/>
			</g>
		</g>
		<g>
			<g>
				<path class="st1" d="M456.2,68.1c3.8-8.7,8.8-16.9,15.1-24c1.1,0.4,1.9,1.4,2.8,2.3c-1.3,1.9-3.2,3.3-4.3,5.4
					c-2.4,2.9-4.1,6.2-6.1,9.4c-1,1.9-1.9,3.8-2.8,5.7c1.2,0.6,3.2,1.4,3.9-0.2c2.5-5.3,5.7-10.3,9.4-14.9c0.7-1.1,1.4-2.2,2.5-2.9
					c0.5,2,1.2,4,2.2,5.8c-1.1,0.1-2.5-0.4-3.3,0.5c-3.6,4.3-6,9.3-8.7,14.2c-0.6,1.4-2.3,2-3.7,1.7C460.6,70.9,458.6,69,456.2,68.1
					z"/>
				<path class="st1" d="M505.7,20c1.8-0.8,3.6-1.4,5.5-2c1.8,3,0,6.3-1.2,9.1c2.8,2.5,7,3.8,8.3,7.7c1.4,3.5-1.7,6.3-2.5,9.4
					c-4.5-3.6-9.3-6.6-13.9-10c-1-0.9-2.1,0.6-3.2,0.8c-0.9-0.5-1.7-1.3-2.3-2.1c-0.1,0.1-0.4,0.2-0.6,0.3c2-1.2,3.7-2.7,5.9-3.5
					c2.1,0.7,3.3,2.8,5.3,3.8c2.6,1.5,4.7,4.3,8,4.2c-0.2-1.3-0.5-2.7-1.5-3.7c-2.5-2.3-5.5-4-8.4-5.7c0.6-1.7,2-3.1,2.1-5
					c-3.7,1.8-7.7,3.2-11.1,5.6c-3.1,1.6-5.8,3.9-8.7,5.7c-1.2,0.8-2.1,1.9-3.2,2.7c-2.3,1.6-4,3.9-6.3,5.5
					c-0.4-1.2-1.8-2.4-1.3-3.6c6-5.8,12.6-11,20-14.9C499.4,22.5,502.7,21.5,505.7,20z"/>
				<path class="st1" d="M500.9,160.2c1.1-1.2,1.3-3.3,2.9-4c0.7,2.5,1,5.1,1.9,7.6c-1,0.4-2.1,0.4-2.9,1.1
					c-3.1,4.9-6.2,9.8-9.2,14.8c-1.1,0.3-2.1-0.6-3.1-1.1c-0.9-0.4-0.2-1.4,0.1-1.9c1.8-2.4,3.2-5,4.7-7.6
					C497.3,166.3,498.7,163,500.9,160.2z"/>
				<path class="st1" d="M496.6,150.1c-0.2,0-0.5,0.1-0.6,0.1c-3.8,6.3-8.1,12.4-11.9,18.7c-0.9,0.2-1.5-0.6-2.1-1.1
					c-2.5-2.4-5.2-4.7-7.5-7.4c2.5-1.9,4.8-4.2,7.5-5.9c-1.3-1-2.8-1.7-4.1-2.6c-1.1,2.6-3.8,3.8-5.7,5.6c-2.1-2.6-4.3-5.1-5.7-8.1
					c2.7-1.4,5-3.3,7.8-4.6c0-0.1,0-0.5,0-0.6c-1.1-1-2.2-1.9-3.3-3c-1.5,2.4-4.2,3.6-6.7,4.8c-1.7-2.4-2.4-5.2-4.1-7.6
					c0.1-0.2,0.4-0.5,0.5-0.6c2.9-1,5.7-2.4,8.5-3.7c-1.3-1-2.4-2.2-3.3-3.6c-1.6,2.3-4.6,3-7.1,4.1c-2.7-6.6-4.3-13.5-5.2-20.6
					c3.3,0.6,6,2.7,9,3.9c-0.2-1.5-0.2-3.1-0.5-4.6c-1.9-0.9-4.1-1.4-6.1-2.2c1.8-1.2,3.9-1.8,5.9-2.7c-0.1-1.7-0.1-3.4-0.3-5
					c-1.6,0.8-2.7,2.2-4.2,3.1c-1.4,0.8-2.9,1.6-4.3,2.5c-0.4-2.9-0.3-5.9-0.3-8.8c0-4.4,1.1-8.8,1.6-13.2c2.4,0,4.9,0,6.8-1.6
					c1.3-1.2,2.9-2.1,4.2-3.3c-0.7-0.1-1.4-0.2-2.1-0.2c-0.9-1.8-1.5-4-3.4-5.1c-1.2-0.8-2.8-1.3-4.2-1c-0.7,0.1-1.3,0.4-1.8,0.9
					c-1.5,1-1.8,3-2.2,4.7c-0.1,0-0.2-0.1-0.3-0.1c-1.1-0.5-2.3-1-2.8-2.2c-1.1-1.9-0.3-4.2-0.3-6.3c-2,2.1-3.7,5.2-2.4,8.1
					c0.7,2.3,2.7,3.5,4.5,4.8c-1.2,5.8-1.8,11.7-1.8,17.8c0,29.3,14.3,55.3,36.2,71.5l0.4-0.7c0,0,0,0,0,0c0,0,0,0,0,0
					c0.1-0.1,0.1-0.2,0.2-0.3c0.2-0.4,0.5-0.8,0.8-1.2c3.1-4.9,6.2-9.7,9.3-14.6c0.6-0.9,1.8-0.9,2.7-1.3
					C497.7,154.6,497.1,152.3,496.6,150.1z M457.2,78.8c1.4,0,2.5,1.1,2.5,2.5s-1.1,2.5-2.5,2.5s-2.5-1.1-2.5-2.5
					S455.8,78.8,457.2,78.8z"/>
			</g>
			<g>
				<g>
					<path class="st1" d="M599.2,119c1.6-1.6,3.2-3.2,4.8-4.8c1.3,0.5,2.3,1.7,3.9,1.6c6.3,0,12.5,0.8,18.8,0.8
						c-0.5,4.9-1.7,9.8-3.4,14.4c1.1,1.1,2.5,2.3,2.5,4c0.3,2.1-0.5,4.3-2.1,5.7c-1.3,1.2-3.1,1.2-4.8,1.6c-1.1,2.7-2.8,5.1-4.2,7.7
						c1.8,1.6,4.3,2.9,4.6,5.5c0.2,2.1-0.7,4.7-2.9,5.3c-0.1-1.3,0-2.6,0-3.9c-2-2-4.5-3.5-7.1-4.6c-1.2-0.6-2.6-0.6-3.9-0.6
						c0.1-2.1,0-4.2-0.3-6.3c2,1,3.8,2.4,5.9,3.1c1.8-2.2,3.1-4.9,4.4-7.5c-2-2.4-3-6.1-0.8-8.7c1.1-1.9,3.4-2.5,5.4-2.9
						c1-2.9,1.8-5.9,2.4-8.9c-3.8-0.7-7.6-0.9-11.5-1.1C607,119,603.1,119,599.2,119z M617.1,134.8c-1.2,1.6,0.4,3.2,1.7,4
						c0.9-0.3,2.1-0.2,2.8-0.9c0.9-0.7,0.8-2,0.5-3C621.2,132.8,618,132.7,617.1,134.8z"/>
				</g>
				<path class="st1" d="M510,167.8c1.5-3.1,5.3-3,7.9-4.6c0.4,2.2,0.7,4.4,1.5,6.5c1.2,3.5,1.7,7.3,2.8,10.8
					c0.8,0.3,2.1-0.2,2.6,0.7c0.4,1,0.5,2.2,0.7,3.2c-2.3-0.2-4.5-0.8-6.7-1.2c-1.1-4.9-1.6-10-3.7-14.6c-0.3,0-0.8,0.1-1.1,0.1
					c-1.5,2.8-0.5,5.9,0.2,8.7c0.5,1.6,0.9,3.3,1.4,4.9c-1.5,0.3-3,0.8-4.4,1.5c0,0.2,0,0.6,0,0.8c5.3,2,11,2.9,16.6,3.7
					c6,0.5,12,0.9,18,0.2c-0.3,1.3-0.6,2.6-1,3.8c-6.7,0.5-13.6,0.3-20.2-0.8c-7-0.7-13.7-3.2-20.3-5.5c0.6-3.4,4.1-4.8,6.6-6.4
					C510.3,175.8,508.3,171.7,510,167.8z"/>
				<path class="st1" d="M600.3,111.3c2.2-1.7,3.8-4.1,6.2-5.6c1,0.6,1.7,1.7,2.9,1.9c6,0.3,12.1,0.1,18.1,0.7
					c0,1.2-0.1,2.4-0.2,3.6C618.3,111.8,609.3,111.4,600.3,111.3z"/>
				<path class="st1" d="M598.6,155.2c1.8-1.1,4-0.6,5.5,0.6c1.4,1,2.8,2.1,3.7,3.7c-2.7,3.8-6.3,7-9.6,10.3
					c-5.7,5-11.9,9.3-18.6,12.9c-3.9,1.7-7.7,3.8-11.8,5c-3.7,1-7.3,2.6-11.2,3.1c0.2,2.1,0.9,4.5-0.4,6.3c-1.2,1.1-2.9,1.4-4.5,1.1
					c0.6-0.6,1.2-1.2,1.6-2c0.4-2.3-0.4-4.6-0.9-6.8c-0.4-1.7-1.5-3.1-2.7-4.4c1.7-1.1,3.1-2.7,4.4-4.2c0.6,2.1,1.2,4.3,1.7,6.5
					c5.2-1,10-2.9,15-4.6c10.8-4.6,20.9-11.2,29-19.7c1.1-1.3,2.2-2.4,3.5-3.4c-0.9-0.8-2-1.9-3.3-1.3c-1.1,0.7-1.9,1.7-2.9,2.6
					c-5.5,5.8-12,10.5-18.9,14.5c-2.1,1-4.3,2.1-6.4,3.2c-2.6,1.3-5.6,1.8-8.2,3.1c-0.7,0.3-1.4,0.4-2.1,0.5
					c1.9-2.4,2.9-5.3,4.6-7.9c1.2-2,1.9-4.1,3.2-6c0,3-1.5,5.7-2.3,8.6c9.6-3.6,18.3-9.3,25.7-16.3
					C594.9,158.8,596.1,156.2,598.6,155.2z"/>
				<circle class="st1" cx="549.8" cy="174.9" r="2.2"/>
			</g>
			<g>
				<g>
					<path class="st1" d="M565,18c1.3,0.3,2.6,0.8,3.9,1.2c-1.4,5.2-3.3,10.2-4.7,15.4c-0.8,3.4-2.4,6.4-3.2,9.8
						c-1.3-2.4-2.6-4.8-3.8-7.2c0.9-0.8,2.1-1.3,2.6-2.5c0.9-2,1.2-4.1,1.9-6.1C563.1,25.1,564.1,21.5,565,18z"/>
				</g>
				<g>
					<path class="st1" d="M573.1,21c2.6,0.9,5.1,2,7.4,3.4c12.7,6.7,23.7,16.7,31.8,28.5c2.1,2.5,3.3,5.6,5.2,8.3
						c2.4,5.1,4.9,10.1,6.3,15.5c2.6,7.6,3.7,15.6,3.8,23.6c-1.8,0-3.5,0.1-5.3,0.1c0.7-1.2,1.3-2.5,1.2-3.9c0-5.6-1.2-11-2.5-16.4
						c-1.1-2.8-1.9-5.8-3-8.6c-2.9-7.3-6.9-14.2-11.6-20.5c-0.2-0.1-0.5-0.2-0.6-0.2c-0.5,0.8-1.1,1.5-1.5,2.3
						c0,1.2,0.9,2.1,1.6,3.1c4.2,6.3,7.9,13,10.2,20.2c2.5,6.2,3.2,13,4.1,19.6c-2.2-1.5-3.9-3.6-6-5.2c-1.6-1.2-3.1-2.6-4.8-3.7
						c-0.4-0.4-0.9-0.8-1.2-1.3c2.9,0.9,5.5,2.5,8,4.3c-1.2-5.2-2-10.5-4.4-15.3c-1.3-3.9-3.3-7.5-5.2-11.1
						c-1.6-2.9-3.8-5.4-5.2-8.4c-1.2-2.6,0.5-5.5,2.7-7c-1.5-2.2-3.5-4.1-5.5-6c-1.5,2.4-5,3.8-4.6,7.2c-1.7-0.7-3.5-1.3-5.4-1.6
						c2.3-2.8,4.9-5.5,7.2-8.3c-2.9-2.2-5.5-4.8-8.7-6.7c-1.7,2.3-4.2,4.6-3.9,7.8c-1.6-0.8-3.3-1.2-5-1.5c1.7-3,4-5.7,5.8-8.6
						c-2.9-1.5-5.5-3.6-8.7-4.7c-0.9,4.1-2.5,8-3.5,12.1c-0.7,3.4-2,6.6-2.8,10c-0.2,0-0.6,0-0.8,0c-0.7-2.2-2.5-3.9-3.2-6.2
						c0.6-0.2,1.3-0.4,1.9-0.6c1.2-2,1.2-4.4,2-6.6C570.7,30.3,571.9,25.7,573.1,21z"/>
				</g>
				<circle class="st1" cx="591.2" cy="24.9" r="2.2"/>
				<circle class="st1" cx="587.5" cy="53.9" r="2.2"/>
			</g>
		</g>
		<path class="st1" d="M551.3,0.8c-1-0.1-2-0.2-3-0.3c-3.3-0.3-6.7-0.5-10.1-0.5c-3.4,0-6.7,0.2-10.1,0.5c-1,0.1-2,0.2-3,0.3
			c-52,6.4-92.2,50.7-92.2,104.4c0,58.1,47.1,105.2,105.2,105.2s105.2-47.1,105.2-105.2C643.4,51.6,603.2,7.3,551.3,0.8z M538.2,3
			c3.4,0,6.8,0.2,10.1,0.5c-0.7,5-4.9,8.8-10.1,8.8s-9.4-3.9-10.1-8.8C531.4,3.2,534.8,3,538.2,3z M528.3,51.4
			c3.2-0.6,6.5-0.9,9.9-0.9c3.4,0,6.7,0.3,9.9,0.9c1,0.2,1.9,0.4,2.9,0.6c24,5.8,42,27.4,42,53.2c0,30.2-24.6,54.7-54.7,54.7
			c-30.2,0-54.7-24.6-54.7-54.7c0-25.8,17.9-47.4,42-53.2C526.4,51.8,527.3,51.6,528.3,51.4z M538.2,47.5c-3.5,0-6.9,0.3-10.2,0.9
			c0.3-5.4,4.7-9.7,10.2-9.7c5.5,0,9.9,4.3,10.2,9.7C545.1,47.8,541.7,47.5,538.2,47.5z M528,25.5c0-5.6,4.6-10.2,10.2-10.2
			s10.2,4.6,10.2,10.2c0,5.6-4.6,10.2-10.2,10.2S528,31.2,528,25.5z M538.2,207.5c-56.4,0-102.2-45.9-102.2-102.2
			c0-52,39-95,89.2-101.4c0.6,4.4,3.3,8.1,7.1,10C528,16,525,20.4,525,25.5s2.9,9.5,7.2,11.7c-4.3,2.2-7.2,6.6-7.2,11.7
			c0,0,0,0.1,0,0.1c-25.5,6-44.6,28.9-44.6,56.2c0,31.9,25.8,57.7,57.7,57.7c31.9,0,57.7-25.8,57.7-57.7c0-27.4-19-50.3-44.6-56.2
			c0,0,0-0.1,0-0.1c0-5.1-2.9-9.5-7.2-11.7c4.3-2.2,7.2-6.6,7.2-11.7s-2.9-9.5-7.2-11.7c3.8-1.9,6.5-5.6,7.1-10
			c50.2,6.4,89.2,49.5,89.2,101.4C640.4,161.6,594.6,207.5,538.2,207.5z"/>
	</g>
</g>
<!-- Code injected by live-server -->
<script type="text/javascript">
	// <![CDATA[  <-- For SVG support
	if ('WebSocket' in window) {
		(function () {
			function refreshCSS() {
				var sheets = [].slice.call(document.getElementsByTagName("link"));
				var head = document.getElementsByTagName("head")[0];
				for (var i = 0; i < sheets.length; ++i) {
					var elem = sheets[i];
					var parent = elem.parentElement || head;
					parent.removeChild(elem);
					var rel = elem.rel;
					if (elem.href && typeof rel != "string" || rel.length == 0 || rel.toLowerCase() == "stylesheet") {
						var url = elem.href.replace(/(&|\?)_cacheOverride=\d+/, '');
						elem.href = url + (url.indexOf('?') >= 0 ? '&' : '?') + '_cacheOverride=' + (new Date().valueOf());
					}
					parent.appendChild(elem);
				}
			}
			var protocol = window.location.protocol === 'http:' ? 'ws://' : 'wss://';
			var address = protocol + window.location.host + window.location.pathname + '/ws';
			var socket = new WebSocket(address);
			socket.onmessage = function (msg) {
				if (msg.data == 'reload') window.location.reload();
				else if (msg.data == 'refreshcss') refreshCSS();
			};
			if (sessionStorage && !sessionStorage.getItem('IsThisFirstTime_Log_From_LiveServer')) {
				console.log('Live reload enabled.');
				sessionStorage.setItem('IsThisFirstTime_Log_From_LiveServer', true);
			}
		})();
	}
	else {
		console.error('Upgrade your browser. This Browser is NOT supported WebSocket for Live-Reloading.');
	}
	// ]]>
</script></svg>
