<svg xmlns="http://www.w3.org/2000/svg" viewBox="0 0 160.89 55.89"><defs><style>.cls-1{fill:#0a6562;}</style></defs><g id="Layer_2" data-name="Layer 2"><g id="Layer_8" data-name="Layer 8"><path class="cls-1" d="M107.58,53.66l-.52.09-2.06,2a140,140,0,0,1,26.83-2.31,140.16,140.16,0,0,1,26.84,2.31l2.22-2.23c-6.85-1.45-16.45-2.22-26.57-2.22a152.47,152.47,0,0,0-26.74,2.31"/><path class="cls-1" d="M107.06,53.92l.09-.52a138.85,138.85,0,0,0,2.31-26.83A144,144,0,0,0,107.23,0L105,2.23a139.06,139.06,0,0,1,2.32,26.83A139.06,139.06,0,0,1,105,55.89"/><path class="cls-1" d="M5.23,23.4a6,6,0,0,1-.6,1.72c-.34.34-.52.68-.86.85a5.44,5.44,0,0,1-1.8.77,1.86,1.86,0,0,1-1.2-.17A1,1,0,0,1,0,25.72a5.83,5.83,0,0,1,1.63-3.09L3,20.92a10.83,10.83,0,0,0,.86.77,6.22,6.22,0,0,0,.85.6,1.25,1.25,0,0,1,.52,1.11m-.52-5.06L4,19.46l-1.63-1L2,19.37l-1.71-1,.68-1.2,1.63,1,.52-.94Zm-.6,5.92c0-.52-.51-1-1.62-1.72a14.82,14.82,0,0,0-1.12,1.55,1,1,0,0,0-.08.43c0,.42.34.68.85.68a6.17,6.17,0,0,0,1.63-.34,1.09,1.09,0,0,0,.34-.6"/><path class="cls-1" d="M11.74,26a5.28,5.28,0,0,1-1.2,3.26,3.23,3.23,0,0,1-2.4,1.63,8.1,8.1,0,0,1-2.05-.52c-1-.34-1.63-.68-1.63-1l.17-.18c.08,0,.34.18.94.35a6.35,6.35,0,0,0,1.37.34,4.32,4.32,0,0,0,2.75-1.54c1-1,1.62-1.89,1.62-2.66,0-.51-.6-1.29-1.88-2.23a11.7,11.7,0,0,0,.34-1.71,5.92,5.92,0,0,1,1.46,1.54A9.08,9.08,0,0,1,11.74,26"/><path class="cls-1" d="M17.14,26.66H14.31c-.17-3.52-.42-6.77-.77-10,.26-.34.52-.69,1-1.29l.42,5.49c.26,2.4.35,3.77.43,3.94l.17.17a.93.93,0,0,0,.78.26h.77"/><path class="cls-1" d="M16.54,26.66h14V25.2h-14Z"/><path class="cls-1" d="M30.17,26.66H33V25.2H30.17Z"/><path class="cls-1" d="M44.49,26.66h-4c-.34,0-.6-.26-.68-.77a5.31,5.31,0,0,1-.17-1.12,6.35,6.35,0,0,1-.95.69c-.34.26-.68.43-.94.6a2.38,2.38,0,0,1-1.71.68H32.57V25.29h3.6a5.66,5.66,0,0,0,3.52-1.63,18.56,18.56,0,0,0-2.49-.52L36.43,23a3.37,3.37,0,0,0-1.63.77v-.08a2.44,2.44,0,0,1,.17-.6,2.24,2.24,0,0,1,2-1.63,12.19,12.19,0,0,1,2.32.43,15.91,15.91,0,0,0,3.51.68h.95a15.65,15.65,0,0,0-.6,1.55H42.6a9,9,0,0,0-2.4.34.92.92,0,0,0,.34.69l.18.08H44.4v1.46ZM40,29.57l-.69,1.12-1.62-1,.68-1.11Z"/><path class="cls-1" d="M49.72,26.66h-.86c-.26,0-.34-.09-.6-.26a1.11,1.11,0,0,1-.26-.34c-.08-.17-.17-.34-.17-.34s-.17.17-.34.42a.88.88,0,0,1-.35.43h-3V25.12H48l.09-1.89c.34-.43.77-1,1.28-1.63v.17A13.51,13.51,0,0,1,49,24.52a1.59,1.59,0,0,0-.08.42c0,.09.08.18.34.18h.43v1.54h0m-.6-7.72-.69,1.12-1.54-.94-.6.94-1.72-1,.69-1.2,1.63,1,.51-.94"/><path class="cls-1" d="M54.26,17.49,53.4,19.2l-.17-.08L53.66,24a7.85,7.85,0,0,1-.26,1.63c-.17.77-.34,1.11-.43,1.11H49.12V25.29h3.6c.08,0,.08-.09.08-.35A64.9,64.9,0,0,0,52,18.43l-.09-.09c-.17-.17-.34-.25-.34-.42s0-.26.08-.35l.77-1.28c.18-.26.26-.35.35-.35l.17.18-.09.25-.08.17c0,.09.08.17.17.26.6.26,1,.52,1.37.69"/><path class="cls-1" d="M58,24.86a8.41,8.41,0,0,1-.69,2.48c-.26-2.57-.51-5.65-.94-9.34-.09-.34.34-1.2,1-2.49.08.09.17,1.72.34,4.63"/><path class="cls-1" d="M69.35,23.4a5.22,5.22,0,0,1-.52,1.72c-.34.34-.51.68-.86.85a5.44,5.44,0,0,1-1.8.77,1.88,1.88,0,0,1-1.2-.17c-.42-.25-.68-.51-.68-.94,0-.69.51-1.71,1.63-3.09l1.37-1.71a9.13,9.13,0,0,0,.86.77,5,5,0,0,0,.85.6,1.8,1.8,0,0,1,.35,1.2m-.43-5.06-.69,1.12-1.63-1-.43.94-1.71-1,.69-1.2,1.62,1,.52-.94Zm-.6,5.92c0-.52-.52-1-1.63-1.72a16.44,16.44,0,0,0-1.12,1.55,1,1,0,0,0-.08.43c0,.42.34.68.86.68A6.18,6.18,0,0,0,68,24.86a.75.75,0,0,0,.35-.6"/><path class="cls-1" d="M76,26a5.28,5.28,0,0,1-1.2,3.26,3.23,3.23,0,0,1-2.4,1.63,8.24,8.24,0,0,1-2.06-.52c-1-.34-1.62-.68-1.62-1l.17-.18c.08,0,.34.18.94.35a6.35,6.35,0,0,0,1.37.34A4.27,4.27,0,0,0,74,28.29c1-1,1.63-1.89,1.63-2.66,0-.51-.6-1.29-1.88-2.23a13.24,13.24,0,0,0,.34-1.71,6.09,6.09,0,0,1,1.46,1.54A9.39,9.39,0,0,1,76,26"/><path class="cls-1" d="M79.72,24.86A8.41,8.41,0,0,1,79,27.34c-.26-2.57-.51-5.65-.94-9.34-.09-.34.34-1.2,1-2.49.08.09.17,1.72.34,4.63"/><path class="cls-1" d="M87.26,26a5.28,5.28,0,0,1-1.2,3.26,3.23,3.23,0,0,1-2.4,1.63,8.24,8.24,0,0,1-2.06-.52c-1-.34-1.54-.68-1.54-1l.17-.18c.09,0,.35.18.94.35a6.41,6.41,0,0,0,1.38.34,4.3,4.3,0,0,0,2.74-1.54c1-1,1.63-1.89,1.63-2.66,0-.51-.6-1.29-1.89-2.23a11.41,11.41,0,0,0,.35-1.71,6,6,0,0,1,1.45,1.54A13.21,13.21,0,0,1,87.26,26m-1.88-7.28-.69,1.11-1.71-1,.68-1.11"/><path class="cls-1" d="M94.2,24.69a9.79,9.79,0,0,1-.85,3.85,11.17,11.17,0,0,1-1.12,1.63,2.36,2.36,0,0,1-1.71.86c-.43-.09-1.12-.17-2.06-.34s-1.71-.43-1.71-.6.08-.17.25-.17a5.2,5.2,0,0,1,1,.17,7,7,0,0,0,1,.17,1.25,1.25,0,0,0,.6-.09,8.15,8.15,0,0,0,2.65-1.71A3.64,3.64,0,0,0,93.6,26a1.71,1.71,0,0,0-.17-.94c-.34.69-.6,1.11-1,1.29a1.69,1.69,0,0,1-1,.17,1.21,1.21,0,0,1-.95-.69,2.36,2.36,0,0,1-.25-1.11,4.38,4.38,0,0,1,.77-2c.51-.95,1-1.38,1.45-1.38s.6.35,1,1.12a3.33,3.33,0,0,1,.77,2.23m-1.11-.26a1.89,1.89,0,0,0-.34-1c-.26-.34-.43-.6-.77-.6s-.43.17-.78.43-.42.51-.34.77.26.34.52.52a2.6,2.6,0,0,0,.77.17c.51.17.85,0,.94-.26"/><path class="cls-1" d="M2.4,34.12l2.06,5.22,2-5.22H7.71V41H6.6V36.26L4.71,41H3.94L2.31,36.26V41H1.11V34.12"/><path class="cls-1" d="M8.66,35.06H9.77v-.94H8.66Zm0,5.91H9.77V36H8.66Z"/><path class="cls-1" d="M10.54,36.09h1.12v.34c.25-.17.43-.34.68-.34s.52-.17.77-.17a2,2,0,0,1,.69.08,1.1,1.1,0,0,1,.51.34c.18.18.26.35.35.43a1.2,1.2,0,0,1,.08.6v3.52H13.63V37.46a.84.84,0,0,0-.17-.6.56.56,0,0,0-.43-.17,1.2,1.2,0,0,0-.52.08.81.81,0,0,0-.42.35l-.35.34a1,1,0,0,0-.08.43v3h-1c-.09,0-.09-4.8-.09-4.8"/><path class="cls-1" d="M15.69,35.06H16.8v-.94H15.69Zm0,5.91H16.8V36H15.69Z"/><path class="cls-1" d="M18.77,39.34c0,.18,0,.35.09.43s.08.26.26.35l.34.17c.08,0,.26.08.34.08h.34c.17,0,.26-.08.35-.08l.25-.26a.5.5,0,0,0,.09-.34c0-.17,0-.26-.09-.35l-.25-.25a.64.64,0,0,0-.35-.17c-.17-.09-.25-.09-.34-.18a4,4,0,0,1-.6-.25,1,1,0,0,1-.51-.35c-.18-.17-.35-.25-.35-.34a1.29,1.29,0,0,1-.17-.6,1.7,1.7,0,0,1,.17-.6c.09-.17.26-.34.35-.34a4,4,0,0,1,.6-.26,2,2,0,0,1,.68-.08,2.25,2.25,0,0,1,.77.08,4,4,0,0,1,.6.26l.43.43a1.27,1.27,0,0,1,.17.68H20.4c0-.17-.09-.25-.09-.34l-.17-.26-.25-.08h-.17a.89.89,0,0,0-.52.17.34.34,0,0,0-.17.34l.09.34.25.26a.64.64,0,0,0,.35.17c.17.09.25.09.34.17.25.09.34.18.6.26a1.1,1.1,0,0,1,.51.34c.17.09.35.26.35.35a1.28,1.28,0,0,1,.17.51,1.41,1.41,0,0,1-.17.69,2.76,2.76,0,0,1-.43.43,1.86,1.86,0,0,1-.69.34,2.83,2.83,0,0,1-.86.08,2.28,2.28,0,0,1-.77-.08,1.41,1.41,0,0,1-.6-.34,2.74,2.74,0,0,1-.43-.52,2.18,2.18,0,0,1-.17-.77h1.12c.08.17.08-.09.08-.09"/><path class="cls-1" d="M24,34.63v1.46h.77v.77H24v3.08c0,.18,0,.35.09.35l.25.08h.18a.55.55,0,0,0,.34-.08v.77a4.28,4.28,0,0,0-.43.08h-.34c-.17,0-.35,0-.43-.08s-.34-.09-.34-.17-.26-.17-.26-.35a.87.87,0,0,1-.09-.42V36.86H22.2v-.77H23V34.63"/><path class="cls-1" d="M25.46,36.09h1l.08.43c.17-.18.35-.35.43-.35a1.27,1.27,0,0,1,.52-.17h.25l.35.09V37a1.38,1.38,0,0,0-.52-.17c-.17,0-.34,0-.34.08a1.29,1.29,0,0,0-.34.26.67.67,0,0,0-.18.34.56.56,0,0,0-.08.35v3H25.54c-.08,0-.08-4.8-.08-4.8"/><path class="cls-1" d="M30.69,39.52l1.11-3.35h1.12l-2.06,5.92a3,3,0,0,1-.26.51c-.08.17-.26.26-.34.34s-.09.18-.26.18h-.77a.6.6,0,0,1-.34-.18v-.85l.17.08.17.09.17.08h.09l.17-.08.08-.17.09-.26.09-.26.25-.68-1.8-5h1.2"/><path class="cls-1" d="M35.4,38.57a4.71,4.71,0,0,1,.17-1,2.72,2.72,0,0,1,.43-.85,2.43,2.43,0,0,1,.77-.52,2.07,2.07,0,0,1,1-.25,2.3,2.3,0,0,1,1,.25,6.42,6.42,0,0,1,.77.52,1.61,1.61,0,0,1,.43.85,3.58,3.58,0,0,1,.17,1,4,4,0,0,1-.17,1,2.89,2.89,0,0,1-.43.86,2.41,2.41,0,0,1-.77.51,2,2,0,0,1-1,.26,2.34,2.34,0,0,1-1-.26,6.43,6.43,0,0,1-.77-.51,1.68,1.68,0,0,1-.43-.86,7,7,0,0,1-.17-1m1.2,0a1.82,1.82,0,0,0,.09.69,2.69,2.69,0,0,0,.25.51c.09.17.26.35.35.35a1.28,1.28,0,0,0,.51.17,1,1,0,0,0,.52-.17c.17-.09.34-.26.34-.35s.26-.34.26-.51a2,2,0,0,0,.08-.69,2,2,0,0,0-.08-.68,3.56,3.56,0,0,0-.26-.52c-.09-.17-.26-.34-.34-.34s-.35-.17-.52-.17a1.14,1.14,0,0,0-.51.17c-.17.09-.35.26-.35.34s-.25.35-.25.52a1.58,1.58,0,0,0-.09.68"/><path class="cls-1" d="M41.49,36.09V35c0-.17,0-.34.08-.34a1.11,1.11,0,0,1,.26-.34c.09-.09.26-.17.34-.26s.35-.09.52-.09A.5.5,0,0,1,43,34c.17.09.34.09.43.26v.77l-.34-.17-.18-.09h-.08c-.09.09-.09.17-.09.34v1h.86v.77h-.86v4.12H41.66V36.94H40.8v-.77"/><path class="cls-1" d="M47.32,37.46a5.51,5.51,0,0,0,.17,1.28,10.07,10.07,0,0,1,.43.95,2.06,2.06,0,0,0,.68.51,1.16,1.16,0,0,0,.77.17,1.94,1.94,0,0,0,.69-.17c.26-.08.34-.26.51-.34a.84.84,0,0,0,.35-.6c.08-.26.17-.43.25-.69h1.12a5,5,0,0,1-.34,1,3.57,3.57,0,0,1-.6.86,1.66,1.66,0,0,1-1,.51,2.65,2.65,0,0,1-1.11.26A3.16,3.16,0,0,1,48,41a2.19,2.19,0,0,1-1-.77,2.07,2.07,0,0,1-.6-1.11,4.69,4.69,0,0,1-.25-1.63,3.74,3.74,0,0,1,.08-.94,3.66,3.66,0,0,1,.34-.86A5.84,5.84,0,0,0,47,35a1.85,1.85,0,0,1,.6-.51,1.58,1.58,0,0,1,.77-.34,3,3,0,0,1,2.06,0c.35.08.6.34,1,.42a5.28,5.28,0,0,1,.6.69,2.11,2.11,0,0,1,.34.94H51.17a1.77,1.77,0,0,0-.77-1.11,1.69,1.69,0,0,0-1.11-.34,1.47,1.47,0,0,0-.86.25,2,2,0,0,0-.6.6,2.89,2.89,0,0,0-.43.86c0,.43-.08.6-.08,1"/><path class="cls-1" d="M53.23,38.57a4.71,4.71,0,0,1,.17-1,2.72,2.72,0,0,1,.43-.85,2.43,2.43,0,0,1,.77-.52,2.07,2.07,0,0,1,1-.25,2.3,2.3,0,0,1,1,.25,6.42,6.42,0,0,1,.77.52,1.61,1.61,0,0,1,.43.85,3.58,3.58,0,0,1,.17,1,4,4,0,0,1-.17,1,2.89,2.89,0,0,1-.43.86,2.41,2.41,0,0,1-.77.51,2,2,0,0,1-1,.26,2.34,2.34,0,0,1-1-.26,6.43,6.43,0,0,1-.77-.51,1.68,1.68,0,0,1-.43-.86,2.57,2.57,0,0,1-.17-1m1,0a1.82,1.82,0,0,0,.09.69,2.69,2.69,0,0,0,.25.51c.09.17.26.35.35.35a.85.85,0,0,0,1,0c.18-.09.35-.26.35-.35s.25-.34.25-.51a1.82,1.82,0,0,0,.09-.69,1.77,1.77,0,0,0-.09-.68,2.82,2.82,0,0,0-.25-.52c-.09-.17-.26-.34-.35-.34s-.34-.17-.51-.17A1.14,1.14,0,0,0,55,37c-.18.09-.35.26-.35.34s-.25.35-.25.52-.09.43-.09.68"/><path class="cls-1" d="M58.72,36.09h1.11v.34c.26-.17.34-.34.6-.34s.43-.09.69-.09a2.12,2.12,0,0,1,.68.17c.26.09.35.26.6.52a1.44,1.44,0,0,1,.35-.35,1.25,1.25,0,0,0,.34-.25c.17-.09.34-.09.34-.17h.34a1,1,0,0,1,.69.17,1,1,0,0,1,.51.34,5.18,5.18,0,0,1,.35.43,1.29,1.29,0,0,1,.17.6V41H64.37V37.72c0-.18,0-.35-.08-.43s-.09-.26-.17-.35l-.26-.17-.26-.08c-.17,0-.25,0-.34.08s-.26.17-.34.26-.17.26-.26.34a.91.91,0,0,0-.09.43v3.09H61.46V37.63a.63.63,0,0,0-.09-.43c-.08-.17-.08-.26-.17-.34L61,36.69l-.26-.09a.7.7,0,0,0-.43.17c-.09.09-.26.17-.34.35a1.25,1.25,0,0,1-.26.34.89.89,0,0,0-.09.43v3H58.46v-4.8"/><path class="cls-1" d="M66.52,36.09h1.2v.34c.25-.17.34-.34.6-.34A1.77,1.77,0,0,1,69,36a2.18,2.18,0,0,1,.69.17c.26.09.34.26.6.52.08-.17.26-.26.34-.35a1.11,1.11,0,0,0,.34-.25c.18-.09.35-.09.35-.17h.34a1,1,0,0,1,.69.17,1.07,1.07,0,0,1,.51.34,4.65,4.65,0,0,1,.34.43,1.18,1.18,0,0,1,.17.6V41H72.26V37.72c0-.18,0-.35-.09-.43s-.08-.26-.17-.35l-.25-.17-.26-.08c-.17,0-.26,0-.34.08s-.26.17-.35.26-.17.26-.25.34a.91.91,0,0,0-.09.43v3.09H69.35V37.63a.63.63,0,0,0-.09-.43c-.09-.17-.09-.26-.17-.34l-.26-.17-.26-.09a.65.65,0,0,0-.42.17.67.67,0,0,0-.35.35,1.25,1.25,0,0,1-.25.34.62.62,0,0,1,.17.51v3H66.6"/><path class="cls-1" d="M75.52,38.74a1.47,1.47,0,0,0,.17.6,2.28,2.28,0,0,0,.26.52,1.09,1.09,0,0,0,.34.34,1.28,1.28,0,0,0,.43.17,1.25,1.25,0,0,0,1.2-1h1a2.23,2.23,0,0,1-.35.78,3.07,3.07,0,0,1-.51.51,2.45,2.45,0,0,1-.69.34,2,2,0,0,1-.77.09,2.34,2.34,0,0,1-1-.26,2.67,2.67,0,0,1-.77-.6,1.71,1.71,0,0,1-.43-.86,4.53,4.53,0,0,1-.17-1,4,4,0,0,1,.17-1c.09-.34.35-.51.43-.77a2.41,2.41,0,0,1,.77-.51,2.07,2.07,0,0,1,1-.26,3.89,3.89,0,0,1,1,.17,4.9,4.9,0,0,1,.77.52,1.35,1.35,0,0,1,.43.77,3.52,3.52,0,0,1,.17,1v.51ZM77.83,38c0-.17-.08-.34-.08-.51s-.18-.34-.26-.34c-.09-.18-.26-.26-.34-.35a.84.84,0,0,0-.43-.08c-.17,0-.35,0-.43.08a.65.65,0,0,0-.34.35,1.49,1.49,0,0,1-.26.34.89.89,0,0,0-.09.43"/><path class="cls-1" d="M79.72,36.09h1l.08.34c.17-.17.34-.34.43-.34a1.14,1.14,0,0,1,.52-.17H82l.35.08v.94a1.38,1.38,0,0,0-.52-.17c-.17,0-.34,0-.34.09a1.14,1.14,0,0,0-.35.26.65.65,0,0,0-.17.34,1,1,0,0,0-.08.43v3h-1.2"/><path class="cls-1" d="M86.23,37.63a1.6,1.6,0,0,0-.34-.69.77.77,0,0,0-.6-.25,1.14,1.14,0,0,0-.51.17c-.18.08-.35.26-.35.34l-.25.52a1.23,1.23,0,0,0-.18.68,1.82,1.82,0,0,0,.09.69,4.46,4.46,0,0,0,.26.6c.08.17.25.34.34.34s.34.17.43.17.26,0,.34-.08l.34-.26c.09-.09.18-.26.26-.34s.09-.35.17-.43h1.2a1.42,1.42,0,0,1-.25.85,6.19,6.19,0,0,0-.43.6.88.88,0,0,1-.69.35,2.68,2.68,0,0,1-.86.17,2,2,0,0,1-1-.26,1.94,1.94,0,0,1-1-1.46A3.45,3.45,0,0,1,83,38.4a4.18,4.18,0,0,1,.17-1,2.08,2.08,0,0,1,.43-.77,2.21,2.21,0,0,1,.77-.51,2,2,0,0,1,1-.26,2.61,2.61,0,0,1,.85.17,4.41,4.41,0,0,1,.6.34,2.41,2.41,0,0,1,.43.52c.09.26.26.43.26.68"/><path class="cls-1" d="M89.32,38.74a1.47,1.47,0,0,0,.17.6,2.78,2.78,0,0,0,.26.52,1.09,1.09,0,0,0,.34.34,1.28,1.28,0,0,0,.43.17,1.25,1.25,0,0,0,1.2-1h1a2.07,2.07,0,0,1-.35.78,3.07,3.07,0,0,1-.51.51,2.45,2.45,0,0,1-.69.34,2.23,2.23,0,0,1-.77.09,2.34,2.34,0,0,1-1-.26,2.67,2.67,0,0,1-.77-.6,1.71,1.71,0,0,1-.43-.86,4.53,4.53,0,0,1-.17-1,4,4,0,0,1,.17-1c.09-.34.35-.51.43-.77a2.41,2.41,0,0,1,.77-.51,2.07,2.07,0,0,1,1-.26,3.89,3.89,0,0,1,1,.17,4.9,4.9,0,0,1,.77.52,1.3,1.3,0,0,1,.43.77,3.52,3.52,0,0,1,.17,1v.51ZM91.63,38c0-.17-.08-.34-.08-.51s-.17-.34-.26-.34c-.09-.18-.26-.26-.34-.35a.84.84,0,0,0-.43-.08.69.69,0,0,0-.43.08.65.65,0,0,0-.34.35,1.25,1.25,0,0,1-.26.34.89.89,0,0,0-.09.43"/><path class="cls-1" d="M141.69,36.09a64.53,64.53,0,0,0-5.91,4.54,30.74,30.74,0,0,1,2.91,2.91l.09-.08H139l.08.17.17-.26a.57.57,0,0,1,.26-.68c.34-.26.6-.26.86,0a.57.57,0,0,1-.09.85.53.53,0,0,1-.6.18c-.17.25-.08.34-.08.34a2.7,2.7,0,0,0,2.31,1,2.35,2.35,0,0,0,1.8-1,1,1,0,0,1,1.46,0c1,1.63-1.12,3-2.66,3.09a5.92,5.92,0,0,1-4.11-1.71c-.18-.18-.35-.26-.43-.18s-.18.18-.18.35a.6.6,0,0,1-.25.51.57.57,0,0,1-.86,0,.58.58,0,0,1,.09-.86.55.55,0,0,1,.43-.17h.08l-.08-.08v-.26l.25-.26c-.34-.34-1.54-1.54-3.17-2.91-1.54,1.37-2.66,2.48-3.17,2.91l.26.26v.26l-.09.08h.09a.65.65,0,0,1,.42.17.58.58,0,0,1,.09.86.57.57,0,0,1-.86,0,.73.73,0,0,1-.25-.51.46.46,0,0,0-.18-.35c-.17-.08-.25,0-.42.18a6.14,6.14,0,0,1-4,1.71c-1.63,0-3.86-1.46-2.66-3.09a1,1,0,0,1,1.46,0,2.33,2.33,0,0,0,1.8,1,2.94,2.94,0,0,0,2.23-1s.08-.26-.09-.34c-.17.08-.34,0-.6-.18a.59.59,0,1,1,1-.17l.17.26v-.17h.26l.08.08,2.92-2.91a66.68,66.68,0,0,0-5.92-4.54c-6.51-4.37-11.4-3.86-11.4-3.86,3.69-1.37,8.32,0,10.37,1.11a52.81,52.81,0,0,1,8.32,5.92,47.14,47.14,0,0,1,8.31-5.92c2.15-1.2,6.69-2.48,10.38-1.11.25-.17-4.63-.51-11.15,3.86M124,15.34c.08-.43.68-.85.68-.85h.09V14.4c0-.94.69-1,.69-1h.08V13.2c0-.17,0-.26.09-.34a1.14,1.14,0,0,1,.85-.26,1,1,0,0,1,.43.09H127l-.08-.18v-.25c.08-.09.17-.09.34-.09a4.17,4.17,0,0,1,1.2.34l.17.09v-.26c0-.17,0-.25.09-.25a.63.63,0,0,1,.34-.18,3.29,3.29,0,0,1,1,.26h.09a1.27,1.27,0,0,0,.68.17c0,.26.26.6,1,1l.94.26a4,4,0,0,1,.95.34l-.35.09c-.94.26-1.88.6-2.05.6h-.35c-.85,0-1-.34-1-.34l-.08-.18-.09.09a1.35,1.35,0,0,1-.85.34h-.18a.82.82,0,0,1-.25-.17l-.09-.08-.08.08a1.43,1.43,0,0,1-1,.34.74.74,0,0,1-.51-.17h-.09l-.08.09a6.48,6.48,0,0,1-1.37.77,1,1,0,0,1-.86.26H124c-.08,0-.08-.18-.08-.35m2.4-5.05a1.13,1.13,0,0,1,.77-.26h.17V9.94c.17-.34.34-.43.6-.43a.84.84,0,0,1,.34.09l.09.09.09-.09c.08-.17.17-.26.34-.26a2.42,2.42,0,0,1,.94.43l.17.17.09-.17c0-.17.08-.17.17-.17.26,0,.69.51.94.86l.09.17.08-.17c.09-.17.18-.17.26-.17.17.17.34.34.52.34,0,.17.08.51.6.86-.09.17-.09.6.34,1.11a5.09,5.09,0,0,1,1,1l.25.34a6,6,0,0,0-.59-.26,7.9,7.9,0,0,0-1.63-.42c-.86-.35-.86-.86-.86-.95v-.08h-.6l-.26-.09-.08-.08c-.18-.18-.18-.26-.18-.26v-.09h-.34a1.27,1.27,0,0,1-.94-.43l-.09-.08h-.43a2.85,2.85,0,0,1-.94-.17h-.08a2.29,2.29,0,0,1-1-.52c0-.17.08-.17.17-.25M129.78,8a1.1,1.1,0,0,1,.51.17h.09l.08-.08c.17-.09.26-.17.35-.17a.38.38,0,0,1,.34.25l.08.09.09-.09.17-.08c.26,0,.52.51.6.77l.09.17.08-.17.09-.09c.17,0,.34.52.43,1V10l.17-.17.17-.09c.26,1,.69,2.83.94,3.77l.09.17-.26-.25-.25-.26a3.88,3.88,0,0,0-.86-.69c-.52-.68-.35-1-.35-1l.09-.09-.09-.09c-.17-.08-.34-.17-.34-.34a.53.53,0,0,1-.17-.34v-.09h-.09a.83.83,0,0,1-.51-.34c-.17-.26-.17-.34-.17-.34V9.69h-.09c-.51-.26-1-.6-1-.6-.25,0-.42-.43-.6-.78,0-.34.18-.34.35-.34m3.6,1,.08-.17a2.86,2.86,0,0,1,.18-1.72l.08-.08h.09l.17.08a3.31,3.31,0,0,1,.51-1.2,2.71,2.71,0,0,1,.52,1.2v.18l.17-.09h.08l.09.09A3.09,3.09,0,0,1,135.52,9v.17h.09a1.84,1.84,0,0,1-.09.6v.17l-.09.35c-.17.77-.42,1.8-.77,3v.08l-.08.34v-.08l-.09-.34v-.18a30.34,30.34,0,0,1-.77-3l-.08-.34V9.69a1.09,1.09,0,0,1-.26-.69m2.23.86.17.17.08-.26a2.5,2.5,0,0,1,.43-1l.09.09.17.17.08-.17c.09-.26.35-.77.69-.77l.17.08.09.09.08-.09s.17-.25.35-.25a.43.43,0,0,1,.34.17l.09.08h.08A1.7,1.7,0,0,1,139,8c.17,0,.34.09.34.17-.17.35-.34.77-.6.77a2.9,2.9,0,0,1-1,.6h-.09V9.6a.53.53,0,0,1-.17.34.7.7,0,0,1-.51.35h-.09v.34a.34.34,0,0,1-.17.34c-.09.09-.26.17-.34.34l-.09.09.09.09s.17.34-.34,1c-.09.09-.43.35-.86.69l-.26.26-.26.25.09-.17a24.16,24.16,0,0,0,.94-3.77Zm4.8-.35h.17a.92.92,0,0,1,.34-.08c.26,0,.43.17.6.43v.08h.17c.17,0,.6,0,.77.26.09.09.09.17.09.34a2.4,2.4,0,0,1-1,.52h-.08a2.35,2.35,0,0,1-.95.17h-.43v.08a1.27,1.27,0,0,1-.94.43h-.26v.09a.31.31,0,0,1-.17.26l-.08.08-.26.09h-.6c0,.08,0,.43-.86.94-.17,0-.94.26-1.63.43-.25.08-.34.17-.6.26l.26-.35,1-1a1.89,1.89,0,0,0,.43-1.11,1.11,1.11,0,0,0,.6-.86c.26-.08.34-.25.51-.34s.17,0,.17.17l.09.17.08-.17c.26-.34.69-.86.95-.86,0,0,.08,0,.17.18l.09.17.17-.17a1.56,1.56,0,0,1,.94-.43c.17,0,.17.08.26.25m-.77,8-.09-.17-.09.08a.27.27,0,0,1-.17.09.61.61,0,0,1-.43-.26l-.08-.09c-.09-.17-.26-.34-.34-.51l-.09-.17-.09.08-.08.09a.39.39,0,0,1-.35.17,3.3,3.3,0,0,1-.94-.34c-.08-.17-1-1-1.71-1.72a1.11,1.11,0,0,1-.34-.25l-.26-.17h.17a16,16,0,0,1,2.4.68h.43a1.62,1.62,0,0,0,1.11-.34,1.48,1.48,0,0,0,.95.34h.08v.17l-.08.17h.17a2,2,0,0,1,1.37.43.29.29,0,0,1,0,.35l-.09.17.17.08a2.14,2.14,0,0,1,1.12.77.59.59,0,0,1,0,.52v.08l.08.09a1.28,1.28,0,0,1,.35,1.54v.17s.77,1.12.34,1.72c-.34-.17-1-.43-1.11-.86a5.79,5.79,0,0,1-1-1.54l-.09-.09h-.17c-.17-.26-.69-.34-1.11-1.28m-8.75,14.4h3l-.6-2.75.43-.42-.6-2.49.52-.26L133,23.23l.6-.43L133,20.49l.61-.35-.35-2.05.43-.35-.08-2.23a2.83,2.83,0,0,1,.68-1.11,2.35,2.35,0,0,1,.69,1.11l-.09,2.23.43.35L135,20.14l.6.35-.52,2.31.6.43-.6,2.74.43.26-.6,2.49.43.42-.43,2.75h2.91s.35.17.26.43A10.46,10.46,0,0,1,136.38,34c-.17-.09-.17-.69-.26-.77s-.69.6-1,.77a4.59,4.59,0,0,0-.77-.6,6.51,6.51,0,0,1-.94.6c-.35-.17-.77-.86-.77-.77s-.09.68-.26.77-1.72-1.46-1.72-1.71a.35.35,0,0,1,.26-.43M125.75,19.2a1.62,1.62,0,0,1,.34-1.54l.09-.09v-.08a.53.53,0,0,1,0-.52c.25-.51,1.11-.77,1.11-.77h.17l-.08-.17c-.09-.17-.09-.34,0-.34.25-.35,1-.43,1.37-.43h.17l-.09-.17v-.18h.09a1.38,1.38,0,0,0,.86-.34c.17.17.34.34,1.11.34h.43a13.14,13.14,0,0,1,2.4-.68h.17l-.25.17-.35.26a15.1,15.1,0,0,0-1.71,1.71,1.6,1.6,0,0,1-1,.34.38.38,0,0,1-.34-.17l-.08-.08.08.08-.08.17a5.25,5.25,0,0,0-.35.52l-.08.09c-.26.25-.35.25-.43.25l-.17-.08-.09-.09-.08.17c-.43.94-1,1-1.12,1h-.17v.09a4.33,4.33,0,0,1-1,1.54,2.71,2.71,0,0,1-1.11.86c-.6-.69.17-1.8.17-1.89m3.86,3.34-.26-.17a1.25,1.25,0,0,1-.09-.94v-.09l-.08-.08a.9.9,0,0,1-.26-1l.09-.09-.09-.08-.17-.26a2.08,2.08,0,0,1,.6-1l.17-.17-.17-.09-.17-.17c0-.25.51-.68.94-.94l.17-.08-.17-.09-.09-.09c.09-.08.18-.25.35-.34a.61.61,0,0,0,.43.17,1.74,1.74,0,0,0,1-.43,13.08,13.08,0,0,1,1.89-1.8c-.34.77-.77,1.8-.86,2-.51.95-.94.78-.94.78l-.17-.09v.17c-.09.94-.6,1-.6,1h-.09v.17c0,.95-.6,1.12-.6,1.12h-.08V20a3,3,0,0,1-.35,1.37c.18.43-.17.86-.42,1.2m10-2.31a.78.78,0,0,1-.26,1l-.09.08v.09c0,.17.09.69-.08.94l-.26.17a1.89,1.89,0,0,1-.6-1,3.08,3.08,0,0,1-.34-1.38V20h-.09a1.31,1.31,0,0,1-.6-1.11v-.09h-.08s-.43,0-.61-1v-.17l-.17.09s-.34.17-.94-.77a20.14,20.14,0,0,0-.86-2,13.08,13.08,0,0,1,1.89,1.8,1.45,1.45,0,0,0,1,.43A.51.51,0,0,0,138,17c.08.17.25.35.34.35l-.09.08-.17.09.17.08c.35.26,1,.69,1,.94l-.17.18-.18.08.18.17a2.12,2.12,0,0,1,.6,1Zm3.42-7.2c.09.08.09.08.09.26v.17h.09s.68.08.68,1v.08H144a1.45,1.45,0,0,1,.68.86c0,.17,0,.26-.08.34h-.52c-.43,0-.77-.08-.85-.26a5.93,5.93,0,0,1-1.38-.77l-.08-.08h-.09a1.05,1.05,0,0,1-.51.17,2.61,2.61,0,0,1-1-.34l-.08-.09-.09.09a1.12,1.12,0,0,1-.25.17h-.09a1.44,1.44,0,0,1-.86-.34h-.08l-.09.17s-.17.34-1,.34h-.34a10.1,10.1,0,0,0-2.06-.6l-.34-.09c.34-.08.6-.25.94-.34a5.64,5.64,0,0,1,.95-.26,1.58,1.58,0,0,0,1-1,1.28,1.28,0,0,0,.69-.17,2.76,2.76,0,0,1,1-.25c.17,0,.34.08.34.17a.29.29,0,0,1,.09.25v.26l.17-.08a3.36,3.36,0,0,1,1.2-.35c.17,0,.26,0,.34.09v.26l-.08.17h.17a1.71,1.71,0,0,1,.43-.09c.51,0,.77.09.85.26M160.72.09a142.71,142.71,0,0,1-26.4,2.22c-9.94,0-19.54-.77-26.4-2.22a143.18,143.18,0,0,1,2.23,26.4c0,10-.77,19.54-2.23,26.4a143.34,143.34,0,0,1,26.4-2.23c10,0,19.54.77,26.4,2.23a142.62,142.62,0,0,1-2.23-26.4A151.5,151.5,0,0,1,160.72.09"/></g></g></svg>