<svg xmlns="http://www.w3.org/2000/svg" viewBox="0 0 154.39 47.38"><defs><style>.cls-1{fill:#158285;}.cls-2{fill:#f7941d;}.cls-3{fill:#2bb574;}.cls-4{fill:#fcb614;}</style></defs><g id="Layer_2" data-name="Layer 2"><g id="Layer_6" data-name="Layer 6"><path class="cls-1" d="M2.25,27A.66.66,0,0,0,3,26.31a.67.67,0,0,0-.72-.65.66.66,0,1,0,0,1.31Z"/><path class="cls-1" d="M4.18,27a.66.66,0,0,0,.72-.66.67.67,0,0,0-.72-.65.66.66,0,1,0,0,1.31Z"/><path class="cls-1" d="M5.88,34.17a.68.68,0,0,0-.73.66.66.66,0,0,0,.73.66.66.66,0,0,0,.73-.66A.68.68,0,0,0,5.88,34.17Z"/><path class="cls-1" d="M7.83,34.17a.67.67,0,0,0-.72.66.66.66,0,0,0,.72.66.66.66,0,0,0,.73-.66A.68.68,0,0,0,7.83,34.17Z"/><path class="cls-1" d="M12.35,30.56a1.36,1.36,0,0,1,1.41-1.48,3.27,3.27,0,0,1,1.41.39l.38-1.07A5,5,0,0,0,13.67,28a2.25,2.25,0,0,0-2.43,2.43,5.27,5.27,0,0,0,.36,1.72H9.15V28H8V32.1H4.86V28H3a2.68,2.68,0,0,0-3,2.63H0a2.59,2.59,0,0,0,2.82,2.61H15.76V32.1H12.87A2.89,2.89,0,0,1,12.35,30.56ZM3.7,32.08h-1a1.49,1.49,0,0,1-1.63-1.45h0a1.49,1.49,0,0,1,1.63-1.48h1Z"/><path class="cls-1" d="M26.09,27.2a.66.66,0,0,0,.72-.66.67.67,0,0,0-.72-.66.68.68,0,0,0-.73.66A.66.66,0,0,0,26.09,27.2Z"/><path class="cls-1" d="M28,27.2a.66.66,0,0,0,.72-.66.67.67,0,0,0-.72-.66.68.68,0,0,0-.73.66A.66.66,0,0,0,28,27.2Z"/><path class="cls-1" d="M33.26,27.88a4,4,0,0,0-1.91.55l.41,1.06a2.62,2.62,0,0,1,1.43-.43c1.41,0,1.68,1.64,2.46,3H29.74V28H28.61V32.1H25.47V30.7a2.54,2.54,0,0,0-2.56-2.8h0a2.54,2.54,0,0,0-2.57,2.8v0c0,1-.47,1.46-1.4,1.46h-.8v-6.2H17v7.38h2a2,2,0,0,0,1.9-.84,2.37,2.37,0,0,0,2.07.84H37.17V32.15C36.08,31.6,36.05,27.88,33.26,27.88Zm-8.94,4.2H22.91a1.3,1.3,0,0,1-1.41-1.43h0a1.43,1.43,0,0,1,1.41-1.59h0a1.43,1.43,0,0,1,1.41,1.59Z"/><path class="cls-1" d="M34,34.17a.7.7,0,0,0-.75.66.69.69,0,0,0,.75.68.67.67,0,0,0,.72-.68A.66.66,0,0,0,34,34.17Z"/><polygon class="cls-1" points="42.71 32.08 38.6 32.08 38.6 33.26 43.87 33.26 43.87 25.88 42.71 25.88 42.71 32.08"/><rect class="cls-1" x="39.82" y="26.61" width="1.16" height="4.86"/><rect class="cls-1" x="45.36" y="25.88" width="1.16" height="7.38"/><path class="cls-1" d="M50.63,26.31a.73.73,0,0,0,1.45,0,.67.67,0,0,0-.72-.65A.65.65,0,0,0,50.63,26.31Z"/><path class="cls-1" d="M52.56,26.31a.73.73,0,0,0,1.45,0,.67.67,0,0,0-.72-.65A.65.65,0,0,0,52.56,26.31Z"/><path class="cls-1" d="M55,34.17a.68.68,0,0,0-.73.66.73.73,0,0,0,1.46,0A.68.68,0,0,0,55,34.17Z"/><path class="cls-1" d="M56.92,34.17a.68.68,0,0,0-.73.66.73.73,0,0,0,1.46,0A.68.68,0,0,0,56.92,34.17Z"/><path class="cls-1" d="M67.25,27.22a.67.67,0,1,0,0-1.34.7.7,0,0,0-.75.66A.69.69,0,0,0,67.25,27.22Z"/><path class="cls-1" d="M71.13,25.88a.67.67,0,0,0-.72.66.73.73,0,0,0,1.45,0A.68.68,0,0,0,71.13,25.88Z"/><path class="cls-1" d="M72.45,26.54a.73.73,0,0,0,1.45,0,.73.73,0,0,0-1.45,0Z"/><path class="cls-1" d="M77.51,32.08H75.08V28H73.93v4.09h-3.5V28H69.27v4.09H66V30.67a2.54,2.54,0,0,0-2.57-2.79h0a2.54,2.54,0,0,0-2.57,2.79v0c0,1-.47,1.45-1.4,1.45H58.24V28H57.08V32.1H54V28H52.06a2.68,2.68,0,0,0-3,2.63h0a2.58,2.58,0,0,0,2.81,2.61h7.49a2,2,0,0,0,1.91-.84,2.34,2.34,0,0,0,2.07.84H78.62V25.88H77.47v6.2Zm-24.7,0h-1a1.49,1.49,0,0,1-1.63-1.45h0a1.49,1.49,0,0,1,1.63-1.48h1Zm12,0H63.39A1.3,1.3,0,0,1,62,30.65h0a1.43,1.43,0,0,1,1.41-1.59h0a1.43,1.43,0,0,1,1.41,1.59Z"/><rect class="cls-1" x="80.15" y="25.88" width="1.16" height="7.38"/><path class="cls-1" d="M85.25,28a2.68,2.68,0,0,0-3,2.64h0a2.59,2.59,0,0,0,2.82,2.61H86c0,.63-.48.84-1.11.84a5.14,5.14,0,0,1-1.52-.25l.22,1.23a4.71,4.71,0,0,0,1.34.18c1.48,0,2.23-.55,2.23-2.3V28ZM86,30.61h0v1.47H85a1.5,1.5,0,0,1-1.64-1.45h0A1.49,1.49,0,0,1,85,29.15h1Z"/><path class="cls-1" d="M60.6,18.82a2.2,2.2,0,0,0-2.48-2.52h-.81v1.16h1a1.09,1.09,0,0,1,1.21,1.25v1.68H56.28v1.16h4.3V18.82Z"/><path class="cls-1" d="M63.53,21.34v-5H62.37v5.22c0,.73-.34,1-.82,1a7.06,7.06,0,0,1-.73-.05l-.11,1a3.47,3.47,0,0,0,.73.09C62.66,23.57,63.53,23.07,63.53,21.34Z"/><rect class="cls-1" x="64.87" y="14.19" width="1.16" height="7.38"/><path class="cls-1" d="M69.84,21.55h.88c0,.63-.47.84-1.11.84a5.14,5.14,0,0,1-1.52-.25l.23,1.22a3,3,0,0,0,1.11.18c1.38,0,2.36-.47,2.45-2h2.48a1.93,1.93,0,0,0,1.79-.84,2.35,2.35,0,0,0,2.07.84h6.13V14.17H83.19v6.2H80.78V19a2.53,2.53,0,0,0-2.56-2.79h0A2.53,2.53,0,0,0,75.65,19v0a1.26,1.26,0,0,1-1.41,1.45H71.88V16.3H70a2.68,2.68,0,0,0-3,2.64h0A2.57,2.57,0,0,0,69.84,21.55Zm7-2.59a1.42,1.42,0,0,1,1.4-1.59h0A1.42,1.42,0,0,1,79.6,19v1.43H78.19A1.29,1.29,0,0,1,76.79,19Zm-8.68,0a1.49,1.49,0,0,1,1.64-1.48h1v1.45h0v1.48h-1a1.47,1.47,0,0,1-1.64-1.45Z"/><rect class="cls-1" x="85.84" y="14.19" width="1.16" height="7.38"/><path class="cls-1" d="M23.75,15.28a.67.67,0,0,0,.73-.66.73.73,0,0,0-1.46,0A.66.66,0,0,0,23.75,15.28Z"/><path class="cls-1" d="M21.82,15.28a.67.67,0,0,0,.73-.66.73.73,0,0,0-1.46,0A.66.66,0,0,0,21.82,15.28Z"/><path class="cls-1" d="M22.39,21.55H28.7V16.3H27.54v4.09H24.41V16.3H22.52a2.68,2.68,0,0,0-3,2.64h0A2.62,2.62,0,0,0,22.39,21.55Zm-1.73-2.61a1.49,1.49,0,0,1,1.64-1.48h1v2.93h-1a1.48,1.48,0,0,1-1.64-1.45Z"/><path class="cls-1" d="M39,14.67a.62.62,0,0,0,.68-.62.69.69,0,0,0-1.37,0A.64.64,0,0,0,39,14.67Z"/><path class="cls-1" d="M38.08,16.12a.64.64,0,1,0-.71-.64A.64.64,0,0,0,38.08,16.12Z"/><path class="cls-1" d="M39.26,15.48a.62.62,0,0,0,.7.64.65.65,0,0,0,.7-.64.7.7,0,0,0-1.4,0Z"/><path class="cls-1" d="M51,14.19H49.79v6.2H47.52V16.3H46.36v4.09H43.23V16.3H42.07v4.09H39.64V17H38.48v3.36H36.37V17H35.21v3.36h-3v-4.2H31.08v5.33c0,.73-.34,1-.82,1a6.89,6.89,0,0,1-.72-.05l-.12,1a3.47,3.47,0,0,0,.73.09,1.82,1.82,0,0,0,2.09-2H50.93V14.19Z"/><rect class="cls-1" x="52.45" y="14.19" width="1.16" height="7.38"/><path class="cls-1" d="M26.11,23.14a.68.68,0,0,0-.73-.66.67.67,0,0,0-.72.66.73.73,0,0,0,1.45,0Z"/><path class="cls-1" d="M28,23.14a.68.68,0,0,0-.73-.66.67.67,0,0,0-.72.66.73.73,0,0,0,1.45,0Z"/><path class="cls-1" d="M44.8,22.48a.68.68,0,0,0-.73.66.73.73,0,1,0,.73-.66Z"/><path class="cls-1" d="M117.86,12.26a6,6,0,0,0,.72.11,40.21,40.21,0,0,1,3.86-5.79A42,42,0,0,0,110.21,0Zm19.73,15.53L125,23.7l14.8,23.68A40.56,40.56,0,0,0,137.59,27.79Z"/><path class="cls-2" d="M117,18.66C122.4,9.94,129.51,3.56,139.79,0L125,23.7l-14.8,23.68C108.89,36.58,111.5,27.4,117,18.66Z"/><path class="cls-3" d="M95.61,14.14l15.73,5.11c1.66-.9,3.36-1.74,5.13-2.49.23-.57.48-1.12.73-1.66.43-.93.89-1.84,1.36-2.73A48,48,0,0,0,95.61,14.14Zm43.05,5.14L125,23.7l29.38,9.56A47.48,47.48,0,0,0,138.66,19.28Z"/><path class="cls-4" d="M95.61,33.26l16.8-5.45A50.87,50.87,0,0,1,114.52,23a39.72,39.72,0,0,1,2-6.22A48.07,48.07,0,0,0,95.61,33.26Zm36.55-21L125,23.7l29.38-9.56A47.92,47.92,0,0,0,132.16,12.26Z"/></g></g></svg>