<svg xmlns="http://www.w3.org/2000/svg" viewBox="0 0 154.89 44.57"><defs><style>.cls-1{fill:#80bc00;}.cls-2{fill:#006b68;}</style></defs><g id="Layer_2" data-name="Layer 2"><g id="Layer_5" data-name="Layer 5"><path class="cls-1" d="M130.67,44.57a24.27,24.27,0,0,1-24.25-24.24L106.6,17h3.8V11.89h.42v-.82h1.82l.52.88h.94v6.48h.76v.9h.28v-5.2h3.06v1.34h1V18h1.69V15.55h2.28l.82,1v2.76h4.68v.7h-5.38V16.83l-.46-.58h-1.24v3.26h-.94v-.84h-2.15v-2.5h-1V14.83h-1.66v5.22h-1.68v-.92h-.76V12.65h-.64l-.52-.88h-.72v.82h-.42v5.08h-3.82l-.14,2.66a23.53,23.53,0,0,0,47.05.08H151.8V16.27h-1.42V14.15h-1.66v-.9h-2v.64l-.4.46v3.84h-2.06V15.33l-.52-.58h-1.14v-1h-1.3v6.26h-2.1V17.73h-1.86v2.32h-4.93v-.7h4.23V17h3.24v2.32h.7V13.09h2.7v1H144l.9,1v2.42h.66v-3.4l.4-.46V12.55h3.44v.92h1.66v2.12h1.41v4.14h2.4v.62a24.24,24.24,0,0,1-24.22,24.22"/><path class="cls-1" d="M121.49,34.84a1.12,1.12,0,0,0-.94,1.74,1.06,1.06,0,0,0,.76.52l.36,0a6.58,6.58,0,0,0,3.88-1.78l.2-.16.14.22A3.48,3.48,0,0,0,128.17,37h.2a1.45,1.45,0,0,0,1.52-1,1.27,1.27,0,0,0-.7-1.28,1.53,1.53,0,0,0-1.16.1c-.12,0-.16.2-.22.42s-.14.58-.5.58a1.11,1.11,0,0,1-.84-.52.46.46,0,0,1,0-.48,12.45,12.45,0,0,1,2.7-2.72c.44-.36.9-.72,1.32-1.12l.16-.14.16.14c.42.38.86.74,1.3,1.1A9.31,9.31,0,0,1,134.85,35a.3.3,0,0,1,0,.3,1.18,1.18,0,0,1-.82.6.38.38,0,0,1-.36-.08.49.49,0,0,1-.1-.4.76.76,0,0,0,0-.24c-.14-.3-.44-.36-.76-.44a1.17,1.17,0,0,0-1.34.92,1,1,0,0,0,.14.8,1.55,1.55,0,0,0,1.26.64,3.55,3.55,0,0,0,2.6-1.64l.14-.22.2.16a6.33,6.33,0,0,0,3.61,1.72,2.51,2.51,0,0,0,1-.2.9.9,0,0,0,.5-.6,1,1,0,0,0-.14-.86,1.2,1.2,0,0,0-2,0l-.1.16-.18-.06a3.59,3.59,0,0,1-1.94-1.38,1,1,0,0,1,0-.88c.14-.24.28-.3.4-.3a.37.37,0,0,1,.14,0,1.9,1.9,0,0,0,1,.32,1.12,1.12,0,0,0,1.14-.88,1,1,0,0,0-.18-.82,1.3,1.3,0,0,0-.74-.52l-.18,0a1.86,1.86,0,0,0-1.38.66,2.42,2.42,0,0,0-.42.92,3.74,3.74,0,0,1-.37.88l-.16.22-4.22-3.94.18-.18c4.53-4.36,10.59-5.89,15.57-6.35-.64-.06-1.28-.08-1.92-.08a22.16,22.16,0,0,0-14.61,5.31l-.14.12-.16-.12a26.66,26.66,0,0,0-8-4.32,24.28,24.28,0,0,0-8.75-.95c5,.44,11,2,15.59,6.35l.18.18-4.18,3.88-.16-.22a3.78,3.78,0,0,1-.38-.88,2.42,2.42,0,0,0-.42-.92,3,3,0,0,0-1.06-.66,1.16,1.16,0,0,0-1.42.92,1.27,1.27,0,0,0,.7,1.28.93.93,0,0,0,.28,0,2.2,2.2,0,0,0,.92-.26l.14-.06a.39.39,0,0,1,.14,0,.57.57,0,0,1,.48.34.89.89,0,0,1,0,.84,3.54,3.54,0,0,1-1.92,1.36l-.16.06-.1-.14a1.45,1.45,0,0,0-1-.48m.16,2.74a3.39,3.39,0,0,1-.44,0,1.55,1.55,0,0,1-1.09-.76A1.61,1.61,0,0,1,122.75,35a3,3,0,0,0,1.54-1.1.36.36,0,0,0,0-.26.53.53,0,0,0-.12-.22l-.1,0a2.79,2.79,0,0,1-1.1.28,1.24,1.24,0,0,1-.46-.08,1.78,1.78,0,0,1-1-1.8,1.62,1.62,0,0,1,1.6-1.32,2.71,2.71,0,0,1,.4,0l0,0a3.43,3.43,0,0,1,1.26.78,2.53,2.53,0,0,1,.52,1.1c.06.18.12.34.18.5l3.4-3.16c-5.18-4.86-12.35-6-17.49-6.19l-2.12-.06,2.08-.4a24.12,24.12,0,0,1,11.33.64,25.72,25.72,0,0,1,8,4.27,22.47,22.47,0,0,1,14.77-5.31,24.61,24.61,0,0,1,4.38.4l2.14.4-2.16.06c-5.14.14-12.32,1.33-17.49,6.19l3.4,3.16.18-.5a3.32,3.32,0,0,1,.51-1.08,2.27,2.27,0,0,1,2-.8,1.69,1.69,0,0,1,1,.72,1.46,1.46,0,0,1,.24,1.2,1.59,1.59,0,0,1-1.58,1.24,2.28,2.28,0,0,1-1.1-.3c-.06.12-.12.34-.06.42A2.9,2.9,0,0,0,138.54,35a1.69,1.69,0,0,1,2.64.16,1.41,1.41,0,0,1,.2,1.26,1.38,1.38,0,0,1-.76.9,3.06,3.06,0,0,1-1.2.24,6.41,6.41,0,0,1-3.71-1.66,4,4,0,0,1-2.84,1.64,2.06,2.06,0,0,1-1.64-.84,1.52,1.52,0,0,1-.22-1.2,1.7,1.7,0,0,1,1.58-1.3,2,2,0,0,1,.34,0,1.44,1.44,0,0,1,1.06.66.87.87,0,0,1,.1.5h0a1.1,1.1,0,0,0,.36-.26,8.93,8.93,0,0,0-2.56-2.64c-.4-.3-.8-.62-1.18-1-.38.36-.8.68-1.18,1a12,12,0,0,0-2.6,2.62.64.64,0,0,0,.42.26,1.67,1.67,0,0,0,.08-.24.94.94,0,0,1,.5-.74,2,2,0,0,1,1.54-.08,1.78,1.78,0,0,1,1,1.78,2,2,0,0,1-2.26,1.38,3.94,3.94,0,0,1-2.48-1.62,7.07,7.07,0,0,1-4,1.72"/><path class="cls-1" d="M139.48,6.34l.58.44-.42-.6c-2.72-3.88-5.75-4-6.71-3.92a2.9,2.9,0,0,1,1-.7l.34-.12-.34-.1a2.77,2.77,0,0,0-2.62.36A3.45,3.45,0,0,0,130.65,0a.25.25,0,0,0-.14,0c-.24.06-.64.68-.84,1.7a2.47,2.47,0,0,0-2.56-.28l-.26.12.28.1a2,2,0,0,1,.92.7,7.41,7.41,0,0,0-6.56,3.6,3.85,3.85,0,0,1-.26.34l.18.16a6.68,6.68,0,0,1,5.32-1.7c-1.44.58-4.22,2.28-5.16,7l-.12.62.34-.54a12,12,0,0,1,5-4.85c-1.18,1.79-2.82,4.91-2.18,7.71l.12.52.12-.52a12.92,12.92,0,0,1,3.3-6.1,13.33,13.33,0,0,0-.08,7.22l.2.52,0-.56a24.72,24.72,0,0,1,1.38-6.58l.36,2.52-.22.06.16,3.46h-.28l.26,3.56-.32.08,0,.1s.22,2.24.3,3.48a3.92,3.92,0,0,0-1,.78v.24h3.1v-.22l0,0a3.49,3.49,0,0,0-.94-.74l.34-3.72-.34,0,.24-3.64-.24,0,.16-3.46h-.26c.06-.3.18-1.14.3-2.56a18.13,18.13,0,0,1,1.56,6.5l.1.88.14-.88a18.66,18.66,0,0,0-.22-7.32,18.84,18.84,0,0,1,3.38,6.32l.17.68.06-.7a10.38,10.38,0,0,0-2.37-7.77,7,7,0,0,1,2.73,1.87,13.94,13.94,0,0,1,2.34,3l.28.54-.06-.6a9,9,0,0,0-5.09-7.07c1.72-.34,4.31,1.06,5.11,1.66"/><path class="cls-2" d="M5.25,15H3.36v-.76L2.87,15H2.43A2.24,2.24,0,0,1,.71,14.4a2.05,2.05,0,0,1-.53-1.48V11a1.9,1.9,0,0,1,.6-1.55,2.2,2.2,0,0,1,1.45-.5H4.52v4.88h.73ZM1.87,7.27a.58.58,0,0,1-.91,0,.73.73,0,0,1,0-1,.58.58,0,0,1,.91,0,.75.75,0,0,1,0,1Zm1.49,6.54V10.09H2.19a.76.76,0,0,0-.85.86v2a.91.91,0,0,0,.21.67,1,1,0,0,0,.71.2Zm.39-6.54a.6.6,0,0,1-.46.22.58.58,0,0,1-.45-.22.75.75,0,0,1,0-1,.58.58,0,0,1,.45-.22.6.6,0,0,1,.46.22.72.72,0,0,1,0,1Z"/><path class="cls-2" d="M6.39,15H5.06V13.81H6.48c.57,0,.85-.27.85-.8V8.93h1.3v4a1.8,1.8,0,0,1-.79,1.62A2.52,2.52,0,0,1,6.39,15Zm.24,2a.67.67,0,0,1,.19.49.71.71,0,0,1-.19.5.61.61,0,0,1-.47.21.59.59,0,0,1-.45-.2.68.68,0,0,1-.19-.5.72.72,0,0,1,.19-.5.61.61,0,0,1,.92,0Zm1.92,1a.74.74,0,0,1-.55.21.83.83,0,0,1-.56-.2.66.66,0,0,1,0-1A.79.79,0,0,1,8,16.74a.77.77,0,0,1,.55.21.64.64,0,0,1,.23.49A.66.66,0,0,1,8.55,17.94Z"/><path class="cls-2" d="M15.67,15H10.3V13.81h3.49v-2a1.52,1.52,0,0,0-1.69-1.75h-.78V8.93h.86A2.69,2.69,0,0,1,15,11.71v2.1h.71Z"/><path class="cls-2" d="M18.84,15H15.6V13.81H17V6.48h1.17v7.33h.71Z"/><path class="cls-2" d="M22.92,15h-4V13.81H21V8.93h1.3v4.88h.59Zm-.67,3a.78.78,0,0,1-.56.21.83.83,0,0,1-.56-.2.64.64,0,0,1,0-1,.84.84,0,0,1,1.11,0,.64.64,0,0,1,.23.49A.7.7,0,0,1,22.25,17.94Z"/><path class="cls-2" d="M23.31,15h-.49V13.81h.46a1.07,1.07,0,0,0,.72-.2,1,1,0,0,0,.21-.69V6.48h1.16V13a1.82,1.82,0,0,1-.54,1.46A2.19,2.19,0,0,1,23.31,15Z"/><path class="cls-2" d="M27.05,6.48h1.16V15l-1.16.66Z"/><path class="cls-2" d="M38.42,15.21V8.93h1.16V15.3a2.49,2.49,0,0,1-1.33,2.29,4.67,4.67,0,0,1-2.46.6,4.21,4.21,0,0,1-2.53-.79,2.48,2.48,0,0,1-1.07-2.1V12.25l1.17-.76v3.7a1.56,1.56,0,0,0,.94,1.48A3.67,3.67,0,0,0,36,17a3,3,0,0,0,1.73-.48A1.53,1.53,0,0,0,38.42,15.21Zm-2-7.94a.58.58,0,0,1-.91,0,.73.73,0,0,1,0-1A.61.61,0,0,1,36,6.05a.56.56,0,0,1,.45.22.75.75,0,0,1,0,1Z"/><path class="cls-2" d="M42.15,17.1c1.62,0,2.44-.59,2.44-1.77V15h-1A2.23,2.23,0,0,1,42,14.43a2.1,2.1,0,0,1-.55-1.51V11A2,2,0,0,1,42,9.45a2.11,2.11,0,0,1,1.48-.52h2.29v6.18A2.93,2.93,0,0,1,45,17.36a3.67,3.67,0,0,1-2.25.79l-.78-1Zm2.44-3.29V10.09H43.42a.86.86,0,0,0-.65.21,1,1,0,0,0-.19.68v1.94a.86.86,0,0,0,.22.7,1.35,1.35,0,0,0,.87.19Z"/><path class="cls-2" d="M52.51,15H51.8v.14A2.94,2.94,0,0,1,51,17.36a3.68,3.68,0,0,1-2.26.79l-.78-1h.18c1.63,0,2.45-.59,2.45-1.77V15h-1A2.25,2.25,0,0,1,48,14.43a2.1,2.1,0,0,1-.55-1.51V11A2,2,0,0,1,48,9.45a2.1,2.1,0,0,1,1.49-.52h2.3v4.88h.71Zm-1.8-7.48h-2.2V7H49a1.21,1.21,0,0,1-.14-.58.86.86,0,0,1,.26-.59.94.94,0,0,1,.7-.27h.51v.47H50q-.6,0-.6.48c0,.32.2.49.6.49h.69Zm-.08,6.32V10.09H49.46a.89.89,0,0,0-.66.21,1,1,0,0,0-.19.68v1.94a.86.86,0,0,0,.22.7,1.39,1.39,0,0,0,.88.19Z"/><path class="cls-2" d="M63.88,15H52.46V13.81h3.4V8.93H57v4.88h2V8.93h1.17v4.88h2V8.93h1.16v4.88h.49Zm-4.61-8.7a.8.8,0,0,1,.18.52.69.69,0,0,1-.19.49.57.57,0,0,1-.45.21.62.62,0,0,1-.46-.21.73.73,0,0,1-.2-.51.76.76,0,0,1,.19-.51.61.61,0,0,1,.93,0Zm.78-1.46a.54.54,0,0,1,.19.41.53.53,0,0,1-.19.41.61.61,0,0,1-.44.17.57.57,0,0,1-.43-.17A.58.58,0,0,1,59,5.22a.6.6,0,0,1,.17-.41.61.61,0,0,1,.43-.17A.66.66,0,0,1,60.05,4.81Zm.89,1.45a.72.72,0,0,1,.19.51.69.69,0,0,1-.2.51.6.6,0,0,1-.91,0,.76.76,0,0,1-.19-.51.73.73,0,0,1,.2-.51.59.59,0,0,1,.46-.21A.57.57,0,0,1,60.94,6.26Z"/><path class="cls-2" d="M64.3,15h-.49V13.81h.45a1.05,1.05,0,0,0,.72-.2.91.91,0,0,0,.22-.69V6.48h1.16V13a1.82,1.82,0,0,1-.54,1.46A2.19,2.19,0,0,1,64.3,15Z"/><path class="cls-2" d="M68,6.48H69.2V15L68,15.63Z"/><path class="cls-2" d="M77.52,8.93v4a1.93,1.93,0,0,1-.71,1.67,2.67,2.67,0,0,1-1.54.38,2.05,2.05,0,0,1-1.55-.55,2.21,2.21,0,0,1-.54-1.55V11a1.91,1.91,0,0,1,.58-1.54,2.09,2.09,0,0,1,1.43-.51ZM74.87,7.27a.57.57,0,0,1-.9,0,.72.72,0,0,1,0-1,.57.57,0,0,1,.9,0,.75.75,0,0,1,0,1Zm1.49,5.67V10.09H75.19c-.56,0-.84.3-.84.89v2c0,.58.33.87,1,.87S76.36,13.52,76.36,12.94Zm.42-5.67a.58.58,0,0,1-.91,0,.71.71,0,0,1-.19-.5.68.68,0,0,1,.2-.5.57.57,0,0,1,.9,0,.75.75,0,0,1,0,1Z"/><path class="cls-2" d="M80.15,15.13V8.93h1.16v6.56a2.7,2.7,0,0,1-1.8,2.66l-.82-1a2.24,2.24,0,0,0,1.15-.68A2.25,2.25,0,0,0,80.15,15.13Z"/><path class="cls-2" d="M83,6.48h1.16V15L83,15.63Z"/><path class="cls-2" d="M86.77,15.13V8.93h1.16v6.56a2.7,2.7,0,0,1-1.8,2.66l-.82-1a2.28,2.28,0,0,0,1.16-.68A2.26,2.26,0,0,0,86.77,15.13Zm1.08-7.85a.69.69,0,0,1-.5.21.66.66,0,0,1-.5-.21.69.69,0,0,1,0-1,.66.66,0,0,1,.5-.21.69.69,0,0,1,.5.21.69.69,0,0,1,0,1Z"/><path class="cls-2" d="M90.35,17.1c1.62,0,2.44-.59,2.44-1.77V15h-1a2.23,2.23,0,0,1-1.63-.54,2.1,2.1,0,0,1-.55-1.51V11a2,2,0,0,1,.57-1.53,2.09,2.09,0,0,1,1.48-.52H94v6.18a2.93,2.93,0,0,1-.75,2.25,3.67,3.67,0,0,1-2.25.79l-.78-1Zm2.44-3.29V10.09H91.62a.86.86,0,0,0-.65.21,1,1,0,0,0-.19.68v1.94a.9.9,0,0,0,.21.7,1.41,1.41,0,0,0,.88.19Z"/><path class="cls-2" d="M6.52,30.81V24.53H7.68V30.9a2.49,2.49,0,0,1-1.33,2.29,4.58,4.58,0,0,1-2.46.6A4.2,4.2,0,0,1,1.36,33a2.48,2.48,0,0,1-1.07-2.1V27.85l1.17-.76v3.7a1.58,1.58,0,0,0,.93,1.49,3.74,3.74,0,0,0,1.69.34,3,3,0,0,0,1.73-.48A1.52,1.52,0,0,0,6.52,30.81Zm-2-7.93a.58.58,0,0,1-.91,0,.76.76,0,0,1-.2-.51.72.72,0,0,1,.2-.5.63.63,0,0,1,.46-.21.58.58,0,0,1,.45.21.71.71,0,0,1,.19.5A.75.75,0,0,1,4.52,22.88Z"/><path class="cls-2" d="M11.46,30.57h-.07A1.68,1.68,0,0,1,10.07,30a1.87,1.87,0,0,1-.5-1.3V22.08h1.16v6.58q0,.75.66.75h.07Z"/><path class="cls-2" d="M20.52,30.57H11.46V29.41h7.16V26.55a.74.74,0,0,0-.83-.85h-3V24.15q0-2.07,2.16-2.07h2v1.17H16.77a.75.75,0,0,0-.86.84v.44h1.85a2,2,0,0,1,1.53.57,2.2,2.2,0,0,1,.5,1.49v2.82h.73Z"/><path class="cls-2" d="M31,30.57H18.46V29.41h7.07V24.53h1.16v4.88h2V24.53h1.16v4.88h1.18a.74.74,0,0,0,.85-.82V24.53h1.16v4a1.91,1.91,0,0,1-.56,1.52A2.21,2.21,0,0,1,31,30.57Z"/><path class="cls-2" d="M38.6,30.57H34.75V29.41h2.11L35,24.53h1.26l1.89,4.88h.47a1.05,1.05,0,0,0,.72-.2.92.92,0,0,0,.21-.69V22.08h1.17v6.53a1.88,1.88,0,0,1-.56,1.47A2.16,2.16,0,0,1,38.6,30.57ZM37,33.75h-2.2v-.49h.53a1.11,1.11,0,0,1-.14-.56.9.9,0,0,1,.26-.6.91.91,0,0,1,.68-.27h.52v.49h-.34c-.41,0-.6.16-.6.47s.2.47.6.47H37Z"/><path class="cls-2" d="M42.33,22.08H43.5v8.49l-1.17.66Z"/><path class="cls-2" d="M45.92,32.7c1.62,0,2.44-.58,2.44-1.76v-.37h-1A2.23,2.23,0,0,1,45.73,30a2.08,2.08,0,0,1-.55-1.51V26.59a2,2,0,0,1,.57-1.54,2.15,2.15,0,0,1,1.48-.52h2.3v6.19A2.89,2.89,0,0,1,48.78,33a3.67,3.67,0,0,1-2.26.79l-.78-1Zm2.44-3.29V25.7H47.2a.87.87,0,0,0-.66.21,1,1,0,0,0-.19.68v1.93a.89.89,0,0,0,.22.71,1.47,1.47,0,0,0,.88.18Z"/><path class="cls-2" d="M58.5,30.57H56.61v-.76l-.49.76h-.44A2.24,2.24,0,0,1,54,30a2,2,0,0,1-.53-1.48V26.59A1.91,1.91,0,0,1,54,25a2.19,2.19,0,0,1,1.44-.5h2.3v4.88h.73Zm-3.38-7.69a.58.58,0,0,1-.91,0,.76.76,0,0,1-.2-.51.72.72,0,0,1,.2-.5.6.6,0,0,1,.91,0,.76.76,0,0,1,.19.5A.8.8,0,0,1,55.12,22.88Zm1.49,6.53V25.7H55.44a.76.76,0,0,0-.85.85v2a.9.9,0,0,0,.21.67,1,1,0,0,0,.71.2ZM57,22.88a.63.63,0,0,1-.46.22.61.61,0,0,1-.45-.22.8.8,0,0,1-.19-.51.76.76,0,0,1,.19-.5.6.6,0,0,1,.45-.21.62.62,0,0,1,.46.21.72.72,0,0,1,.2.5A.76.76,0,0,1,57,22.88Z"/><path class="cls-2" d="M61.47,30.57H58.31V29.41h3.25c.57,0,.85-.27.85-.8V24.53h1.3v4a1.8,1.8,0,0,1-.79,1.61A2.52,2.52,0,0,1,61.47,30.57Zm.24,2a.74.74,0,0,1,.19.5.71.71,0,0,1-.19.49.62.62,0,0,1-.47.21.58.58,0,0,1-.46-.2.71.71,0,0,1-.18-.49.72.72,0,0,1,.19-.51.61.61,0,0,1,.92,0Zm1.92,1a.75.75,0,0,1-.55.21.79.79,0,0,1-.56-.2.61.61,0,0,1-.23-.49.64.64,0,0,1,.23-.51.79.79,0,0,1,.55-.21.77.77,0,0,1,.55.21.66.66,0,0,1,.23.5A.63.63,0,0,1,63.63,33.54Z"/><path class="cls-2" d="M66.1,32.7c1.62,0,2.44-.58,2.44-1.76v-.37h-1A2.21,2.21,0,0,1,65.91,30a2.08,2.08,0,0,1-.55-1.51V26.59a2,2,0,0,1,.57-1.54,2.14,2.14,0,0,1,1.48-.52H69.7v6.19A2.89,2.89,0,0,1,69,33a3.62,3.62,0,0,1-2.26.79l-.77-1Zm2.44-3.29V25.7H67.37a.86.86,0,0,0-.65.21,1,1,0,0,0-.2.68v1.93a.92.92,0,0,0,.22.71,1.49,1.49,0,0,0,.88.18Z"/><path class="cls-2" d="M72.33,30.73v-6.2h1.16v4.88h.73v1.16h-.73v.53a2.68,2.68,0,0,1-1.8,2.65l-.82-1A2.24,2.24,0,0,0,72,32,2.23,2.23,0,0,0,72.33,30.73Z"/><path class="cls-2" d="M82.6,30.57H74.1V29.41h1.37V26.59A2,2,0,0,1,76,25a2.09,2.09,0,0,1,1.43-.51H79.8v4.88h2.8Zm-5.45-7.69a.58.58,0,0,1-.45.22.63.63,0,0,1-.46-.22.75.75,0,0,1-.19-.51.71.71,0,0,1,.19-.5.62.62,0,0,1,.46-.21.57.57,0,0,1,.45.21.71.71,0,0,1,.19.5A.75.75,0,0,1,77.15,22.88Zm1.49,6.53V25.7H77.47c-.56,0-.84.29-.84.89v2.82Zm.41-6.53a.58.58,0,0,1-.91,0,.75.75,0,0,1-.19-.51.71.71,0,0,1,.19-.5.6.6,0,0,1,.91,0,.71.71,0,0,1,.19.5A.75.75,0,0,1,79.05,22.88Z"/><path class="cls-2" d="M83,30.57h-.49V29.41H83a1.05,1.05,0,0,0,.72-.2.88.88,0,0,0,.22-.69V22.08h1.16v6.53a1.88,1.88,0,0,1-.54,1.47A2.21,2.21,0,0,1,83,30.57Z"/><path class="cls-2" d="M86.76,22.08h1.16v8.49l-1.16.66Z"/><path class="cls-2" d="M90.35,32.7c1.62,0,2.43-.58,2.44-1.76v-.37h-1A2.21,2.21,0,0,1,90.16,30a2.08,2.08,0,0,1-.55-1.51V26.59a2,2,0,0,1,.57-1.54,2.14,2.14,0,0,1,1.48-.52H94v6.19A2.89,2.89,0,0,1,93.2,33a3.62,3.62,0,0,1-2.26.79l-.77-1Zm2.44-3.29V25.7H91.62a.86.86,0,0,0-.65.21,1,1,0,0,0-.2.68v1.93a.92.92,0,0,0,.22.71,1.49,1.49,0,0,0,.88.18Z"/><path class="cls-1" d="M3.31,40.71H2.84V37.87L2,40.71H1.36L.47,37.87v2.84H0V37.3H.76l.9,3,.91-3h.74Z"/><path class="cls-1" d="M4.46,37.28a.29.29,0,0,1,.09.22.29.29,0,0,1-.09.21.27.27,0,0,1-.22.1.28.28,0,0,1-.22-.1.3.3,0,0,1-.1-.21.32.32,0,0,1,.1-.22.31.31,0,0,1,.22-.09A.29.29,0,0,1,4.46,37.28ZM4,40.39V38.28h.49v2c0,.08,0,.13.11.13h.13l.06.27a.64.64,0,0,1-.36.08.44.44,0,0,1-.32-.1A.3.3,0,0,1,4,40.39Z"/><path class="cls-1" d="M6.73,40.39V39.07a.58.58,0,0,0-.06-.31.31.31,0,0,0-.24-.08,1.17,1.17,0,0,0-.4.1,1.25,1.25,0,0,0-.39.25v1.68H5.15V38.28h.49v.32a1.51,1.51,0,0,1,.41-.26,1.19,1.19,0,0,1,.45-.1.72.72,0,0,1,.56.17.89.89,0,0,1,.16.62v1.24c0,.08,0,.13.11.13h.14l.06.27a.7.7,0,0,1-.37.08.49.49,0,0,1-.32-.09A.35.35,0,0,1,6.73,40.39Z"/><path class="cls-1" d="M8.36,37.28a.29.29,0,0,1,.09.22.29.29,0,0,1-.09.21.27.27,0,0,1-.22.1.28.28,0,0,1-.22-.1.29.29,0,0,1-.09-.21.31.31,0,0,1,.31-.31A.29.29,0,0,1,8.36,37.28Zm-.47,3.11V38.28h.49v2c0,.08,0,.13.12.13h.12l.07.27a.7.7,0,0,1-.37.08.44.44,0,0,1-.32-.1A.33.33,0,0,1,7.89,40.39Z"/><path class="cls-1" d="M9.71,40.34c.39,0,.59-.11.59-.35a.22.22,0,0,0-.11-.18,1.89,1.89,0,0,0-.44-.2,2,2,0,0,1-.49-.25A.56.56,0,0,1,9,38.89a.55.55,0,0,1,.25-.47,1.14,1.14,0,0,1,.68-.18,1.69,1.69,0,0,1,.72.13l-.09.4a1.34,1.34,0,0,0-.59-.13c-.32,0-.49.08-.49.25a.2.2,0,0,0,.1.16,3,3,0,0,0,.43.19,2.09,2.09,0,0,1,.5.25.64.64,0,0,1,.23.53.61.61,0,0,1-.3.53,1.3,1.3,0,0,1-.73.19A2.69,2.69,0,0,1,9,40.63l.11-.43a1.74,1.74,0,0,0,.32.1A1.45,1.45,0,0,0,9.71,40.34Z"/><path class="cls-1" d="M11.42,40.12V38.68H11l.07-.4h.31v-.65l.49-.16v.81h.51v.4h-.51v1.39a.37.37,0,0,0,.05.22.27.27,0,0,0,.19.05.54.54,0,0,0,.25-.06l.07.37a1.7,1.7,0,0,1-.54.09.5.5,0,0,1-.39-.14A.73.73,0,0,1,11.42,40.12Z"/><path class="cls-1" d="M13.38,40.71h-.49V38.28h.49v.32a.51.51,0,0,1,.19-.26.47.47,0,0,1,.3-.1.81.81,0,0,1,.41.13l-.08.41a1.35,1.35,0,0,0-.43-.08q-.23,0-.39.33Z"/><path class="cls-1" d="M15.39,41.51a.77.77,0,0,1-.54.2,1.16,1.16,0,0,1-.51-.09l.09-.41c.31.11.53.1.66,0a1.5,1.5,0,0,0,.26-.54l-.92-2.37H15L15.58,40l.53-1.74h.52l-.87,2.52A1.83,1.83,0,0,1,15.39,41.51Z"/><path class="cls-1" d="M20.22,39.49c0,.83-.39,1.25-1.18,1.25s-1.18-.42-1.18-1.25.4-1.25,1.18-1.25S20.22,38.65,20.22,39.49ZM19,40.34a.67.67,0,0,0,.52-.18,1.07,1.07,0,0,0,.15-.65,1.16,1.16,0,0,0-.15-.67.75.75,0,0,0-1,0,1,1,0,0,0-.16.66,1.07,1.07,0,0,0,.15.66A.59.59,0,0,0,19,40.34Z"/><path class="cls-1" d="M21.39,40.71H20.9v-2h-.38l.08-.4h.3v-.34a.94.94,0,0,1,.15-.6.57.57,0,0,1,.48-.19,1.71,1.71,0,0,1,.56.08l-.09.4c-.29-.07-.47-.08-.52,0a.33.33,0,0,0-.09.26v.41h.53v.4h-.53Z"/><path class="cls-1" d="M26.64,40.71h-.47V37.87l-.89,2.84h-.59l-.9-2.84v2.84h-.46V37.3h.76l.9,3,.91-3h.74Z"/><path class="cls-1" d="M28,40.74a.76.76,0,0,1-.56-.17A.88.88,0,0,1,27.3,40V38.28h.49V39.9a.6.6,0,0,0,.06.32.32.32,0,0,0,.25.08,1.09,1.09,0,0,0,.42-.11.74.74,0,0,0,.33-.24V38.28h.49v2c0,.08,0,.13.12.13h.14l0,.27a.68.68,0,0,1-.36.08.48.48,0,0,1-.33-.1.33.33,0,0,1-.11-.25,1.5,1.5,0,0,1-.4.25A1,1,0,0,1,28,40.74Z"/><path class="cls-1" d="M31.57,40.39V39.07a.58.58,0,0,0-.06-.31.31.31,0,0,0-.24-.08,1.27,1.27,0,0,0-.41.1,1.32,1.32,0,0,0-.38.25v1.68H30V38.28h.49v.32a1.51,1.51,0,0,1,.41-.26,1.19,1.19,0,0,1,.45-.1.72.72,0,0,1,.56.17.89.89,0,0,1,.16.62v1.24c0,.08,0,.13.11.13h.14l.06.27a.7.7,0,0,1-.37.08.49.49,0,0,1-.32-.09A.35.35,0,0,1,31.57,40.39Z"/><path class="cls-1" d="M33.2,37.28a.29.29,0,0,1,.09.22.29.29,0,0,1-.09.21.27.27,0,0,1-.22.1.28.28,0,0,1-.22-.1.29.29,0,0,1-.09-.21.31.31,0,0,1,.31-.31A.29.29,0,0,1,33.2,37.28Zm-.47,3.11V38.28h.49v2c0,.08,0,.13.12.13h.12l.07.27a.7.7,0,0,1-.37.08.44.44,0,0,1-.32-.1A.33.33,0,0,1,32.73,40.39Z"/><path class="cls-1" d="M34.13,40.42a1.25,1.25,0,0,1-.32-.9,1.32,1.32,0,0,1,.32-.92,1,1,0,0,1,.8-.36,2.21,2.21,0,0,1,.8.12l-.07.39a1.43,1.43,0,0,0-.62-.11c-.47,0-.71.28-.71.85s.26.85.78.85l.31,0,.29-.07-.09.4a2.22,2.22,0,0,1-.73.1A1.07,1.07,0,0,1,34.13,40.42Z"/><path class="cls-1" d="M36.66,37.28a.29.29,0,0,1,.09.22.29.29,0,0,1-.09.21.27.27,0,0,1-.22.1.28.28,0,0,1-.22-.1.29.29,0,0,1-.09-.21.31.31,0,0,1,.31-.31A.29.29,0,0,1,36.66,37.28Zm-.47,3.11V38.28h.49v2c0,.08,0,.13.12.13h.12l.07.27a.7.7,0,0,1-.37.08.44.44,0,0,1-.32-.1A.33.33,0,0,1,36.19,40.39Z"/><path class="cls-1" d="M37.84,41.67h-.49V38.28h.49v.33a1,1,0,0,1,1.5-.06,1.35,1.35,0,0,1,.27.92,1.37,1.37,0,0,1-.29.94,1,1,0,0,1-.8.33,1.74,1.74,0,0,1-.39-.05,1.12,1.12,0,0,1-.29-.14Zm0-2.37v.82a.89.89,0,0,0,.26.16.94.94,0,0,0,.31.06.65.65,0,0,0,.53-.19,1.05,1.05,0,0,0,.15-.65,1.12,1.12,0,0,0-.14-.64.56.56,0,0,0-.46-.18.6.6,0,0,0-.48.2A.64.64,0,0,0,37.84,39.3Z"/><path class="cls-1" d="M40.82,40.74c-.52,0-.78-.23-.78-.7a.74.74,0,0,1,.37-.69,1.47,1.47,0,0,1,.71-.15l.4,0V39a.32.32,0,0,0-.13-.28,1,1,0,0,0-.47-.08,2,2,0,0,0-.71.13l.09-.4a2.15,2.15,0,0,1,.81-.13,1,1,0,0,1,.69.2,1,1,0,0,1,.21.7v1.13c0,.08,0,.13.12.13h.13l.05.27a.75.75,0,0,1-.37.08.48.48,0,0,1-.31-.09.31.31,0,0,1-.11-.26A.75.75,0,0,1,40.82,40.74Zm.7-.93v-.23l-.46,0a.69.69,0,0,0-.36.1.39.39,0,0,0-.14.33q0,.36.42.36a.52.52,0,0,0,.38-.15A.49.49,0,0,0,41.52,39.81Z"/><path class="cls-1" d="M42.67,40.39V37.3h.49v3c0,.08,0,.13.11.13h.14l.05.27a.64.64,0,0,1-.36.08.44.44,0,0,1-.32-.1A.3.3,0,0,1,42.67,40.39Z"/><path class="cls-1" d="M45.29,39.45v1.26h-.52V37.3h1.09Q47,37.3,47,38.38a1.11,1.11,0,0,1-.16.61.89.89,0,0,1-.44.37l.73,1.35h-.59l-.65-1.26Zm0-.45H46c.36,0,.54-.2.54-.62a.61.61,0,0,0-.16-.47.49.49,0,0,0-.38-.17h-.68Z"/><path class="cls-1" d="M48.38,40.74a.79.79,0,0,1-.57-.17.89.89,0,0,1-.16-.62V38.28h.48V39.9a.58.58,0,0,0,.07.32.3.3,0,0,0,.24.08,1.09,1.09,0,0,0,.42-.11.74.74,0,0,0,.33-.24V38.28h.49v2a.12.12,0,0,0,.13.13h.13l.05.27a.68.68,0,0,1-.36.08.44.44,0,0,1-.32-.1.3.3,0,0,1-.12-.25,1.36,1.36,0,0,1-.4.25A1,1,0,0,1,48.38,40.74Z"/><path class="cls-1" d="M50.82,40.71h-.49V38.28h.49v.32a.57.57,0,0,1,.19-.26.48.48,0,0,1,.31-.1.87.87,0,0,1,.41.13l-.09.41a1.31,1.31,0,0,0-.43-.08q-.21,0-.39.33Z"/><path class="cls-1" d="M52.73,40.74c-.52,0-.78-.23-.78-.7a.74.74,0,0,1,.37-.69A1.47,1.47,0,0,1,53,39.2l.4,0V39a.32.32,0,0,0-.13-.28,1,1,0,0,0-.47-.08,2,2,0,0,0-.71.13l.09-.4a2.15,2.15,0,0,1,.81-.13,1,1,0,0,1,.69.2,1,1,0,0,1,.2.7v1.13a.12.12,0,0,0,.13.13h.12l.06.27a.75.75,0,0,1-.37.08.48.48,0,0,1-.31-.09.31.31,0,0,1-.11-.26A.75.75,0,0,1,52.73,40.74Zm.7-.93v-.23l-.46,0a.69.69,0,0,0-.36.1.37.37,0,0,0-.14.33q0,.36.42.36a.52.52,0,0,0,.38-.15A.53.53,0,0,0,53.43,39.81Z"/><path class="cls-1" d="M54.57,40.39V37.3h.49v3c0,.08,0,.13.12.13h.13l.06.27a.64.64,0,0,1-.36.08.48.48,0,0,1-.33-.1A.33.33,0,0,1,54.57,40.39Z"/><path class="cls-1" d="M59.3,40.71h-.56l-.27-.78H57.19l-.27.78h-.49l1.16-3.41h.55Zm-1-1.22-.49-1.41-.48,1.41Z"/><path class="cls-1" d="M60.34,40.71h-.49v-2h-.39l.08-.4h.31v-.34a1,1,0,0,1,.14-.6.57.57,0,0,1,.49-.19,1.68,1.68,0,0,1,.55.08l-.09.4c-.29-.07-.47-.08-.52,0a.33.33,0,0,0-.08.26v.41h.52v.4h-.52Zm1.68,0h-.49v-2h-.39l.08-.4h.31v-.34a.94.94,0,0,1,.15-.6.54.54,0,0,1,.48-.19,1.75,1.75,0,0,1,.56.08l-.09.4c-.3-.07-.47-.08-.53,0a.37.37,0,0,0-.08.26v.41h.53v.4H62Z"/><path class="cls-1" d="M63.59,40.74c-.52,0-.78-.23-.78-.7a.74.74,0,0,1,.38-.69,1.47,1.47,0,0,1,.71-.15l.39,0V39a.3.3,0,0,0-.13-.28,1,1,0,0,0-.47-.08,2,2,0,0,0-.7.13l.08-.4a2.24,2.24,0,0,1,.82-.13.76.76,0,0,1,.89.9v1.13a.12.12,0,0,0,.13.13H65l.06.27a.77.77,0,0,1-.37.08.46.46,0,0,1-.31-.09.32.32,0,0,1-.12-.26A.74.74,0,0,1,63.59,40.74Zm.7-.93v-.23l-.45,0a.69.69,0,0,0-.36.1.37.37,0,0,0-.15.33c0,.24.14.36.43.36a.54.54,0,0,0,.38-.15A.52.52,0,0,0,64.29,39.81Z"/><path class="cls-1" d="M65.91,37.28a.29.29,0,0,1,.09.22.29.29,0,0,1-.09.21.27.27,0,0,1-.22.1.28.28,0,0,1-.22-.1.29.29,0,0,1-.09-.21.31.31,0,0,1,.31-.31A.29.29,0,0,1,65.91,37.28Zm-.47,3.11V38.28h.49v2c0,.08,0,.13.12.13h.12l.07.27a.7.7,0,0,1-.37.08.44.44,0,0,1-.32-.1A.33.33,0,0,1,65.44,40.39Z"/><path class="cls-1" d="M67.09,40.71H66.6V38.28h.49v.32a.51.51,0,0,1,.19-.26.47.47,0,0,1,.3-.1.81.81,0,0,1,.41.13l-.08.41a1.35,1.35,0,0,0-.43-.08q-.23,0-.39.33Z"/><path class="cls-1" d="M69,40.34c.39,0,.58-.11.58-.35a.24.24,0,0,0-.1-.18,2,2,0,0,0-.45-.2,2,2,0,0,1-.49-.25.56.56,0,0,1-.22-.47.55.55,0,0,1,.25-.47,1.16,1.16,0,0,1,.68-.18,1.69,1.69,0,0,1,.72.13l-.08.4a1.38,1.38,0,0,0-.6-.13c-.32,0-.48.08-.48.25a.19.19,0,0,0,.09.16,3,3,0,0,0,.43.19,1.76,1.76,0,0,1,.5.25.65.65,0,0,1,.24.53.61.61,0,0,1-.3.53,1.34,1.34,0,0,1-.74.19,2.67,2.67,0,0,1-.78-.11l.11-.43a1.52,1.52,0,0,0,.32.1A1.45,1.45,0,0,0,69,40.34Z"/><path class="cls-1" d="M74,40.76a.87.87,0,0,1-.6-.35,1.05,1.05,0,0,1-.41.25,1.5,1.5,0,0,1-.52.1,1.22,1.22,0,0,1-.81-.24.84.84,0,0,1-.28-.68,1,1,0,0,1,.64-1,1.37,1.37,0,0,1-.29-.77.75.75,0,0,1,.23-.57.86.86,0,0,1,.64-.22,2,2,0,0,1,.77.15l-.08.44a1.51,1.51,0,0,0-.66-.14c-.27,0-.41.11-.41.33a1,1,0,0,0,.21.57,13.45,13.45,0,0,0,1,1.1,1.09,1.09,0,0,0,.12-.36,4.64,4.64,0,0,0,0-.63h.89l-.07.4H74a2.4,2.4,0,0,1-.07.51,2,2,0,0,1-.18.44,1.07,1.07,0,0,0,.27.26.5.5,0,0,0,.42,0l-.07.41A1.32,1.32,0,0,1,74,40.76Zm-2.13-1c0,.38.2.58.62.58a.93.93,0,0,0,.34-.08.71.71,0,0,0,.27-.18c-.22-.22-.5-.55-.86-1C72,39.21,71.91,39.43,71.91,39.78Z"/><path class="cls-1" d="M78.49,40.71H78V39.18H76.48v1.53H76V37.3h.52v1.43H78V37.3h.52Z"/><path class="cls-1" d="M81.44,39.49c0,.83-.39,1.25-1.18,1.25s-1.18-.42-1.18-1.25.4-1.25,1.18-1.25S81.44,38.65,81.44,39.49Zm-1.19.85a.67.67,0,0,0,.52-.18,1.07,1.07,0,0,0,.15-.65,1.16,1.16,0,0,0-.15-.67.75.75,0,0,0-1,0,1,1,0,0,0-.16.66,1.07,1.07,0,0,0,.15.66A.59.59,0,0,0,80.25,40.34Z"/><path class="cls-1" d="M82.72,40.74a.76.76,0,0,1-.56-.17A.88.88,0,0,1,82,40V38.28h.49V39.9a.6.6,0,0,0,.06.32.32.32,0,0,0,.25.08,1.09,1.09,0,0,0,.42-.11.74.74,0,0,0,.33-.24V38.28H84v2c0,.08,0,.13.12.13h.14l0,.27a.68.68,0,0,1-.36.08.48.48,0,0,1-.33-.1.33.33,0,0,1-.11-.25,1.5,1.5,0,0,1-.4.25A1,1,0,0,1,82.72,40.74Z"/><path class="cls-1" d="M85.34,40.34c.39,0,.58-.11.58-.35a.21.21,0,0,0-.1-.18,2.13,2.13,0,0,0-.44-.2,1.8,1.8,0,0,1-.49-.25.57.57,0,0,1-.23-.47.56.56,0,0,1,.26-.47,1.12,1.12,0,0,1,.68-.18,1.75,1.75,0,0,1,.72.13l-.09.4a1.34,1.34,0,0,0-.59-.13c-.32,0-.49.08-.49.25a.19.19,0,0,0,.09.16l.44.19a2.09,2.09,0,0,1,.5.25.67.67,0,0,1,.23.53.61.61,0,0,1-.3.53,1.3,1.3,0,0,1-.73.19,2.69,2.69,0,0,1-.79-.11l.11-.43a1.74,1.74,0,0,0,.32.1A1.45,1.45,0,0,0,85.34,40.34Z"/><path class="cls-1" d="M87.38,37.28a.33.33,0,0,1,.08.22.32.32,0,0,1-.08.21.29.29,0,0,1-.44,0,.26.26,0,0,1-.1-.21.28.28,0,0,1,.1-.22.31.31,0,0,1,.44,0Zm-.47,3.11V38.28h.49v2c0,.08,0,.13.11.13h.13l.06.27a.68.68,0,0,1-.36.08.45.45,0,0,1-.33-.1A.32.32,0,0,1,86.91,40.39Z"/><path class="cls-1" d="M89.65,40.39V39.07a.58.58,0,0,0-.06-.31.33.33,0,0,0-.24-.08,1.27,1.27,0,0,0-.41.1,1.53,1.53,0,0,0-.39.25v1.68h-.48V38.28h.48v.32a1.58,1.58,0,0,1,.42-.26,1.19,1.19,0,0,1,.45-.1.74.74,0,0,1,.56.17.89.89,0,0,1,.16.62v1.24c0,.08,0,.13.11.13h.13l.06.27a.68.68,0,0,1-.36.08.49.49,0,0,1-.32-.09A.31.31,0,0,1,89.65,40.39Z"/><path class="cls-1" d="M92.49,40.66v-.21a1,1,0,0,1-.33.23,1.17,1.17,0,0,1-.42.06c-.67,0-1-.42-1-1.25A1.09,1.09,0,0,1,92,38.24a4.1,4.1,0,0,1,1,.12v2.19a1.1,1.1,0,0,1-.41,1,1.77,1.77,0,0,1-.82.14,2.33,2.33,0,0,1-1-.2l.09-.41a1.79,1.79,0,0,0,.86.21,1,1,0,0,0,.62-.14A.64.64,0,0,0,92.49,40.66Zm0-1.12V38.7a2.35,2.35,0,0,0-.54-.06c-.46,0-.7.27-.7.81a1.27,1.27,0,0,0,.14.69.52.52,0,0,0,.47.2C92.28,40.34,92.49,40.07,92.49,39.54Z"/></g></g></svg>