<svg xmlns="http://www.w3.org/2000/svg" width="203.976" height="77.891" viewBox="0 0 203.976 77.891">
  <g id="Logo" transform="translate(0 0)">
    <path id="Path_4552" data-name="Path 4552" d="M30.984,51.819" fill="#005e85"/>
    <path id="Path_4553" data-name="Path 4553" d="M63.256,51.371a1.648,1.648,0,0,1-1.4-.868,3.043,3.043,0,0,1-.532-1.861,2.277,2.277,0,0,1,.532-1.609,1.916,1.916,0,0,1,1.3-.546,19.576,19.576,0,0,1,2.659.238V45.059a20.96,20.96,0,0,0-2.659-.224,4.517,4.517,0,0,0-1.483.266,3.408,3.408,0,0,0-1.232.742,3.235,3.235,0,0,0-.8,1.2,4.108,4.108,0,0,0-.294,1.595,2.673,2.673,0,0,0,.1.728,4.264,4.264,0,0,0,.238.7,5,5,0,0,0,.322.616,6.369,6.369,0,0,0,.532.616v.07H51.486a1.4,1.4,0,0,1-.517-.1,1.312,1.312,0,0,1-.462-.28,1.612,1.612,0,0,1-.322-.5,1.883,1.883,0,0,1-.126-.727V41.1l-1.973.77v8.214a1.649,1.649,0,0,1-.112.63,1.243,1.243,0,0,1-.294.392,1,1,0,0,1-.378.21,1.845,1.845,0,0,1-.364,0H45.371V44.793l-1.96.77v5.808H41.55V53.05h5.192a4.87,4.87,0,0,0,.616,0,3.687,3.687,0,0,0,.728-.14,4.109,4.109,0,0,0,.741-.293,2.789,2.789,0,0,0,.686-.546,2.648,2.648,0,0,0,.938.713,2.785,2.785,0,0,0,1.231.294H66.839V51.371Z" fill="#005e85"/>
    <path id="Path_4554" data-name="Path 4554" d="M77.741,49.761V41.1l-1.959.77v8.215a1.41,1.41,0,0,1-.126.63.939.939,0,0,1-.294.391.986.986,0,0,1-.378.21,1.7,1.7,0,0,1-.364,0H73.067V44.793l-1.974.77V51.37H69.232v1.694H75.04a3.535,3.535,0,0,0,.728-.14,3.351,3.351,0,0,0,.755-.294c.658-.434,1.218-1.162,1.218-2.869" fill="#005e85"/>
    <path id="Path_4555" data-name="Path 4555" d="M82.051,41.1l-1.9.756V53.064h1.9Z" fill="#005e85"/>
    <path id="Path_4556" data-name="Path 4556" d="M93.652,45.885a3.4,3.4,0,0,0-1.3-.784,5.594,5.594,0,0,0-3.4,0,3.4,3.4,0,0,0-1.3.784,3.308,3.308,0,0,0-.84,1.287,4.948,4.948,0,0,0-.294,1.82,5.019,5.019,0,0,0,.252,1.749,3.427,3.427,0,0,0,.84,1.287,3.591,3.591,0,0,0,1.3.784,5.864,5.864,0,0,0,3.4,0,3.583,3.583,0,0,0,1.3-.784,3.427,3.427,0,0,0,.84-1.287,4.992,4.992,0,0,0,.35-1.749,4.9,4.9,0,0,0-.308-1.778,3.3,3.3,0,0,0-.84-1.329m-1.4,4.814a2.282,2.282,0,0,1-3.226.035l-.035-.035a2.68,2.68,0,0,1-.56-1.749,2.638,2.638,0,0,1,.56-1.736,2.282,2.282,0,0,1,3.226-.035c.012.012.023.024.035.035a2.638,2.638,0,0,1,.56,1.736,2.674,2.674,0,0,1-.532,1.749Z" fill="#005e85"/>
    <path id="Path_4557" data-name="Path 4557" d="M98.425,56.353a5.055,5.055,0,0,0,.658-2.8V44.793l-1.9.742v7.949a6.553,6.553,0,0,1-.083,1.162,2.067,2.067,0,0,1-.224.685.824.824,0,0,1-.378.322,1.388,1.388,0,0,1-.49.084h-1.26v1.652h1.4a2.436,2.436,0,0,0,2.281-1.036" fill="#005e85"/>
    <path id="Path_4558" data-name="Path 4558" d="M103.379,41.1l-1.9.77V52.9h1.9Z" fill="#005e85"/>
    <path id="Path_4559" data-name="Path 4559" d="M107.06,56.353a5.055,5.055,0,0,0,.658-2.8V44.793l-1.9.756V53.47a6.553,6.553,0,0,1-.083,1.162,2.067,2.067,0,0,1-.224.685.824.824,0,0,1-.378.322,1.388,1.388,0,0,1-.49.084h-1.26v1.666h1.4a2.436,2.436,0,0,0,2.281-1.036" fill="#005e85"/>
    <path id="Path_4560" data-name="Path 4560" d="M107.717,41.1v2.3l-1.9-.756V41.1Z" fill="#005e85"/>
    <path id="Path_4561" data-name="Path 4561" d="M93.415,41.1v2.3l-1.9-.756V41.1Z" fill="#005e85"/>
    <path id="Path_4562" data-name="Path 4562" d="M89.79,41.1v2.3l-1.9-.756V41.1Z" fill="#005e85"/>
    <path id="Path_4563" data-name="Path 4563" d="M72.185,56.675a.587.587,0,0,1-.476-.182.733.733,0,0,1-.168-.5.76.76,0,0,1,.154-.49.492.492,0,0,1,.392-.167,7.688,7.688,0,0,1,.994.083V54.8a7.87,7.87,0,0,0-.994-.084,1.4,1.4,0,0,0-.994.308,1.1,1.1,0,0,0-.349.881,1.16,1.16,0,0,0,.07.378,1.909,1.909,0,0,0,.195.336H70.45v.77h2.967v-.672Z" fill="#005e85"/>
    <path id="Path_4564" data-name="Path 4564" d="M117.765,47.662a3.933,3.933,0,0,0-.643-1.539,2.812,2.812,0,0,0-1.232-.952,4.785,4.785,0,0,0-1.9-.378,4.654,4.654,0,0,0-1.89.35,3.1,3.1,0,0,0-1.189.938,3.473,3.473,0,0,0-.616,1.4,8.235,8.235,0,0,0-.182,1.764,4.076,4.076,0,0,0,.294,1.581,3.63,3.63,0,0,0,.826,1.2,3.417,3.417,0,0,0,1.259.783,4.555,4.555,0,0,0,1.61.266h.531a5.867,5.867,0,0,0,1.288-.867c-.154,1.931-.476,3.54-3.205,3.54h-1.581v1.638h1.833a6.359,6.359,0,0,0,2.351-.378,3.4,3.4,0,0,0,1.554-1.246,7.647,7.647,0,0,0,.839-2.561,17.832,17.832,0,0,0,.252-3.246,12.276,12.276,0,0,0-.2-2.3m-1.791,3.723H114.1a1.959,1.959,0,0,1-1.512-.518,2.313,2.313,0,0,1-.49-1.637,6.224,6.224,0,0,1,.1-1.148,2.247,2.247,0,0,1,.308-.811,1.658,1.658,0,0,1,.6-.56,2.127,2.127,0,0,1,.952-.2,1.581,1.581,0,0,1,1.539.8,6.06,6.06,0,0,1,.434,2.533c0,.545-.028,1.077-.056,1.539" fill="#005e85"/>
    <path id="Path_4565" data-name="Path 4565" d="M39.633,47.1a3.424,3.424,0,0,0-.868-1.273,3.7,3.7,0,0,0-1.315-.756,5.782,5.782,0,0,0-1.665-.28,4.915,4.915,0,0,0-1.666.266,3.631,3.631,0,0,0-1.315.77,3.441,3.441,0,0,0-.868,1.259,4.127,4.127,0,0,0,.112,3.387,4.833,4.833,0,0,0,1.4.882,4.327,4.327,0,0,0-.755,0h-.35a4.249,4.249,0,0,0-.854.308,2.684,2.684,0,0,0-.867.7,3.386,3.386,0,0,0-.672,2.184v2.841h1.9v-2.7a2.96,2.96,0,0,1,.07-.616,1.253,1.253,0,0,1,.28-.518,1.207,1.207,0,0,1,.546-.364,2.525,2.525,0,0,1,.867-.126h2.212a5.586,5.586,0,0,0,1.707-.252,3.72,3.72,0,0,0,1.3-.741,3.522,3.522,0,0,0,.854-1.26,6.118,6.118,0,0,0,.294-1.987,4.3,4.3,0,0,0-.35-1.722m-2.225,3.681a2.018,2.018,0,0,1-1.623.658,2.059,2.059,0,0,1-1.638-.658,3.325,3.325,0,0,1-.56-1.959,2.594,2.594,0,0,1,.56-1.708,2.365,2.365,0,0,1,3.275,0,2.578,2.578,0,0,1,.546,1.708,3.221,3.221,0,0,1-.56,1.959" fill="#005e85"/>
    <path id="Path_4566" data-name="Path 4566" d="M11.392,63.56v10.9H9.5V66.807a14.706,14.706,0,0,1-.686,1.553L6.508,72.88H4.856L2.589,68.36a14.125,14.125,0,0,1-.741-1.581v7.683H0V63.56H2.072l2.477,4.8a22.759,22.759,0,0,1,1.161,2.6,17.981,17.981,0,0,1,1.162-2.6l2.477-4.8Z" fill="#005e85"/>
    <path id="Path_4567" data-name="Path 4567" d="M12.945,67.031l1.819-.182v7.613H12.945Z" fill="#005e85"/>
    <path id="Path_4568" data-name="Path 4568" d="M23.049,69.1v5.36H21.23V69.69c0-1.092-.308-1.4-1.19-1.4a4.326,4.326,0,0,0-1.9.518v5.654H16.318V67.031l1.819-.182v.728a5.1,5.1,0,0,1,2.617-.8,2.057,2.057,0,0,1,2.3,1.784,2.027,2.027,0,0,1,0,.539" fill="#005e85"/>
    <path id="Path_4569" data-name="Path 4569" d="M24.6,67.031l1.819-.182v7.613H24.6Z" fill="#005e85"/>
    <path id="Path_4570" data-name="Path 4570" d="M27.99,73.678l.783-1.232a4.278,4.278,0,0,0,2.533.868c.9,0,1.4-.308,1.4-.854s-.28-.755-1.538-1.091l-.5-.126c-1.567-.42-2.281-1.064-2.281-2.225s1.217-2.239,2.911-2.239a5.78,5.78,0,0,1,2.981.811l-.7,1.2a4.377,4.377,0,0,0-2.239-.63c-.714,0-1.092.294-1.092.742s.252.588,1.176.811l.531.14c1.834.49,2.59,1.232,2.59,2.436s-1.036,2.393-3.121,2.393a5.512,5.512,0,0,1-3.428-1.008" fill="#005e85"/>
    <path id="Path_4571" data-name="Path 4571" d="M41.089,74.182a4.286,4.286,0,0,1-2.029.5,2.141,2.141,0,0,1-2.3-1.965,2.041,2.041,0,0,1,.009-.428V68.444h-1.4v-1.4h1.4v-1.68l1.805-.28v1.96h2.323l-.182,1.4H38.57v3.569c0,.839.322,1.189.9,1.189a2.928,2.928,0,0,0,1.119-.266Z" fill="#005e85"/>
    <path id="Path_4572" data-name="Path 4572" d="M47.582,66.933l-.308,1.847a3.013,3.013,0,0,0-1.091-.2A2.031,2.031,0,0,0,44.4,69.62v4.842H42.586V67.017l1.819-.168v1.064a2.562,2.562,0,0,1,2.127-1.134,3.4,3.4,0,0,1,1.05.154" fill="#005e85"/>
    <path id="Path_4573" data-name="Path 4573" d="M55.643,67.017v.168l-2.575,7.529c-.784,2.267-1.721,3.177-3.429,3.177a4.53,4.53,0,0,1-1.567-.28l.462-1.315a3.192,3.192,0,0,0,.951.139c.7,0,1.274-.181,1.834-1.665l.084-.238h-.49l-2.8-7.347v-.1h1.917l1.526,4.3c.181.518.307.966.419,1.4.112-.42.252-.91.378-1.4l1.4-4.422Z" fill="#005e85"/>
    <path id="Path_4574" data-name="Path 4574" d="M26.436,63.56v2.3l-1.9-.756V63.56Z" fill="#005e85"/>
    <path id="Path_4575" data-name="Path 4575" d="M14.806,63.56v2.3L12.9,65.1V63.56Z" fill="#005e85"/>
    <path id="Path_4576" data-name="Path 4576" d="M59.044,70.851a3.6,3.6,0,0,1,3.194-3.959,3.75,3.75,0,0,1,.571-.016c2.435,0,3.68,1.666,3.68,4.017a3.723,3.723,0,0,1-7.445,0v-.045Zm5.752,0c0-1.511-.644-2.547-1.987-2.547s-2.085,1.022-2.085,2.491.643,2.407,2,2.407,2.071-.84,2.071-2.309Z" fill="#005e85"/>
    <path id="Path_4577" data-name="Path 4577" d="M71.093,66.527v1.288h2.141l-.182,1.4H71.093v5.262H69.274V69.242H68.028v-1.4h1.246v-1.26a2.714,2.714,0,0,1,2.434-2.969,2.777,2.777,0,0,1,.365-.012,4.768,4.768,0,0,1,1.791.322l-.462,1.4a2.928,2.928,0,0,0-1.175-.237c-.728,0-1.134.545-1.134,1.441" fill="#005e85"/>
    <path id="Path_4578" data-name="Path 4578" d="M89.4,63.6V74.5H87.523V66.849q-.312.786-.7,1.539l-2.295,4.534H82.876L80.6,68.388a11.644,11.644,0,0,1-.727-1.581v7.7H78.006V63.6h2.072l2.491,4.786A19.712,19.712,0,0,1,83.73,71a18.983,18.983,0,0,1,1.162-2.617L87.383,63.6Z" fill="#005e85"/>
    <path id="Path_4579" data-name="Path 4579" d="M97.781,71.132h-5.01c.084,1.581,1.008,2.155,2.029,2.155a4.108,4.108,0,0,0,2.211-.672l.644,1.176a5.21,5.21,0,0,1-2.981.923,3.412,3.412,0,0,1-3.708-3.848c0-2.337,1.259-4.059,3.652-4.059a3,3,0,0,1,3.216,2.756,2.957,2.957,0,0,1,0,.421c0,.308-.014.742-.056,1.148m-4.926-1.26h3.233c0-1.2-.616-1.693-1.4-1.693a1.945,1.945,0,0,0-1.833,1.693" fill="#005e85"/>
    <path id="Path_4580" data-name="Path 4580" d="M106.444,63.575V74.5h-1.6l-.112-.56a4.337,4.337,0,0,1-2.337.769c-2.043,0-3.121-1.4-3.121-3.764a3.75,3.75,0,0,1,3.273-4.174,3.691,3.691,0,0,1,.6-.025,5.149,5.149,0,0,1,1.469.224v-3.2Zm-3.569,9.7a3.272,3.272,0,0,0,1.749-.49V68.375a3.546,3.546,0,0,0-1.259-.2c-1.246,0-2.183.868-2.183,2.8,0,1.581.615,2.3,1.693,2.3" fill="#005e85"/>
    <path id="Path_4581" data-name="Path 4581" d="M108,67.059l1.819-.182V74.5H108Z" fill="#005e85"/>
    <path id="Path_4582" data-name="Path 4582" d="M117.962,69.285V74.5H116.38l-.14-.63a4.2,4.2,0,0,1-2.6.839,2.028,2.028,0,0,1-2.253-1.777,1.925,1.925,0,0,1-.014-.252c0-1.9,2.2-2.715,4.772-2.8v-.28c0-.937-.28-1.4-1.2-1.4a4.586,4.586,0,0,0-2.491.854l-.742-1.162a5.9,5.9,0,0,1,3.5-1.148c1.777.056,2.757.77,2.757,2.534M114.225,73.3a3.713,3.713,0,0,0,1.931-.518V71.118c-1.749.084-2.8.532-2.8,1.4-.084.5.252.784.868.784" fill="#005e85"/>
    <path id="Path_4583" data-name="Path 4583" d="M109.859,63.6v2.281l-1.9-.756V63.6Z" fill="#005e85"/>
    <path id="Path_4584" data-name="Path 4584" d="M183.723,19.6a12.6,12.6,0,0,0-8.271-8.481,12.421,12.421,0,0,1,6.522-.28.266.266,0,0,0,.252-.448,12.44,12.44,0,0,0-1.778-1.4,12.588,12.588,0,0,0-6.913-2.1h-.266a12.753,12.753,0,0,1,4.2-2.253.266.266,0,0,0,.167-.337.262.262,0,0,0-.167-.167,12.589,12.589,0,0,0-7.081.532,6.305,6.305,0,0,1,2.183-3.135.266.266,0,0,0-.182-.476A6.478,6.478,0,0,0,167.5,3.775,6.359,6.359,0,0,0,166.1.094a.266.266,0,0,0-.375-.031.3.3,0,0,0-.031.031,6.439,6.439,0,0,0-1.4,3.681,6.479,6.479,0,0,0-4.912-2.7.266.266,0,0,0-.182.476,6.305,6.305,0,0,1,2.183,3.135,12.582,12.582,0,0,0-7.081-.476.266.266,0,0,0-.167.337.271.271,0,0,0,.167.167,12.587,12.587,0,0,1,4.115,2.253h-.28a12.6,12.6,0,0,0-6.9,2.071,12.431,12.431,0,0,0-1.777,1.4.266.266,0,0,0,.252.448,12.6,12.6,0,0,1,2.8-.308,12.4,12.4,0,0,1,3.764.588,12.6,12.6,0,0,0-8.257,8.481.266.266,0,0,0,.448.266,12.3,12.3,0,0,1,7.893-3.863,12.5,12.5,0,0,0-5.6,11.2.266.266,0,0,0,.518.084,12.33,12.33,0,0,1,7.277-7,12.271,12.271,0,0,0-3.218,8.089,12.429,12.429,0,0,0,.713,4.2.266.266,0,0,0,.518,0,11.979,11.979,0,0,1,6.158-9.18l.434-.238a.111.111,0,0,1,.158-.01l.01.01a32.126,32.126,0,0,1,.559,7.3c0,6.228-.5,18.277-.559,18.781l2.505,1.833h.084l2.491-1.833c0-.518-.56-12.595-.56-18.781a32.185,32.185,0,0,1,.56-7.3.1.1,0,0,1,.137-.017l.017.017.448.238a11.976,11.976,0,0,1,6.157,9.18.266.266,0,0,0,.518,0,12.43,12.43,0,0,0,.714-4.2,12.271,12.271,0,0,0-3.177-8.257,12.33,12.33,0,0,1,7.277,7,.266.266,0,0,0,.518-.084,12.5,12.5,0,0,0-5.6-11.2,12.3,12.3,0,0,1,7.907,3.989.266.266,0,0,0,.392-.266" fill="#00af7c"/>
    <path id="Path_4585" data-name="Path 4585" d="M174.3,68.85a3.773,3.773,0,0,1-.449.378,1.53,1.53,0,0,1-.42.238.828.828,0,0,1-.377,0,.768.768,0,0,1-.336-.126,2.155,2.155,0,0,1-.336-.378,1.944,1.944,0,0,0-.574-.49A2.109,2.109,0,0,0,171,68.22a2.223,2.223,0,0,0-.8,0,2.04,2.04,0,0,0-.671.35,1.934,1.934,0,0,0-.7,1.12,2.066,2.066,0,0,0,.069,1.2,2.6,2.6,0,0,0,2.8,1.526,6.093,6.093,0,0,0,3.3-2.156,1.724,1.724,0,0,0-.239-2.043,1.384,1.384,0,0,1-.461.63" fill="#00af7c"/>
    <path id="Path_4586" data-name="Path 4586" d="M162.661,69.256a1.995,1.995,0,0,0-1.148-.9,2.1,2.1,0,0,0-.783,0,1.992,1.992,0,0,0-1.386.742,2.156,2.156,0,0,1-.336.378.812.812,0,0,1-.35.126.8.8,0,0,1-.363,0,1.53,1.53,0,0,1-.42-.238,3.671,3.671,0,0,1-.448-.378c-.168-.154-.322-.322-.476-.49a1.722,1.722,0,0,0-.21,1.9,6.085,6.085,0,0,0,3.3,2.155,2.617,2.617,0,0,0,2.8-1.526,2.141,2.141,0,0,0-.154-1.777Z" fill="#00af7c"/>
    <path id="Path_4587" data-name="Path 4587" d="M203.637,46.669c-14.261-5.6-27.989.77-37.786,7.823-9.8-7-23.525-13.421-37.786-7.823a.322.322,0,0,0,.14.616c12.512-.994,22.392,1.721,34.148,9.8-3.527,2.8-6.382,5.6-8.4,7.4-.294-.42-.8-1.077-1.064-1.4a6.085,6.085,0,0,0-3.3-2.155,2.6,2.6,0,0,0-2.8,1.525,2.214,2.214,0,0,0-.084,1.2,2.074,2.074,0,0,0,.238.727,2.239,2.239,0,0,0,.476.546,2.055,2.055,0,0,0,.672.35,2.229,2.229,0,0,0,.8,0,2.11,2.11,0,0,0,.811-.252,1.932,1.932,0,0,0,.574-.49,2.235,2.235,0,0,1,.336-.378.7.7,0,0,1,.714,0,2.488,2.488,0,0,1,.42.224A11.876,11.876,0,0,1,153.3,66.08l.574.713.252.336s-2.016-.741-2.324-.462c-1.4,1.4-2.645,2.506-3.722,3.485a10.746,10.746,0,0,1-.994.8,7.01,7.01,0,0,1-.881.518,4.155,4.155,0,0,1-.8.266,3.174,3.174,0,0,1-.714.084,3.5,3.5,0,0,1-.644-.084,4.377,4.377,0,0,1-.6-.182l-.56-.252a4.241,4.241,0,0,0-.56-.28,2.19,2.19,0,0,0-.588-.126h-.392a2.178,2.178,0,0,0-1.049.392,2.155,2.155,0,0,0-.728.895,2.287,2.287,0,0,0-.182,1.092,2.258,2.258,0,0,0,.406,1.064,2.947,2.947,0,0,0,.574.6,4.152,4.152,0,0,0,.784.476,4.823,4.823,0,0,0,.951.35,7.045,7.045,0,0,0,1.078.2,8.034,8.034,0,0,0,1.161,0,3.2,3.2,0,0,0,.518,0c2.533-.238,5.01-2.393,6.284-3.6a185.259,185.259,0,0,1,14.652-12.595,185.451,185.451,0,0,1,14.653,12.595c1.273,1.2,3.75,3.359,6.269,3.6a3.375,3.375,0,0,0,.532,0,8.048,8.048,0,0,0,1.162,0,7.033,7.033,0,0,0,1.077-.2,4.809,4.809,0,0,0,.952-.35,3.659,3.659,0,0,0,.77-.476,2.657,2.657,0,0,0,.587-.6,2.4,2.4,0,0,0,.406-1.064,2.275,2.275,0,0,0-.182-1.092,2.152,2.152,0,0,0-.727-.895,2.182,2.182,0,0,0-1.05-.392h-.378a2.2,2.2,0,0,0-.588.126,4.169,4.169,0,0,0-.559.28l-.574.252a4.165,4.165,0,0,1-.588.182,3.485,3.485,0,0,1-.644.084,2.952,2.952,0,0,1-.713-.084,3.856,3.856,0,0,1-.8-.266,7.02,7.02,0,0,1-.882-.518,10.733,10.733,0,0,1-.993-.8c-1.078-.979-2.254-2.085-3.723-3.485-.308-.279-2.323.462-2.323.462l.252-.336.573-.713a11.078,11.078,0,0,1,1.61-1.694,2.451,2.451,0,0,1,.42-.224.694.694,0,0,1,.378-.07.773.773,0,0,1,.336.126,2.186,2.186,0,0,1,.335.378,1.957,1.957,0,0,0,.574.49,2.114,2.114,0,0,0,.812.252,2.229,2.229,0,0,0,.8,0,2.06,2.06,0,0,0,.671-.35,2.208,2.208,0,0,0,.49-.6,2.046,2.046,0,0,0,.224-.573,2.075,2.075,0,0,0,0-1.2,2.616,2.616,0,0,0-2.8-1.525,6.092,6.092,0,0,0-3.3,2.155c-.266.308-.769.965-1.077,1.4a111.678,111.678,0,0,0-8.4-7.4c11.755-8.145,21.65-10.86,34.161-9.8a.388.388,0,1,0,.1-.77" fill="#00af7c"/>
  </g>
</svg>
